<svg width="25" height="25" viewBox="0 0 25 25" fill="none" xmlns="http://www.w3.org/2000/svg">
<rect width="25" height="25" rx="5" fill="#EB4438"/>
<path d="M15.3381 15.2321C17.1471 12.3935 16.9197 12.7476 16.9718 12.6736C17.6304 11.7447 17.9785 10.6513 17.9785 9.51172C17.9785 6.48957 15.5261 4 12.5 4C9.48376 4 7.02148 6.48466 7.02148 9.51172C7.02148 10.6506 7.37689 11.7726 8.05709 12.714L9.66186 15.2322C7.94609 15.4958 5.0293 16.2816 5.0293 18.0117C5.0293 18.6424 5.44095 19.5412 7.40206 20.2416C8.77142 20.7307 10.5819 21 12.5 21C16.0868 21 19.9707 19.9882 19.9707 18.0117C19.9707 16.2813 17.0573 15.4963 15.3381 15.2321ZM8.88913 12.1661C8.88365 12.1576 8.87793 12.1492 8.87196 12.141C8.30595 11.3623 8.01758 10.4394 8.01758 9.51172C8.01758 7.02089 10.0232 4.99609 12.5 4.99609C14.9716 4.99609 16.9824 7.02178 16.9824 9.51172C16.9824 10.4409 16.6995 11.3325 16.1641 12.0906C16.1161 12.1539 16.3664 11.765 12.5 17.8321L8.88913 12.1661ZM12.5 20.0039C8.58223 20.0039 6.02539 18.8523 6.02539 18.0117C6.02539 17.4467 7.33917 16.5177 10.2504 16.1556L12.08 19.0265C12.125 19.0971 12.187 19.1552 12.2604 19.1955C12.3339 19.2358 12.4162 19.2569 12.5 19.2569C12.5837 19.2569 12.6661 19.2358 12.7395 19.1955C12.8129 19.1552 12.875 19.0971 12.92 19.0265L14.7495 16.1556C17.6608 16.5177 18.9746 17.4467 18.9746 18.0117C18.9746 18.8452 16.4408 20.0039 12.5 20.0039Z" fill="white"/>
<path d="M12.5 7.02148C11.1269 7.02148 10.0098 8.1386 10.0098 9.51172C10.0098 10.8848 11.1269 12.002 12.5 12.002C13.8731 12.002 14.9902 10.8848 14.9902 9.51172C14.9902 8.1386 13.8731 7.02148 12.5 7.02148ZM12.5 11.0059C11.6761 11.0059 11.0059 10.3356 11.0059 9.51172C11.0059 8.68785 11.6761 8.01758 12.5 8.01758C13.3239 8.01758 13.9941 8.68785 13.9941 9.51172C13.9941 10.3356 13.3239 11.0059 12.5 11.0059Z" fill="white"/>
</svg>
