<svg width="20" height="20" viewBox="0 0 20 20" fill="none" xmlns="http://www.w3.org/2000/svg">
<g id="Frame" clip-path="url(#clip0_131_940)">
<g id="Group">
<g id="Vector">
<mask id="path-1-outside-1_131_940" maskUnits="userSpaceOnUse" x="-198.041" y="-0.492188" width="218" height="20" fill="black">
<rect fill="white" x="-198.041" y="-0.492188" width="218" height="20"/>
<path d="M5.09994 0.507812C4.52611 0.507812 4.0765 0.84207 4.0765 1.26879V2.10566H2.201C1.87183 2.10605 1.55626 2.23698 1.32352 2.46973C1.09077 2.70249 0.959845 3.01806 0.959473 3.34723V18.2518C0.96 18.5808 1.09101 18.8961 1.32376 19.1287C1.5565 19.3612 1.87199 19.4919 2.201 19.4922H17.7998C18.1287 19.4918 18.444 19.361 18.6765 19.1285C18.9091 18.8959 19.0399 18.5806 19.0403 18.2518V3.34723C19.04 3.01821 18.9093 2.70272 18.6768 2.46996C18.4442 2.2372 18.1288 2.10619 17.7998 2.10566H15.9231V1.26879C15.9231 0.84207 15.4739 0.507812 14.9008 0.507812C14.327 0.507812 13.8774 0.84207 13.8774 1.26879V2.10566H11.0233V1.26879C11.0233 0.84207 10.5737 0.507812 9.99986 0.507812C9.426 0.507812 8.97643 0.84207 8.97643 1.26879V2.10566H6.1233V1.26879C6.12334 0.84207 5.67381 0.507812 5.09994 0.507812ZM4.7015 1.27344C4.72041 1.2325 4.86404 1.13281 5.09994 1.13281C5.33584 1.13281 5.47943 1.2325 5.49838 1.27344V2.10566H4.7015V1.27344ZM1.58432 6.01172H18.4153V15.3105H16.0858C16.0029 15.3105 15.9234 15.3435 15.8648 15.4021C15.8062 15.4607 15.7733 15.5402 15.7733 15.623V17.9526H2.201C2.03751 17.9524 1.88077 17.8874 1.76519 17.7718C1.6496 17.6562 1.58461 17.4994 1.58447 17.3359L1.58432 6.01172ZM17.9732 15.9355L16.3983 17.5106V15.9355L17.9732 15.9355ZM17.7998 18.8672H2.201C2.06838 18.8671 1.93931 18.8243 1.8329 18.7452C1.72648 18.666 1.64838 18.5547 1.61014 18.4277C1.79147 18.5263 1.99462 18.5778 2.201 18.5775H16.0858C16.1687 18.5775 16.2482 18.5446 16.3068 18.486L18.4154 16.3774V18.2518C18.4152 18.4149 18.3503 18.5714 18.2349 18.6868C18.1195 18.8021 17.963 18.867 17.7998 18.8672ZM14.5024 1.27344C14.5211 1.23262 14.6645 1.13301 14.9009 1.13301C15.1366 1.13301 15.2798 1.23262 15.2982 1.2734V2.10566H14.5025L14.5024 1.27344ZM9.60143 1.27344C9.62037 1.23254 9.76397 1.13281 9.99986 1.13281C10.2358 1.13281 10.3793 1.2325 10.3983 1.27344V2.10566H9.60143V1.27344ZM9.99986 4.05508C10.0827 4.05508 10.1622 4.02215 10.2208 3.96355C10.2794 3.90494 10.3124 3.82546 10.3124 3.74258C10.3124 3.6597 10.2794 3.58021 10.2208 3.52161C10.1622 3.463 10.0827 3.43008 9.99986 3.43008C9.76486 3.43008 9.62096 3.33023 9.60143 3.28906V2.73066H13.8774V3.29406C13.8774 3.72078 14.327 4.05504 14.9009 4.05504C14.9838 4.05504 15.0632 4.02211 15.1219 3.96351C15.1805 3.9049 15.2134 3.82542 15.2134 3.74254C15.2134 3.65966 15.1805 3.58017 15.1219 3.52157C15.0632 3.46296 14.9838 3.43004 14.9009 3.43004C14.6654 3.43004 14.5216 3.33027 14.5024 3.28922V2.73062H17.7998C17.9631 2.73096 18.1197 2.79606 18.235 2.91165C18.3504 3.02723 18.4152 3.18387 18.4153 3.34719V5.38672H1.58447V3.34723C1.58464 3.18376 1.64965 3.02704 1.76523 2.91145C1.88081 2.79586 2.03753 2.73084 2.201 2.73066H4.07658V3.29406C4.07658 3.72078 4.52611 4.05504 5.10002 4.05504C5.1829 4.05504 5.26239 4.02211 5.32099 3.96351C5.3796 3.9049 5.41252 3.82542 5.41252 3.74254C5.41252 3.65966 5.3796 3.58017 5.32099 3.52157C5.26239 3.46296 5.1829 3.43004 5.10002 3.43004C4.86502 3.43004 4.72111 3.3302 4.70158 3.28902V2.73066H8.97643V3.29406C8.97643 3.72078 9.426 4.05508 9.99986 4.05508ZM7.39877 9.72895H8.98889C9.07177 9.72895 9.15125 9.69602 9.20986 9.63742C9.26846 9.57881 9.30139 9.49933 9.30139 9.41645V8.01348C9.30139 7.9306 9.26846 7.85111 9.20986 7.79251C9.15125 7.7339 9.07177 7.70098 8.98889 7.70098H7.39877C7.31589 7.70098 7.2364 7.7339 7.1778 7.79251C7.11919 7.85111 7.08627 7.9306 7.08627 8.01348V9.41645C7.08627 9.49933 7.11919 9.57881 7.1778 9.63742C7.2364 9.69602 7.31589 9.72895 7.39877 9.72895ZM7.71127 8.32598H8.67639V9.10395H7.71127V8.32598ZM11.0108 9.72895H12.6009C12.6838 9.72895 12.7633 9.69602 12.8219 9.63742C12.8805 9.57881 12.9134 9.49933 12.9134 9.41645V8.01348C12.9134 7.9306 12.8805 7.85111 12.8219 7.79251C12.7633 7.7339 12.6838 7.70098 12.6009 7.70098H11.0108C10.928 7.70098 10.8485 7.7339 10.7899 7.79251C10.7313 7.85111 10.6983 7.9306 10.6983 8.01348V9.41645C10.6983 9.49933 10.7313 9.57881 10.7899 9.63742C10.8485 9.69602 10.928 9.72895 11.0108 9.72895ZM11.3233 8.32598H12.2884V9.10395H11.3233V8.32598ZM3.7867 13.1616H5.37787C5.46075 13.1616 5.54024 13.1287 5.59884 13.0701C5.65745 13.0115 5.69037 12.932 5.69037 12.8491V11.4473C5.69037 11.3644 5.65745 11.2849 5.59884 11.2263C5.54024 11.1677 5.46075 11.1348 5.37787 11.1348H3.7867C3.70382 11.1348 3.62433 11.1677 3.56573 11.2263C3.50712 11.2849 3.4742 11.3644 3.4742 11.4473V12.8491C3.4742 12.932 3.50712 13.0115 3.56573 13.0701C3.62433 13.1287 3.70382 13.1616 3.7867 13.1616ZM4.0992 11.7598H5.06537V12.5366H4.0992V11.7598ZM7.39877 13.1616H8.98889C9.07177 13.1616 9.15125 13.1287 9.20986 13.0701C9.26846 13.0115 9.30139 12.932 9.30139 12.8491V11.4473C9.30139 11.3644 9.26846 11.2849 9.20986 11.2263C9.15125 11.1677 9.07177 11.1348 8.98889 11.1348H7.39877C7.31589 11.1348 7.2364 11.1677 7.1778 11.2263C7.11919 11.2849 7.08627 11.3644 7.08627 11.4473V12.8491C7.08627 12.932 7.11919 13.0115 7.1778 13.0701C7.2364 13.1287 7.31589 13.1616 7.39877 13.1616ZM7.71127 11.7598H8.67639V12.5366H7.71127V11.7598ZM11.0108 13.1616H12.6009C12.6838 13.1616 12.7633 13.1287 12.8219 13.0701C12.8805 13.0115 12.9134 12.932 12.9134 12.8491V11.4473C12.9134 11.3644 12.8805 11.2849 12.8219 11.2263C12.7633 11.1677 12.6838 11.1348 12.6009 11.1348H11.0108C10.928 11.1348 10.8485 11.1677 10.7899 11.2263C10.7313 11.2849 10.6983 11.3644 10.6983 11.4473V12.8491C10.6983 12.932 10.7313 13.0115 10.7899 13.0701C10.8485 13.1287 10.928 13.1616 11.0108 13.1616ZM11.3233 11.7598H12.2884V12.5366H11.3233V11.7598ZM3.7867 16.5943H5.37787C5.46075 16.5943 5.54024 16.5614 5.59884 16.5028C5.65745 16.4442 5.69037 16.3647 5.69037 16.2818V14.88C5.69037 14.7971 5.65745 14.7176 5.59884 14.659C5.54024 14.6004 5.46075 14.5675 5.37787 14.5675H3.7867C3.70382 14.5675 3.62433 14.6004 3.56573 14.659C3.50712 14.7176 3.4742 14.7971 3.4742 14.88V16.2818C3.4742 16.3647 3.50712 16.4442 3.56573 16.5028C3.62433 16.5614 3.70382 16.5943 3.7867 16.5943ZM4.0992 15.1925H5.06537V15.9693H4.0992V15.1925ZM7.39877 16.5943H8.98889C9.07177 16.5943 9.15125 16.5614 9.20986 16.5028C9.26846 16.4442 9.30139 16.3647 9.30139 16.2818V14.88C9.30139 14.7971 9.26846 14.7176 9.20986 14.659C9.15125 14.6004 9.07177 14.5675 8.98889 14.5675H7.39877C7.31589 14.5675 7.2364 14.6004 7.1778 14.659C7.11919 14.7176 7.08627 14.7971 7.08627 14.88V16.2818C7.08627 16.3647 7.11919 16.4442 7.1778 16.5028C7.2364 16.5614 7.31589 16.5943 7.39877 16.5943ZM7.71127 15.1925H8.67639V15.9693H7.71127V15.1925ZM3.7867 9.72895H5.37787C5.46075 9.72895 5.54024 9.69602 5.59884 9.63742C5.65745 9.57881 5.69037 9.49933 5.69037 9.41645V8.01348C5.69037 7.9306 5.65745 7.85111 5.59884 7.79251C5.54024 7.7339 5.46075 7.70098 5.37787 7.70098H3.7867C3.70382 7.70098 3.62433 7.7339 3.56573 7.79251C3.50712 7.85111 3.4742 7.9306 3.4742 8.01348V9.41645C3.4742 9.49933 3.50712 9.57881 3.56573 9.63742C3.62433 9.69602 3.70382 9.72895 3.7867 9.72895ZM4.0992 8.32598H5.06537V9.10395H4.0992V8.32598ZM16.213 11.1348H14.6229C14.54 11.1348 14.4605 11.1677 14.4019 11.2263C14.3433 11.2849 14.3104 11.3644 14.3104 11.4473V12.8491C14.3104 12.932 14.3433 13.0115 14.4019 13.0701C14.4605 13.1287 14.54 13.1616 14.6229 13.1616H16.213C16.2959 13.1616 16.3754 13.1287 16.434 13.0701C16.4926 13.0115 16.5255 12.932 16.5255 12.8491V11.4473C16.5255 11.3644 16.4926 11.2849 16.434 11.2263C16.3754 11.1677 16.2959 11.1348 16.213 11.1348ZM15.9005 12.5366H14.9354V11.7598H15.9005V12.5366ZM11.0108 16.5943H12.6009C12.6838 16.5943 12.7633 16.5614 12.8219 16.5028C12.8805 16.4442 12.9134 16.3647 12.9134 16.2818V14.88C12.9134 14.7971 12.8805 14.7176 12.8219 14.659C12.7633 14.6004 12.6838 14.5675 12.6009 14.5675H11.0108C10.928 14.5675 10.8485 14.6004 10.7899 14.659C10.7313 14.7176 10.6983 14.7971 10.6983 14.88V16.2818C10.6983 16.3647 10.7313 16.4442 10.7899 16.5028C10.8485 16.5614 10.928 16.5943 11.0108 16.5943ZM11.3233 15.1925H12.2884V15.9693H11.3233V15.1925ZM14.3585 8.91176C14.3291 8.88289 14.3058 8.84851 14.2898 8.81059C14.2737 8.77267 14.2653 8.73195 14.2651 8.69078C14.2649 8.64961 14.2728 8.6088 14.2883 8.57069C14.3039 8.53258 14.3269 8.49793 14.3559 8.46871C14.3849 8.4395 14.4194 8.41631 14.4574 8.40048C14.4954 8.38464 14.5361 8.37647 14.5773 8.37643C14.6185 8.3764 14.6593 8.38449 14.6973 8.40026C14.7353 8.41603 14.7699 8.43916 14.7989 8.46832L15.201 8.86766L16.0188 7.90129C16.0724 7.83802 16.1489 7.79861 16.2315 7.79173C16.3141 7.78485 16.396 7.81107 16.4593 7.86461C16.5225 7.91815 16.562 7.99463 16.5688 8.07723C16.5757 8.15982 16.5495 8.24177 16.496 8.30504L15.4595 9.52973C15.4316 9.56268 15.3972 9.58951 15.3584 9.6085C15.3197 9.62749 15.2774 9.63824 15.2342 9.64008C15.2297 9.64008 15.2252 9.64035 15.2208 9.64035C15.1382 9.64036 15.0591 9.60772 15.0005 9.54957L14.3585 8.91176Z"/>
</mask>
<path d="M5.09994 0.507812C4.52611 0.507812 4.0765 0.84207 4.0765 1.26879V2.10566H2.201C1.87183 2.10605 1.55626 2.23698 1.32352 2.46973C1.09077 2.70249 0.959845 3.01806 0.959473 3.34723V18.2518C0.96 18.5808 1.09101 18.8961 1.32376 19.1287C1.5565 19.3612 1.87199 19.4919 2.201 19.4922H17.7998C18.1287 19.4918 18.444 19.361 18.6765 19.1285C18.9091 18.8959 19.0399 18.5806 19.0403 18.2518V3.34723C19.04 3.01821 18.9093 2.70272 18.6768 2.46996C18.4442 2.2372 18.1288 2.10619 17.7998 2.10566H15.9231V1.26879C15.9231 0.84207 15.4739 0.507812 14.9008 0.507812C14.327 0.507812 13.8774 0.84207 13.8774 1.26879V2.10566H11.0233V1.26879C11.0233 0.84207 10.5737 0.507812 9.99986 0.507812C9.426 0.507812 8.97643 0.84207 8.97643 1.26879V2.10566H6.1233V1.26879C6.12334 0.84207 5.67381 0.507812 5.09994 0.507812ZM4.7015 1.27344C4.72041 1.2325 4.86404 1.13281 5.09994 1.13281C5.33584 1.13281 5.47943 1.2325 5.49838 1.27344V2.10566H4.7015V1.27344ZM1.58432 6.01172H18.4153V15.3105H16.0858C16.0029 15.3105 15.9234 15.3435 15.8648 15.4021C15.8062 15.4607 15.7733 15.5402 15.7733 15.623V17.9526H2.201C2.03751 17.9524 1.88077 17.8874 1.76519 17.7718C1.6496 17.6562 1.58461 17.4994 1.58447 17.3359L1.58432 6.01172ZM17.9732 15.9355L16.3983 17.5106V15.9355L17.9732 15.9355ZM17.7998 18.8672H2.201C2.06838 18.8671 1.93931 18.8243 1.8329 18.7452C1.72648 18.666 1.64838 18.5547 1.61014 18.4277C1.79147 18.5263 1.99462 18.5778 2.201 18.5775H16.0858C16.1687 18.5775 16.2482 18.5446 16.3068 18.486L18.4154 16.3774V18.2518C18.4152 18.4149 18.3503 18.5714 18.2349 18.6868C18.1195 18.8021 17.963 18.867 17.7998 18.8672ZM14.5024 1.27344C14.5211 1.23262 14.6645 1.13301 14.9009 1.13301C15.1366 1.13301 15.2798 1.23262 15.2982 1.2734V2.10566H14.5025L14.5024 1.27344ZM9.60143 1.27344C9.62037 1.23254 9.76397 1.13281 9.99986 1.13281C10.2358 1.13281 10.3793 1.2325 10.3983 1.27344V2.10566H9.60143V1.27344ZM9.99986 4.05508C10.0827 4.05508 10.1622 4.02215 10.2208 3.96355C10.2794 3.90494 10.3124 3.82546 10.3124 3.74258C10.3124 3.6597 10.2794 3.58021 10.2208 3.52161C10.1622 3.463 10.0827 3.43008 9.99986 3.43008C9.76486 3.43008 9.62096 3.33023 9.60143 3.28906V2.73066H13.8774V3.29406C13.8774 3.72078 14.327 4.05504 14.9009 4.05504C14.9838 4.05504 15.0632 4.02211 15.1219 3.96351C15.1805 3.9049 15.2134 3.82542 15.2134 3.74254C15.2134 3.65966 15.1805 3.58017 15.1219 3.52157C15.0632 3.46296 14.9838 3.43004 14.9009 3.43004C14.6654 3.43004 14.5216 3.33027 14.5024 3.28922V2.73062H17.7998C17.9631 2.73096 18.1197 2.79606 18.235 2.91165C18.3504 3.02723 18.4152 3.18387 18.4153 3.34719V5.38672H1.58447V3.34723C1.58464 3.18376 1.64965 3.02704 1.76523 2.91145C1.88081 2.79586 2.03753 2.73084 2.201 2.73066H4.07658V3.29406C4.07658 3.72078 4.52611 4.05504 5.10002 4.05504C5.1829 4.05504 5.26239 4.02211 5.32099 3.96351C5.3796 3.9049 5.41252 3.82542 5.41252 3.74254C5.41252 3.65966 5.3796 3.58017 5.32099 3.52157C5.26239 3.46296 5.1829 3.43004 5.10002 3.43004C4.86502 3.43004 4.72111 3.3302 4.70158 3.28902V2.73066H8.97643V3.29406C8.97643 3.72078 9.426 4.05508 9.99986 4.05508ZM7.39877 9.72895H8.98889C9.07177 9.72895 9.15125 9.69602 9.20986 9.63742C9.26846 9.57881 9.30139 9.49933 9.30139 9.41645V8.01348C9.30139 7.9306 9.26846 7.85111 9.20986 7.79251C9.15125 7.7339 9.07177 7.70098 8.98889 7.70098H7.39877C7.31589 7.70098 7.2364 7.7339 7.1778 7.79251C7.11919 7.85111 7.08627 7.9306 7.08627 8.01348V9.41645C7.08627 9.49933 7.11919 9.57881 7.1778 9.63742C7.2364 9.69602 7.31589 9.72895 7.39877 9.72895ZM7.71127 8.32598H8.67639V9.10395H7.71127V8.32598ZM11.0108 9.72895H12.6009C12.6838 9.72895 12.7633 9.69602 12.8219 9.63742C12.8805 9.57881 12.9134 9.49933 12.9134 9.41645V8.01348C12.9134 7.9306 12.8805 7.85111 12.8219 7.79251C12.7633 7.7339 12.6838 7.70098 12.6009 7.70098H11.0108C10.928 7.70098 10.8485 7.7339 10.7899 7.79251C10.7313 7.85111 10.6983 7.9306 10.6983 8.01348V9.41645C10.6983 9.49933 10.7313 9.57881 10.7899 9.63742C10.8485 9.69602 10.928 9.72895 11.0108 9.72895ZM11.3233 8.32598H12.2884V9.10395H11.3233V8.32598ZM3.7867 13.1616H5.37787C5.46075 13.1616 5.54024 13.1287 5.59884 13.0701C5.65745 13.0115 5.69037 12.932 5.69037 12.8491V11.4473C5.69037 11.3644 5.65745 11.2849 5.59884 11.2263C5.54024 11.1677 5.46075 11.1348 5.37787 11.1348H3.7867C3.70382 11.1348 3.62433 11.1677 3.56573 11.2263C3.50712 11.2849 3.4742 11.3644 3.4742 11.4473V12.8491C3.4742 12.932 3.50712 13.0115 3.56573 13.0701C3.62433 13.1287 3.70382 13.1616 3.7867 13.1616ZM4.0992 11.7598H5.06537V12.5366H4.0992V11.7598ZM7.39877 13.1616H8.98889C9.07177 13.1616 9.15125 13.1287 9.20986 13.0701C9.26846 13.0115 9.30139 12.932 9.30139 12.8491V11.4473C9.30139 11.3644 9.26846 11.2849 9.20986 11.2263C9.15125 11.1677 9.07177 11.1348 8.98889 11.1348H7.39877C7.31589 11.1348 7.2364 11.1677 7.1778 11.2263C7.11919 11.2849 7.08627 11.3644 7.08627 11.4473V12.8491C7.08627 12.932 7.11919 13.0115 7.1778 13.0701C7.2364 13.1287 7.31589 13.1616 7.39877 13.1616ZM7.71127 11.7598H8.67639V12.5366H7.71127V11.7598ZM11.0108 13.1616H12.6009C12.6838 13.1616 12.7633 13.1287 12.8219 13.0701C12.8805 13.0115 12.9134 12.932 12.9134 12.8491V11.4473C12.9134 11.3644 12.8805 11.2849 12.8219 11.2263C12.7633 11.1677 12.6838 11.1348 12.6009 11.1348H11.0108C10.928 11.1348 10.8485 11.1677 10.7899 11.2263C10.7313 11.2849 10.6983 11.3644 10.6983 11.4473V12.8491C10.6983 12.932 10.7313 13.0115 10.7899 13.0701C10.8485 13.1287 10.928 13.1616 11.0108 13.1616ZM11.3233 11.7598H12.2884V12.5366H11.3233V11.7598ZM3.7867 16.5943H5.37787C5.46075 16.5943 5.54024 16.5614 5.59884 16.5028C5.65745 16.4442 5.69037 16.3647 5.69037 16.2818V14.88C5.69037 14.7971 5.65745 14.7176 5.59884 14.659C5.54024 14.6004 5.46075 14.5675 5.37787 14.5675H3.7867C3.70382 14.5675 3.62433 14.6004 3.56573 14.659C3.50712 14.7176 3.4742 14.7971 3.4742 14.88V16.2818C3.4742 16.3647 3.50712 16.4442 3.56573 16.5028C3.62433 16.5614 3.70382 16.5943 3.7867 16.5943ZM4.0992 15.1925H5.06537V15.9693H4.0992V15.1925ZM7.39877 16.5943H8.98889C9.07177 16.5943 9.15125 16.5614 9.20986 16.5028C9.26846 16.4442 9.30139 16.3647 9.30139 16.2818V14.88C9.30139 14.7971 9.26846 14.7176 9.20986 14.659C9.15125 14.6004 9.07177 14.5675 8.98889 14.5675H7.39877C7.31589 14.5675 7.2364 14.6004 7.1778 14.659C7.11919 14.7176 7.08627 14.7971 7.08627 14.88V16.2818C7.08627 16.3647 7.11919 16.4442 7.1778 16.5028C7.2364 16.5614 7.31589 16.5943 7.39877 16.5943ZM7.71127 15.1925H8.67639V15.9693H7.71127V15.1925ZM3.7867 9.72895H5.37787C5.46075 9.72895 5.54024 9.69602 5.59884 9.63742C5.65745 9.57881 5.69037 9.49933 5.69037 9.41645V8.01348C5.69037 7.9306 5.65745 7.85111 5.59884 7.79251C5.54024 7.7339 5.46075 7.70098 5.37787 7.70098H3.7867C3.70382 7.70098 3.62433 7.7339 3.56573 7.79251C3.50712 7.85111 3.4742 7.9306 3.4742 8.01348V9.41645C3.4742 9.49933 3.50712 9.57881 3.56573 9.63742C3.62433 9.69602 3.70382 9.72895 3.7867 9.72895ZM4.0992 8.32598H5.06537V9.10395H4.0992V8.32598ZM16.213 11.1348H14.6229C14.54 11.1348 14.4605 11.1677 14.4019 11.2263C14.3433 11.2849 14.3104 11.3644 14.3104 11.4473V12.8491C14.3104 12.932 14.3433 13.0115 14.4019 13.0701C14.4605 13.1287 14.54 13.1616 14.6229 13.1616H16.213C16.2959 13.1616 16.3754 13.1287 16.434 13.0701C16.4926 13.0115 16.5255 12.932 16.5255 12.8491V11.4473C16.5255 11.3644 16.4926 11.2849 16.434 11.2263C16.3754 11.1677 16.2959 11.1348 16.213 11.1348ZM15.9005 12.5366H14.9354V11.7598H15.9005V12.5366ZM11.0108 16.5943H12.6009C12.6838 16.5943 12.7633 16.5614 12.8219 16.5028C12.8805 16.4442 12.9134 16.3647 12.9134 16.2818V14.88C12.9134 14.7971 12.8805 14.7176 12.8219 14.659C12.7633 14.6004 12.6838 14.5675 12.6009 14.5675H11.0108C10.928 14.5675 10.8485 14.6004 10.7899 14.659C10.7313 14.7176 10.6983 14.7971 10.6983 14.88V16.2818C10.6983 16.3647 10.7313 16.4442 10.7899 16.5028C10.8485 16.5614 10.928 16.5943 11.0108 16.5943ZM11.3233 15.1925H12.2884V15.9693H11.3233V15.1925ZM14.3585 8.91176C14.3291 8.88289 14.3058 8.84851 14.2898 8.81059C14.2737 8.77267 14.2653 8.73195 14.2651 8.69078C14.2649 8.64961 14.2728 8.6088 14.2883 8.57069C14.3039 8.53258 14.3269 8.49793 14.3559 8.46871C14.3849 8.4395 14.4194 8.41631 14.4574 8.40048C14.4954 8.38464 14.5361 8.37647 14.5773 8.37643C14.6185 8.3764 14.6593 8.38449 14.6973 8.40026C14.7353 8.41603 14.7699 8.43916 14.7989 8.46832L15.201 8.86766L16.0188 7.90129C16.0724 7.83802 16.1489 7.79861 16.2315 7.79173C16.3141 7.78485 16.396 7.81107 16.4593 7.86461C16.5225 7.91815 16.562 7.99463 16.5688 8.07723C16.5757 8.15982 16.5495 8.24177 16.496 8.30504L15.4595 9.52973C15.4316 9.56268 15.3972 9.58951 15.3584 9.6085C15.3197 9.62749 15.2774 9.63824 15.2342 9.64008C15.2297 9.64008 15.2252 9.64035 15.2208 9.64035C15.1382 9.64036 15.0591 9.60772 15.0005 9.54957L14.3585 8.91176Z" fill="#ED3237"/>
<path d="M5.09994 0.507812C4.52611 0.507812 4.0765 0.84207 4.0765 1.26879V2.10566H2.201C1.87183 2.10605 1.55626 2.23698 1.32352 2.46973C1.09077 2.70249 0.959845 3.01806 0.959473 3.34723V18.2518C0.96 18.5808 1.09101 18.8961 1.32376 19.1287C1.5565 19.3612 1.87199 19.4919 2.201 19.4922H17.7998C18.1287 19.4918 18.444 19.361 18.6765 19.1285C18.9091 18.8959 19.0399 18.5806 19.0403 18.2518V3.34723C19.04 3.01821 18.9093 2.70272 18.6768 2.46996C18.4442 2.2372 18.1288 2.10619 17.7998 2.10566H15.9231V1.26879C15.9231 0.84207 15.4739 0.507812 14.9008 0.507812C14.327 0.507812 13.8774 0.84207 13.8774 1.26879V2.10566H11.0233V1.26879C11.0233 0.84207 10.5737 0.507812 9.99986 0.507812C9.426 0.507812 8.97643 0.84207 8.97643 1.26879V2.10566H6.1233V1.26879C6.12334 0.84207 5.67381 0.507812 5.09994 0.507812ZM4.7015 1.27344C4.72041 1.2325 4.86404 1.13281 5.09994 1.13281C5.33584 1.13281 5.47943 1.2325 5.49838 1.27344V2.10566H4.7015V1.27344ZM1.58432 6.01172H18.4153V15.3105H16.0858C16.0029 15.3105 15.9234 15.3435 15.8648 15.4021C15.8062 15.4607 15.7733 15.5402 15.7733 15.623V17.9526H2.201C2.03751 17.9524 1.88077 17.8874 1.76519 17.7718C1.6496 17.6562 1.58461 17.4994 1.58447 17.3359L1.58432 6.01172ZM17.9732 15.9355L16.3983 17.5106V15.9355L17.9732 15.9355ZM17.7998 18.8672H2.201C2.06838 18.8671 1.93931 18.8243 1.8329 18.7452C1.72648 18.666 1.64838 18.5547 1.61014 18.4277C1.79147 18.5263 1.99462 18.5778 2.201 18.5775H16.0858C16.1687 18.5775 16.2482 18.5446 16.3068 18.486L18.4154 16.3774V18.2518C18.4152 18.4149 18.3503 18.5714 18.2349 18.6868C18.1195 18.8021 17.963 18.867 17.7998 18.8672ZM14.5024 1.27344C14.5211 1.23262 14.6645 1.13301 14.9009 1.13301C15.1366 1.13301 15.2798 1.23262 15.2982 1.2734V2.10566H14.5025L14.5024 1.27344ZM9.60143 1.27344C9.62037 1.23254 9.76397 1.13281 9.99986 1.13281C10.2358 1.13281 10.3793 1.2325 10.3983 1.27344V2.10566H9.60143V1.27344ZM9.99986 4.05508C10.0827 4.05508 10.1622 4.02215 10.2208 3.96355C10.2794 3.90494 10.3124 3.82546 10.3124 3.74258C10.3124 3.6597 10.2794 3.58021 10.2208 3.52161C10.1622 3.463 10.0827 3.43008 9.99986 3.43008C9.76486 3.43008 9.62096 3.33023 9.60143 3.28906V2.73066H13.8774V3.29406C13.8774 3.72078 14.327 4.05504 14.9009 4.05504C14.9838 4.05504 15.0632 4.02211 15.1219 3.96351C15.1805 3.9049 15.2134 3.82542 15.2134 3.74254C15.2134 3.65966 15.1805 3.58017 15.1219 3.52157C15.0632 3.46296 14.9838 3.43004 14.9009 3.43004C14.6654 3.43004 14.5216 3.33027 14.5024 3.28922V2.73062H17.7998C17.9631 2.73096 18.1197 2.79606 18.235 2.91165C18.3504 3.02723 18.4152 3.18387 18.4153 3.34719V5.38672H1.58447V3.34723C1.58464 3.18376 1.64965 3.02704 1.76523 2.91145C1.88081 2.79586 2.03753 2.73084 2.201 2.73066H4.07658V3.29406C4.07658 3.72078 4.52611 4.05504 5.10002 4.05504C5.1829 4.05504 5.26239 4.02211 5.32099 3.96351C5.3796 3.9049 5.41252 3.82542 5.41252 3.74254C5.41252 3.65966 5.3796 3.58017 5.32099 3.52157C5.26239 3.46296 5.1829 3.43004 5.10002 3.43004C4.86502 3.43004 4.72111 3.3302 4.70158 3.28902V2.73066H8.97643V3.29406C8.97643 3.72078 9.426 4.05508 9.99986 4.05508ZM7.39877 9.72895H8.98889C9.07177 9.72895 9.15125 9.69602 9.20986 9.63742C9.26846 9.57881 9.30139 9.49933 9.30139 9.41645V8.01348C9.30139 7.9306 9.26846 7.85111 9.20986 7.79251C9.15125 7.7339 9.07177 7.70098 8.98889 7.70098H7.39877C7.31589 7.70098 7.2364 7.7339 7.1778 7.79251C7.11919 7.85111 7.08627 7.9306 7.08627 8.01348V9.41645C7.08627 9.49933 7.11919 9.57881 7.1778 9.63742C7.2364 9.69602 7.31589 9.72895 7.39877 9.72895ZM7.71127 8.32598H8.67639V9.10395H7.71127V8.32598ZM11.0108 9.72895H12.6009C12.6838 9.72895 12.7633 9.69602 12.8219 9.63742C12.8805 9.57881 12.9134 9.49933 12.9134 9.41645V8.01348C12.9134 7.9306 12.8805 7.85111 12.8219 7.79251C12.7633 7.7339 12.6838 7.70098 12.6009 7.70098H11.0108C10.928 7.70098 10.8485 7.7339 10.7899 7.79251C10.7313 7.85111 10.6983 7.9306 10.6983 8.01348V9.41645C10.6983 9.49933 10.7313 9.57881 10.7899 9.63742C10.8485 9.69602 10.928 9.72895 11.0108 9.72895ZM11.3233 8.32598H12.2884V9.10395H11.3233V8.32598ZM3.7867 13.1616H5.37787C5.46075 13.1616 5.54024 13.1287 5.59884 13.0701C5.65745 13.0115 5.69037 12.932 5.69037 12.8491V11.4473C5.69037 11.3644 5.65745 11.2849 5.59884 11.2263C5.54024 11.1677 5.46075 11.1348 5.37787 11.1348H3.7867C3.70382 11.1348 3.62433 11.1677 3.56573 11.2263C3.50712 11.2849 3.4742 11.3644 3.4742 11.4473V12.8491C3.4742 12.932 3.50712 13.0115 3.56573 13.0701C3.62433 13.1287 3.70382 13.1616 3.7867 13.1616ZM4.0992 11.7598H5.06537V12.5366H4.0992V11.7598ZM7.39877 13.1616H8.98889C9.07177 13.1616 9.15125 13.1287 9.20986 13.0701C9.26846 13.0115 9.30139 12.932 9.30139 12.8491V11.4473C9.30139 11.3644 9.26846 11.2849 9.20986 11.2263C9.15125 11.1677 9.07177 11.1348 8.98889 11.1348H7.39877C7.31589 11.1348 7.2364 11.1677 7.1778 11.2263C7.11919 11.2849 7.08627 11.3644 7.08627 11.4473V12.8491C7.08627 12.932 7.11919 13.0115 7.1778 13.0701C7.2364 13.1287 7.31589 13.1616 7.39877 13.1616ZM7.71127 11.7598H8.67639V12.5366H7.71127V11.7598ZM11.0108 13.1616H12.6009C12.6838 13.1616 12.7633 13.1287 12.8219 13.0701C12.8805 13.0115 12.9134 12.932 12.9134 12.8491V11.4473C12.9134 11.3644 12.8805 11.2849 12.8219 11.2263C12.7633 11.1677 12.6838 11.1348 12.6009 11.1348H11.0108C10.928 11.1348 10.8485 11.1677 10.7899 11.2263C10.7313 11.2849 10.6983 11.3644 10.6983 11.4473V12.8491C10.6983 12.932 10.7313 13.0115 10.7899 13.0701C10.8485 13.1287 10.928 13.1616 11.0108 13.1616ZM11.3233 11.7598H12.2884V12.5366H11.3233V11.7598ZM3.7867 16.5943H5.37787C5.46075 16.5943 5.54024 16.5614 5.59884 16.5028C5.65745 16.4442 5.69037 16.3647 5.69037 16.2818V14.88C5.69037 14.7971 5.65745 14.7176 5.59884 14.659C5.54024 14.6004 5.46075 14.5675 5.37787 14.5675H3.7867C3.70382 14.5675 3.62433 14.6004 3.56573 14.659C3.50712 14.7176 3.4742 14.7971 3.4742 14.88V16.2818C3.4742 16.3647 3.50712 16.4442 3.56573 16.5028C3.62433 16.5614 3.70382 16.5943 3.7867 16.5943ZM4.0992 15.1925H5.06537V15.9693H4.0992V15.1925ZM7.39877 16.5943H8.98889C9.07177 16.5943 9.15125 16.5614 9.20986 16.5028C9.26846 16.4442 9.30139 16.3647 9.30139 16.2818V14.88C9.30139 14.7971 9.26846 14.7176 9.20986 14.659C9.15125 14.6004 9.07177 14.5675 8.98889 14.5675H7.39877C7.31589 14.5675 7.2364 14.6004 7.1778 14.659C7.11919 14.7176 7.08627 14.7971 7.08627 14.88V16.2818C7.08627 16.3647 7.11919 16.4442 7.1778 16.5028C7.2364 16.5614 7.31589 16.5943 7.39877 16.5943ZM7.71127 15.1925H8.67639V15.9693H7.71127V15.1925ZM3.7867 9.72895H5.37787C5.46075 9.72895 5.54024 9.69602 5.59884 9.63742C5.65745 9.57881 5.69037 9.49933 5.69037 9.41645V8.01348C5.69037 7.9306 5.65745 7.85111 5.59884 7.79251C5.54024 7.7339 5.46075 7.70098 5.37787 7.70098H3.7867C3.70382 7.70098 3.62433 7.7339 3.56573 7.79251C3.50712 7.85111 3.4742 7.9306 3.4742 8.01348V9.41645C3.4742 9.49933 3.50712 9.57881 3.56573 9.63742C3.62433 9.69602 3.70382 9.72895 3.7867 9.72895ZM4.0992 8.32598H5.06537V9.10395H4.0992V8.32598ZM16.213 11.1348H14.6229C14.54 11.1348 14.4605 11.1677 14.4019 11.2263C14.3433 11.2849 14.3104 11.3644 14.3104 11.4473V12.8491C14.3104 12.932 14.3433 13.0115 14.4019 13.0701C14.4605 13.1287 14.54 13.1616 14.6229 13.1616H16.213C16.2959 13.1616 16.3754 13.1287 16.434 13.0701C16.4926 13.0115 16.5255 12.932 16.5255 12.8491V11.4473C16.5255 11.3644 16.4926 11.2849 16.434 11.2263C16.3754 11.1677 16.2959 11.1348 16.213 11.1348ZM15.9005 12.5366H14.9354V11.7598H15.9005V12.5366ZM11.0108 16.5943H12.6009C12.6838 16.5943 12.7633 16.5614 12.8219 16.5028C12.8805 16.4442 12.9134 16.3647 12.9134 16.2818V14.88C12.9134 14.7971 12.8805 14.7176 12.8219 14.659C12.7633 14.6004 12.6838 14.5675 12.6009 14.5675H11.0108C10.928 14.5675 10.8485 14.6004 10.7899 14.659C10.7313 14.7176 10.6983 14.7971 10.6983 14.88V16.2818C10.6983 16.3647 10.7313 16.4442 10.7899 16.5028C10.8485 16.5614 10.928 16.5943 11.0108 16.5943ZM11.3233 15.1925H12.2884V15.9693H11.3233V15.1925ZM14.3585 8.91176C14.3291 8.88289 14.3058 8.84851 14.2898 8.81059C14.2737 8.77267 14.2653 8.73195 14.2651 8.69078C14.2649 8.64961 14.2728 8.6088 14.2883 8.57069C14.3039 8.53258 14.3269 8.49793 14.3559 8.46871C14.3849 8.4395 14.4194 8.41631 14.4574 8.40048C14.4954 8.38464 14.5361 8.37647 14.5773 8.37643C14.6185 8.3764 14.6593 8.38449 14.6973 8.40026C14.7353 8.41603 14.7699 8.43916 14.7989 8.46832L15.201 8.86766L16.0188 7.90129C16.0724 7.83802 16.1489 7.79861 16.2315 7.79173C16.3141 7.78485 16.396 7.81107 16.4593 7.86461C16.5225 7.91815 16.562 7.99463 16.5688 8.07723C16.5757 8.15982 16.5495 8.24177 16.496 8.30504L15.4595 9.52973C15.4316 9.56268 15.3972 9.58951 15.3584 9.6085C15.3197 9.62749 15.2774 9.63824 15.2342 9.64008C15.2297 9.64008 15.2252 9.64035 15.2208 9.64035C15.1382 9.64036 15.0591 9.60772 15.0005 9.54957L14.3585 8.91176Z" stroke="#ED3237" stroke-width="0.02" mask="url(#path-1-outside-1_131_940)"/>
</g>
</g>
</g>
<defs>
<clipPath id="clip0_131_940">
<rect width="20" height="20" fill="white"/>
</clipPath>
</defs>
</svg>
