<svg width="25" height="25" viewBox="0 0 25 25" fill="none" xmlns="http://www.w3.org/2000/svg">
<rect width="25" height="25" rx="5" fill="#EB4438"/>
<g clip-path="url(#clip0_42_984)">
<path d="M17.4354 14.5309C17.0873 14.1685 16.6675 13.9748 16.2226 13.9748C15.7813 13.9748 15.3579 14.1649 14.9955 14.5273L13.8617 15.6575C13.7685 15.6073 13.6752 15.5606 13.5855 15.514C13.4563 15.4494 13.3343 15.3884 13.2303 15.3238C12.1682 14.6493 11.2031 13.7702 10.2774 12.6329C9.82887 12.066 9.52748 11.5888 9.30861 11.1044C9.60283 10.8353 9.87551 10.5554 10.141 10.2863C10.2415 10.1859 10.3419 10.0818 10.4424 9.98135C11.1959 9.22788 11.1959 8.25195 10.4424 7.49848L9.46289 6.51896C9.35167 6.40773 9.23685 6.29292 9.12921 6.1781C8.91394 5.95565 8.68789 5.72602 8.45468 5.51074C8.10664 5.1663 7.69044 4.98331 7.25271 4.98331C6.81498 4.98331 6.3916 5.1663 6.0328 5.51074L6.02562 5.51792L4.80571 6.74859C4.34645 7.20785 4.08453 7.76757 4.02713 8.417C3.94101 9.46468 4.24958 10.4406 4.48639 11.0793C5.06764 12.6472 5.93592 14.1003 7.23118 15.6575C8.80271 17.534 10.6936 19.0158 12.8535 20.0599C13.6788 20.451 14.7803 20.9139 16.0109 20.9928C16.0863 20.9964 16.1652 21 16.237 21C17.0658 21 17.7619 20.7022 18.3072 20.1102C18.3108 20.103 18.318 20.0994 18.3216 20.0922C18.5082 19.8662 18.7234 19.6617 18.9495 19.4428C19.1038 19.2957 19.2616 19.1414 19.4159 18.98C19.7711 18.6104 19.9577 18.1799 19.9577 17.7385C19.9577 17.2936 19.7675 16.8667 19.4051 16.5079L17.4354 14.5309ZM18.7198 18.309C18.7163 18.3126 18.7163 18.309 18.7198 18.309C18.5799 18.4597 18.4364 18.5961 18.2821 18.7467C18.0489 18.9692 17.8121 19.2024 17.5896 19.4643C17.2273 19.8518 16.8003 20.0348 16.2406 20.0348C16.1867 20.0348 16.1293 20.0348 16.0755 20.0312C15.0099 19.9631 14.0196 19.5469 13.2769 19.1917C11.2461 18.2086 9.46289 16.8128 7.98106 15.044C6.75757 13.5693 5.93951 12.2059 5.39773 10.742C5.06405 9.84859 4.94206 9.15253 4.99588 8.49593C5.03176 8.07614 5.19321 7.72811 5.49102 7.4303L6.71451 6.20681C6.89032 6.04176 7.0769 5.95206 7.25988 5.95206C7.48593 5.95206 7.66891 6.0884 7.78373 6.20322L7.79449 6.21398C8.01336 6.4185 8.22146 6.63019 8.44032 6.85623C8.55155 6.97104 8.66637 7.08586 8.78118 7.20426L9.7607 8.18378C10.141 8.5641 10.141 8.91572 9.7607 9.29605C9.65664 9.4001 9.55618 9.50415 9.45213 9.60461C9.15074 9.91318 8.8637 10.2002 8.55155 10.4801C8.54438 10.4873 8.5372 10.4908 8.53361 10.498C8.22505 10.8066 8.28245 11.108 8.34704 11.3125L8.3578 11.3448C8.61255 11.9619 8.97134 12.5432 9.51671 13.2356L9.5203 13.2392C10.5106 14.4591 11.5547 15.4099 12.7064 16.1383C12.8535 16.2316 13.0042 16.3069 13.1477 16.3787C13.2769 16.4433 13.3989 16.5043 13.5029 16.5689C13.5173 16.576 13.5316 16.5868 13.546 16.594C13.668 16.655 13.7828 16.6837 13.9012 16.6837C14.199 16.6837 14.3856 16.4971 14.4466 16.4361L15.6737 15.209C15.7957 15.087 15.9894 14.9399 16.2154 14.9399C16.4379 14.9399 16.6209 15.0798 16.7321 15.2018L16.7393 15.209L18.7163 17.186C19.0858 17.552 19.0858 17.9287 18.7198 18.309ZM13.1872 8.04385C14.1273 8.20172 14.9812 8.64662 15.6629 9.32834C16.3446 10.0101 16.7859 10.864 16.9474 11.804C16.9869 12.0408 17.1914 12.2059 17.4246 12.2059C17.4533 12.2059 17.4784 12.2023 17.5071 12.1987C17.7726 12.1557 17.9484 11.9045 17.9054 11.639C17.7116 10.5016 17.1734 9.46468 16.3518 8.64304C15.5301 7.82139 14.4932 7.2832 13.3558 7.08945C13.0903 7.04639 12.8428 7.2222 12.7961 7.48412C12.7495 7.74605 12.9217 8.00079 13.1872 8.04385ZM20.9803 11.4991C20.6609 9.62614 19.7783 7.92186 18.422 6.5656C17.0658 5.20935 15.3615 4.32671 13.4886 4.00738C13.2267 3.96074 12.9791 4.14014 12.9325 4.40206C12.8894 4.66757 13.0652 4.91514 13.3307 4.96178C15.0027 5.24523 16.5276 6.03817 17.7403 7.24732C18.9531 8.46005 19.7424 9.98494 20.0259 11.6569C20.0653 11.8937 20.2698 12.0588 20.5031 12.0588C20.5318 12.0588 20.5569 12.0552 20.5856 12.0516C20.8475 12.0121 21.0269 11.761 20.9803 11.4991Z" fill="white"/>
</g>
<defs>
<clipPath id="clip0_42_984">
<rect width="17" height="17" fill="white" transform="translate(4 4)"/>
</clipPath>
</defs>
</svg>
