<svg width="30" height="30" viewBox="0 0 30 30" fill="none" xmlns="http://www.w3.org/2000/svg">
<g clip-path="url(#clip0_73_4018)">
<path d="M17.7511 8.09801V10.156H16.5331C16.0851 10.156 15.7817 10.2493 15.6231 10.436C15.4644 10.6227 15.3851 10.9027 15.3851 11.276V12.76H17.6811L17.3731 15.07H15.3851V21.006H12.9911V15.07H11.0031V12.76H12.9911V11.052C12.9911 10.0813 13.2617 9.33001 13.8031 8.79801C14.3444 8.26601 15.0677 8.00001 15.9731 8.00001C16.7384 8.00001 17.3311 8.03268 17.7511 8.09801Z" fill="white"/>
</g>
<rect x="0.5" y="0.5" width="29" height="29" rx="14.5" stroke="white"/>
<defs>
<clipPath id="clip0_73_4018">
<rect width="14" height="14" fill="white" transform="matrix(1 0 0 -1 8 22)"/>
</clipPath>
</defs>
</svg>
