<svg width="58" height="58" viewBox="0 0 58 58" fill="none" xmlns="http://www.w3.org/2000/svg">
<g id="Frame">
<g id="Group">
<path id="Vector" d="M27.2353 17.2957V1.41602C27.2353 1.2658 27.295 1.12173 27.4012 1.01551C27.5074 0.909284 27.6515 0.849609 27.8017 0.849609H31.6533C31.8035 0.849609 31.9475 0.909284 32.0538 1.01551C32.16 1.12173 32.2197 1.2658 32.2197 1.41602V19.6764M18.6259 13.1834V1.41602C18.6259 1.2658 18.6856 1.12173 18.7918 1.01551C18.898 0.909284 19.0421 0.849609 19.1923 0.849609H23.0439C23.1941 0.849609 23.3382 0.909284 23.4444 1.01551C23.5506 1.12173 23.6103 1.2658 23.6103 1.41602V15.5642M4.06927 14.3112V8.027C4.06927 7.19381 4.93848 6.64564 5.69033 7.00486L35.5186 21.2522C35.7122 21.3447 35.8755 21.4902 35.9896 21.6718C36.1037 21.8535 36.1639 22.0637 36.1632 22.2782L36.1513 25.2448M29.4653 40.7435H5.20209C4.57644 40.7435 4.06927 40.2364 4.06927 39.6107V17.9362M4.57904 23.7945H19.6454M4.57904 28.9568H19.6454M4.57904 34.1192H19.6454M23.6103 9.40234H18.6259M18.6259 5.32422H23.6103M32.2197 9.40234H27.2353M27.2353 5.32422H32.2197M44.6209 57.1504H47.4717C48.3963 57.1504 49.1458 56.4009 49.1458 55.4763C49.1458 54.5517 48.3963 53.8023 47.4717 53.8023H28.8062C27.8816 53.8023 27.1321 54.5517 27.1321 55.4763C27.1321 56.4009 27.8816 57.1504 28.8062 57.1504H41.2364M28.8062 28.593H47.4717C48.3963 28.593 49.1458 27.8435 49.1458 26.9189C49.1458 25.9943 48.3963 25.2448 47.4717 25.2448H28.8062C27.8816 25.2448 27.1321 25.9943 27.1321 26.9189C27.1321 27.8434 27.8816 28.593 28.8062 28.593Z" stroke="#ED3237" stroke-width="1.52344" stroke-miterlimit="10" stroke-linecap="round" stroke-linejoin="round"/>
<path id="Vector_2" d="M46.8126 53.8021H29.4654L29.4654 28.5929L46.8126 28.5929V53.8021Z" stroke="#ED3237" stroke-width="1.52344" stroke-miterlimit="10" stroke-linecap="round" stroke-linejoin="round"/>
<path id="Vector_3" d="M46.8125 31.8494H29.4653M29.4653 34.9655H46.8125M46.8125 38.0816H29.4653M46.8125 41.1977H29.4653M29.4653 44.3138H46.8125M46.8125 47.43H29.4653M29.4653 50.5461H48.385C49.9164 50.5461 51.1579 49.3046 51.1579 47.7732V44.3514C51.1579 42.82 52.3994 41.5785 53.9308 41.5785" stroke="#ED3237" stroke-width="1.52344" stroke-miterlimit="10" stroke-linecap="round" stroke-linejoin="round"/>
</g>
</g>
</svg>
