<svg width="99" height="90" viewBox="0 0 99 90" fill="none" xmlns="http://www.w3.org/2000/svg">
<mask id="path-1-inside-1_34_316" fill="white">
<path d="M0 0.423584H99V89.3328H0V0.423584Z"/>
</mask>
<path d="M0 0.423584H99V89.3328H0V0.423584Z" fill="white"/>
<path d="M3 89.3328V0.423584H-3V89.3328H3Z" fill="#ED3237" mask="url(#path-1-inside-1_34_316)"/>
<g clip-path="url(#clip0_34_316)">
<path d="M66 15.4082C59.7366 15.4082 54.5548 20.2665 54.0423 26.397H22V75.347H66.0001C72.6001 75.347 78.0001 69.9525 78.0001 63.3592V27.396C78 20.8027 72.6 15.4082 66 15.4082ZM24 35.9447L36.2837 28.395H43.3025L24 39.6436V35.9447ZM54 48.0929L50.352 47.182L54 45.0997V48.0929ZM54 42.7986L47.5478 46.4817L42.2905 45.1687L54.0001 38.1479V42.7986H54ZM54 35.8179L39.5467 44.4837L34.275 43.1672L54 31.168V35.8179ZM52.3892 49.75L46.5728 53.2033L24 46.6264V42.6607L52.3892 49.75ZM31.161 62.354L24 59.6713V54.7252L37.1139 58.8194L31.161 62.354ZM24 52.6319V48.7076L44.2215 54.5995L39.2771 57.5352L39.3152 57.4135L24 52.6319ZM24 61.8051L28.9576 63.6623L24 66.6059V61.8051ZM24 68.9299L54 51.1177V55.8003L24 73.186V68.9299ZM54 58.1101V62.7818L35.7319 73.349H27.7045L54 58.1101ZM54 28.8288L31.5487 42.4864L25.6282 41.0079L47.2719 28.3949H54.0001V28.8288H54ZM32.467 28.3949L24 33.5988V28.3949H32.467ZM39.7232 73.349L54.117 65.023C54.6041 68.4875 56.5875 71.4889 59.3886 73.349H39.7232ZM66 73.349C60.5 73.349 56 68.8536 56 63.3592C56 57.8649 60.5 53.3695 66 53.3695C71.4999 53.3695 75.9999 57.8649 75.9999 63.3592C75.9999 68.8536 71.5 73.349 66 73.349ZM66 51.3715C61.8383 51.3715 58.1544 53.5167 56 56.7546V27.396C56 21.9016 60.5 17.4062 66 17.4062C71.4999 17.4062 75.9999 21.9016 75.9999 27.396V56.7546C73.8455 53.5167 70.1616 51.3715 66 51.3715Z" fill="#333333"/>
<path d="M66 56.3665C62.1 56.3665 59 59.4633 59 63.3593C59 67.2553 62.1 70.3521 66 70.3521C69.9 70.3521 72.9999 67.2553 72.9999 63.3593C72.9999 59.4633 69.9 56.3665 66 56.3665ZM66 68.3542C63.2 68.3542 60.9999 66.1565 60.9999 63.3593C60.9999 60.5622 63.1999 58.3643 66 58.3643C68.8 58.3643 71 60.5622 71 63.3593C71 66.1564 68.8 68.3542 66 68.3542Z" fill="#333333"/>
</g>
<defs>
<clipPath id="clip0_34_316">
<rect width="60" height="59.9388" fill="white" transform="translate(20 15.4082)"/>
</clipPath>
</defs>
</svg>
