<svg width="99" height="90" viewBox="0 0 99 90" fill="none" xmlns="http://www.w3.org/2000/svg">
<mask id="path-1-inside-1_34_297" fill="white">
<path d="M0 0.423584H99V89.3328H0V0.423584Z"/>
</mask>
<path d="M0 0.423584H99V89.3328H0V0.423584Z" fill="white"/>
<path d="M3 89.3328V0.423584H-3V89.3328H3Z" fill="#ED3237" mask="url(#path-1-inside-1_34_297)"/>
<g clip-path="url(#clip0_34_297)">
<path d="M78.1784 40.0697C77.9479 36.1847 76.3236 32.5612 73.5499 29.7885C71.069 27.3085 67.9654 25.822 64.7377 25.3265C64.1043 23.7634 63.2248 22.3114 62.1325 21.0256C62.2891 19.5254 63.5614 18.3519 65.1029 18.3519V16.5947C63.1181 16.5947 61.4151 17.8198 60.7081 19.5529C60.2253 19.1133 59.7162 18.7034 59.1836 18.3255C56.489 16.417 53.3134 15.4082 50 15.4082C43.5372 15.4082 37.6872 19.3678 35.2653 25.318C32.2058 25.7888 29.4315 27.1352 27.2061 29.0913C26.498 27.2487 24.7101 25.9368 22.6205 25.9368V27.694C24.2551 27.694 25.6029 28.9437 25.7585 30.5375C23.4891 33.1143 22.04 36.4286 21.8221 40.0696H20V48.854H21.915V61.2555C21.915 69.0255 28.2386 75.347 36.0114 75.347H55.2737V73.5898H36.0114C29.2079 73.5898 23.6728 68.0568 23.6728 61.2556V48.8542H76.3944V61.2556C76.3944 68.0567 70.8593 73.5898 64.0557 73.5898H60.5472V75.347H64.0557C71.8285 75.347 78.1523 69.0255 78.1523 61.2556V48.8542H80V40.0697H78.1784ZM76.4166 40.0697H71.4284L71.4262 40.0158C73.0298 39.1801 74.5144 38.1341 75.8407 36.9056C76.1525 37.935 76.3457 38.9966 76.4166 40.0697ZM74.24 33.4328C74.5858 33.9738 74.8939 34.538 75.1622 35.1213C73.9852 36.2951 72.6725 37.2971 71.2477 38.1117C71.1502 37.4016 71.0179 36.6967 70.8511 35.9996C72.0758 35.2873 73.2113 34.4257 74.24 33.4328ZM73.1923 32.002C72.3345 32.8558 71.3823 33.6093 70.3539 34.2481C70.1589 33.6584 69.9386 33.0775 69.6936 32.5068C70.5094 31.9831 71.2692 31.377 71.9611 30.6982C72.0777 30.8071 72.9137 31.6671 73.1923 32.002ZM70.5964 29.5732C70.08 30.065 69.5222 30.5115 68.9291 30.9076C68.3162 29.7506 67.6003 28.6509 66.7902 27.622C68.1513 28.0742 69.435 28.7322 70.5964 29.5732ZM69.6691 40.0697H66.917C66.7111 35.199 64.9135 30.6119 61.7734 26.9074C62.4787 26.8811 63.1851 26.9072 63.8866 26.9854C67.3823 30.5257 69.4145 35.1361 69.6691 40.0697ZM60.2547 21.579C61.2605 22.6329 62.0965 23.8363 62.7329 25.1463C61.6421 25.1173 60.5512 25.1998 59.4772 25.3925C59.8499 24.1471 60.1102 22.8708 60.2547 21.579ZM59.6306 27.1498C62.9959 30.6795 64.935 35.2202 65.1581 40.0697H62.6519C62.459 35.4637 60.7373 31.1293 57.7279 27.6529C58.3497 27.4413 58.9854 27.2731 59.6306 27.1498ZM42.2394 38.3835C44.8682 36.8632 47.8207 36.0153 50.879 35.9084C51.3731 37.1254 51.6964 38.7558 51.8061 40.0697H44.5145C44.5145 40.0697 43.28 39.4237 42.2394 38.3835ZM48.9658 32.4968C49.3743 33.0348 49.7439 33.6011 50.0717 34.1916C46.8291 34.4226 43.7123 35.4176 40.9427 37.1084C40.4015 36.5078 39.9083 35.8657 39.4677 35.188C42.3536 33.516 45.6096 32.5928 48.9658 32.4968ZM38.5911 33.6633C38.2113 32.9066 37.8916 32.1212 37.635 31.3145C40.1405 30.1239 42.9014 29.4586 45.6945 29.3752C46.3272 29.8104 46.9236 30.2959 47.4779 30.8271C44.3411 31.1223 41.315 32.0863 38.5911 33.6633ZM51.2027 32.2709C51.7723 31.5484 52.4112 30.8832 53.1102 30.2847C54.5388 31.8125 55.6208 33.5673 56.3195 35.4597C54.4346 34.7369 52.6946 33.6539 51.2027 32.2709ZM56.9172 37.5193C57.096 38.3589 57.2028 39.2121 57.2364 40.0698H53.5674C53.4766 38.5329 53.1613 37.0174 52.6316 35.5715C53.9661 36.41 55.4076 37.0651 56.9172 37.5193ZM54.5216 29.2214C55.0029 28.9041 55.4996 28.6197 56.0084 28.3673C58.9807 31.5946 60.6924 35.696 60.893 40.0697H58.9964C58.8531 36.0388 57.2866 32.2405 54.5216 29.2214ZM55.1957 18.1634C55.1243 19.5533 54.9171 20.9329 54.5772 22.2825L56.282 22.7113C56.5901 21.4857 56.7976 20.237 56.9025 18.9777C57.4981 19.3114 58.069 19.6873 58.6108 20.1025C58.5139 22.0897 58.1284 24.032 57.4629 25.8901C56.5109 26.1927 55.5898 26.5849 54.712 27.0614C55.1056 26.2412 55.4498 25.3983 55.7427 24.5372L54.0784 23.9714C53.1581 26.7131 51.7531 28.9848 49.9966 30.9673C49.549 30.4218 49.0659 29.9064 48.5504 29.4245C51.587 26.4558 53.3387 22.3194 53.5484 17.6244C54.1081 17.7701 54.6582 17.9501 55.1957 18.1634ZM50 17.1654C50.6076 17.1654 51.2088 17.2071 51.8015 17.2837C51.72 19.8875 51.1243 22.3013 50.0659 24.4005C49.1053 22.2786 48.4464 19.5718 48.3461 17.2631C48.8908 17.1986 49.4428 17.1654 50 17.1654ZM46.6029 17.5844C46.7736 20.4541 47.7041 23.8303 48.9959 26.194C48.6511 26.6864 48.275 27.156 47.8698 27.6001C46.0264 24.7716 44.9973 21.5179 44.8774 18.134C45.4402 17.9142 46.0165 17.7306 46.6029 17.5844ZM43.1604 18.9398C43.3698 21.8638 44.2011 24.6855 45.6044 27.2421C44.6213 26.6764 43.58 26.218 42.4987 25.8748C41.8671 23.9967 41.5204 22.0388 41.4636 20.0414C42.0023 19.6345 42.5694 19.2664 43.1604 18.9398ZM39.7938 21.525C39.9156 22.8295 40.1549 24.1204 40.509 25.3819C39.4406 25.1909 38.3556 25.1093 37.2706 25.1383C37.9168 23.8092 38.7683 22.5898 39.7938 21.525ZM37.6948 26.8899C39.5271 26.8899 41.2789 27.24 42.8873 27.8768C40.9171 28.1859 38.9943 28.7613 37.1872 29.5854C37.0083 28.7052 36.8985 27.8125 36.8586 26.9153C37.1353 26.899 37.4139 26.8899 37.6948 26.8899ZM31.5848 28.2784C31.6899 29.9439 32 31.59 32.5082 33.1797L34.1825 32.6441C33.6597 31.0114 33.3678 29.3127 33.3111 27.586C33.8997 27.3936 34.5005 27.2405 35.1095 27.1275C35.2597 29.9491 36.0324 32.6832 37.3702 35.0904C38.4384 37.0123 39.8519 38.7013 41.5202 40.0698H38.7035C37.0412 38.4 35.7291 36.4601 34.8003 34.297L33.1849 34.99C33.9731 36.829 35.0303 38.541 36.3218 40.0698H33.2C31.0491 36.8772 29.8761 33.1774 29.79 29.3094C30.3622 28.9224 30.9621 28.5778 31.5848 28.2784ZM28.0998 30.6507C28.3709 33.9962 29.3969 37.1998 31.1171 40.0697H28.2079C27.1357 37.6429 26.5655 35.0631 26.5091 32.3857C26.9906 31.7646 27.5226 31.1843 28.0998 30.6507ZM24.9436 34.9125C25.1813 36.6811 25.6377 38.4135 26.3022 40.0698H23.5835C23.7028 38.2797 24.1645 36.529 24.9436 34.9125ZM78.2421 47.0968H78.1523V47.0805H21.915V47.0968H21.7579V41.8269H78.2422V47.0968H78.2421Z" fill="black"/>
<path d="M57.0316 73.5899H58.7895V75.3471H57.0316V73.5899ZM26.5402 55.2705L30.0031 51.8112L31.2465 53.0532L27.7836 56.5125L26.5402 55.2705ZM31.8146 55.2723L35.2775 51.813L36.5207 53.0551L33.0579 56.5142L31.8146 55.2723ZM37.0889 55.274L40.5518 51.8148L41.7949 53.0569L38.3321 56.5161L37.0889 55.274ZM42.3632 55.2759L45.8261 51.8167L47.0694 53.0588L43.6065 56.5179L42.3632 55.2759ZM47.6375 55.2777L51.1004 51.8183L52.3438 53.0604L48.8809 56.5196L47.6375 55.2777ZM52.9136 55.2428L56.3765 51.7835L57.6198 53.0256L54.1569 56.4847L52.9136 55.2428ZM58.1854 55.2418L61.6482 51.7827L62.8914 53.0247L59.4286 56.484L58.1854 55.2418ZM63.4571 55.241L66.92 51.7818L68.1631 53.0239L64.7004 56.4831L63.4571 55.241ZM68.7288 55.2403L72.1916 51.781L73.4348 53.023L69.9719 56.4824L68.7288 55.2403ZM31.829 69.2988L35.2919 65.8394L36.535 67.0815L33.0723 70.5409L31.829 69.2988ZM37.1007 69.2979L40.5635 65.8387L41.8067 67.0808L38.3439 70.5399L37.1007 69.2979ZM42.3724 69.297L45.8353 65.8379L47.0784 67.0799L43.6156 70.5391L42.3724 69.297ZM47.6442 69.2963L51.107 65.8371L52.3502 67.0792L48.8873 70.5384L47.6442 69.2963ZM52.9071 69.339L56.3698 65.8797L57.6132 67.1218L54.1503 70.5811L52.9071 69.339ZM58.1813 69.3408L61.6442 65.8815L62.8875 67.1236L59.4246 70.5829L58.1813 69.3408ZM63.4558 69.3427L66.9186 65.8834L68.162 67.1255L64.6991 70.5846L63.4558 69.3427ZM68.7327 60.1314L69.976 58.8893L73.4387 62.3487L72.1953 63.5906L68.7327 60.1314ZM63.4582 60.1294L64.7015 58.8874L68.1643 62.3467L66.9209 63.5888L63.4582 60.1294ZM58.1837 60.1275L59.427 58.8855L62.8897 62.3448L61.6464 63.5868L58.1837 60.1275ZM52.9093 60.1256L54.1525 58.8835L57.6153 62.3428L56.372 63.5849L52.9093 60.1256ZM47.6347 60.1236L48.878 58.8816L52.3408 62.3409L51.0975 63.5829L47.6347 60.1236ZM42.3602 60.1217L43.6034 58.8796L47.0663 62.339L45.823 63.5809L42.3602 60.1217ZM37.0857 60.1197L38.3291 58.8777L41.7918 62.3371L40.5485 63.5789L37.0857 60.1197ZM31.8112 60.1177L33.0546 58.8756L36.5172 62.335L35.274 63.577L31.8112 60.1177ZM26.5551 60.0887L27.7984 58.8466L31.2611 62.3059L30.0178 63.548L26.5551 60.0887ZM23.6354 43.5837H25.3933V45.3409H23.6354V43.5837ZM27.1475 43.5837H28.9054V45.3409H27.1475V43.5837Z" fill="black"/>
</g>
<defs>
<clipPath id="clip0_34_297">
<rect width="60" height="59.9388" fill="white" transform="translate(20 15.4082)"/>
</clipPath>
</defs>
</svg>
