<svg width="107" height="97" viewBox="0 0 107 97" fill="none" xmlns="http://www.w3.org/2000/svg">
<g filter="url(#filter0_d_66_3289)">
<mask id="path-1-inside-1_66_3289" fill="white">
<path d="M4 4H103V93H4V4Z"/>
</mask>
<path d="M4 4H103V93H4V4Z" fill="white"/>
<path d="M7 93V4H1V93H7Z" fill="#ED3237" mask="url(#path-1-inside-1_66_3289)"/>
</g>
<path d="M81.5292 29.4718C80.0959 27.5644 78.1668 26.5143 76.0975 26.5143H41.7703C39.701 26.5143 37.7719 27.5644 36.3385 29.4718C34.9608 31.3045 34.2022 33.7279 34.2022 36.2954C34.2022 37.6602 34.4199 38.998 34.837 40.2306H31.7588C29.6896 40.2306 27.7605 41.2808 26.3271 43.188C24.9493 45.0208 24.1907 47.4443 24.1907 50.0117C24.1907 52.579 24.9493 55.0025 26.327 56.8353C26.7098 57.3447 27.1291 57.7909 27.5759 58.1744V68.9431C27.5759 70.4481 28.8003 71.6726 30.3052 71.6726H64.2274C65.7324 71.6726 66.9569 70.4482 66.9569 68.9431V68.3342C66.9569 67.8531 66.5671 67.4633 66.0861 67.4633C65.6051 67.4633 65.2153 67.8531 65.2153 68.3342V68.9431C65.2153 69.4878 64.7722 69.9308 64.2275 69.9308H30.3054C29.7609 69.9308 29.3178 69.4878 29.3178 68.9431V59.277C30.0923 59.6145 30.9134 59.7927 31.759 59.7927H65.2154V64.6279C65.2154 65.1089 65.6052 65.4987 66.0862 65.4987C66.5672 65.4987 66.957 65.1089 66.957 64.6279V59.7274C68.2514 59.5391 69.4668 58.9317 70.5118 57.9562H74.239C75.7439 57.9562 76.9684 56.7317 76.9684 55.2268V46.011C78.7038 45.7586 80.2993 44.7554 81.5293 43.119C82.9069 41.2862 83.6655 38.8626 83.6655 36.2953C83.6656 33.728 82.9069 31.3045 81.5292 29.4718ZM66.0861 58.051H31.7588C28.5462 58.051 25.9326 54.4447 25.9326 50.0117C25.9326 45.5787 28.5462 41.9723 31.7588 41.9723H40.0746C40.3055 41.9723 40.5271 41.8806 40.6904 41.7173C40.8537 41.5539 40.9454 41.3324 40.9454 41.1015C40.9454 40.8705 40.8537 40.649 40.6904 40.4857C40.5271 40.3224 40.3055 40.2306 40.0746 40.2306H36.6946C36.2023 39.0317 35.9437 37.6828 35.9437 36.2954C35.9437 31.8624 38.5573 28.256 41.77 28.256H71.7732C71.3792 28.6111 71.0077 29.0161 70.6654 29.4718C69.2878 31.3045 68.5291 33.7281 68.5291 36.2954C68.5291 38.1016 68.9061 39.8354 69.6083 41.3436C68.5377 40.6174 67.3379 40.2306 66.086 40.2306H43.7323C43.5013 40.2306 43.2798 40.3224 43.1165 40.4857C42.9532 40.649 42.8615 40.8705 42.8615 41.1015C42.8615 41.3324 42.9532 41.5539 43.1165 41.7173C43.2798 41.8806 43.5013 41.9723 43.7323 41.9723H61.7619C61.368 42.3274 60.9966 42.7325 60.6542 43.1879C59.2766 45.0207 58.5179 47.4442 58.5179 50.0116C58.5179 52.1161 59.0238 54.1196 59.9808 55.8057C60.0372 55.9051 60.1127 55.9925 60.2029 56.0628C60.2931 56.1331 60.3963 56.1849 60.5066 56.2153C60.6168 56.2457 60.732 56.2541 60.8455 56.24C60.959 56.2259 61.0686 56.1896 61.168 56.1331C61.2675 56.0767 61.3548 56.0012 61.4251 55.911C61.4954 55.8208 61.5472 55.7176 61.5777 55.6073C61.6081 55.4971 61.6165 55.3819 61.6024 55.2684C61.5883 55.1549 61.552 55.0453 61.4955 54.9459C60.6871 53.5214 60.2598 51.8152 60.2598 50.0116C60.2598 45.5786 62.8736 41.9722 66.0862 41.9722C69.2988 41.9722 71.9125 45.5786 71.9125 50.0116C71.9125 54.4446 69.2988 58.051 66.0861 58.051ZM74.239 56.2146H71.9447C73.0504 54.4716 73.6543 52.2993 73.6543 50.0117C73.6543 48.2055 73.2773 46.4715 72.5751 44.9634C73.3947 45.5193 74.2899 45.875 75.2267 46.0111V55.2269C75.2267 55.7715 74.7836 56.2146 74.239 56.2146ZM76.0975 44.3347C72.8849 44.3347 70.2711 40.7284 70.2711 36.2954C70.2711 31.8624 72.8849 28.256 76.0975 28.256C79.3102 28.256 81.9238 31.8624 81.9238 36.2954C81.9238 40.7284 79.3102 44.3347 76.0975 44.3347Z" fill="#ED3237"/>
<path d="M76.0976 30.4076C73.5381 30.4076 71.4558 33.0489 71.4558 36.2955C71.4558 39.542 73.5382 42.1832 76.0976 42.1832C78.6571 42.1832 80.7394 39.542 80.7394 36.2955C80.7393 33.0489 78.6571 30.4076 76.0976 30.4076ZM76.0976 40.4415C74.5256 40.4415 73.1975 38.5428 73.1975 36.2954C73.1975 34.0479 74.5256 32.1493 76.0976 32.1493C77.6696 32.1493 78.9977 34.0479 78.9977 36.2954C78.9976 38.5428 77.6695 40.4415 76.0976 40.4415Z" fill="#ED3237"/>
<path d="M76.0975 34.9362C75.5333 34.9362 75.0758 35.5447 75.0758 36.2955C75.0758 37.0462 75.5333 37.6549 76.0975 37.6549C76.6618 37.6549 77.1193 37.0463 77.1193 36.2955C77.1192 35.5447 76.6617 34.9362 76.0975 34.9362ZM66.0861 44.124C63.5266 44.124 61.4443 46.7652 61.4443 50.0117C61.4443 53.2582 63.5267 55.8996 66.0861 55.8996C68.6456 55.8996 70.7279 53.2583 70.7279 50.0117C70.728 46.7652 68.6456 44.124 66.0861 44.124ZM66.0861 54.1579C64.5141 54.1579 63.186 52.2593 63.186 50.0118C63.186 47.7644 64.5141 45.8657 66.0861 45.8657C67.6581 45.8657 68.9862 47.7644 68.9862 50.0118C68.9862 52.2593 67.6581 54.1579 66.0861 54.1579Z" fill="#ED3237"/>
<path d="M66.0862 48.6525C65.5219 48.6525 65.0645 49.261 65.0645 50.0118C65.0645 50.7627 65.5219 51.3712 66.0862 51.3712C66.6505 51.3712 67.1079 50.7627 67.1079 50.0118C67.1079 49.261 66.6506 48.6525 66.0862 48.6525Z" fill="#ED3237"/>
<defs>
<filter id="filter0_d_66_3289" x="0" y="0" width="107" height="97" filterUnits="userSpaceOnUse" color-interpolation-filters="sRGB">
<feFlood flood-opacity="0" result="BackgroundImageFix"/>
<feColorMatrix in="SourceAlpha" type="matrix" values="0 0 0 0 0 0 0 0 0 0 0 0 0 0 0 0 0 0 127 0" result="hardAlpha"/>
<feOffset/>
<feGaussianBlur stdDeviation="2"/>
<feComposite in2="hardAlpha" operator="out"/>
<feColorMatrix type="matrix" values="0 0 0 0 0 0 0 0 0 0 0 0 0 0 0 0 0 0 0.15 0"/>
<feBlend mode="normal" in2="BackgroundImageFix" result="effect1_dropShadow_66_3289"/>
<feBlend mode="normal" in="SourceGraphic" in2="effect1_dropShadow_66_3289" result="shape"/>
</filter>
</defs>
</svg>
