<svg width="99" height="90" viewBox="0 0 99 90" fill="none" xmlns="http://www.w3.org/2000/svg">
<mask id="path-1-inside-1_34_259" fill="white">
<path d="M0 0.729492H99V89.6387H0V0.729492Z"/>
</mask>
<path d="M0 0.729492H99V89.6387H0V0.729492Z" fill="white"/>
<path d="M3 89.6387V0.729492H-3V89.6387H3Z" fill="#ED3237" mask="url(#path-1-inside-1_34_259)"/>
<g clip-path="url(#clip0_34_259)">
<path d="M68.0419 30.4213C67.784 30.0993 67.3328 29.9705 66.8815 30.1637L65.2055 30.8077L60.0484 19.4092C59.855 19.0228 59.5326 18.8296 59.1459 18.8296H42.3852C42.0629 18.8296 41.805 18.9584 41.6116 19.216L32.1354 30.5501C31.942 30.7433 31.8775 31.0653 31.942 31.3229C32.0064 31.5805 32.1354 31.8381 32.3288 32.0313L41.805 39.0507C42.2562 39.3727 42.9009 39.3083 43.2232 38.8575L49.4118 30.4857L52.3771 35.7664L50.5077 36.7323C50.1209 36.9255 49.9275 37.3119 49.9919 37.6983C50.0564 38.0847 50.3143 38.4711 50.7655 38.5355L61.3376 41.1114H61.5955C61.9178 41.1114 62.2401 40.9182 62.4335 40.6606L68.1064 31.5805C68.3642 31.1941 68.2998 30.7433 68.0419 30.4213ZM42.1918 36.7967L34.3916 31.0009L42.9009 20.8259H44.2546L48.4448 28.6181L42.1918 36.7967ZM61.0153 39.0507L53.8598 37.3119L54.2466 37.1187C54.5044 36.9899 54.6978 36.7967 54.7623 36.5391C54.8268 36.2815 54.8268 36.024 54.6978 35.7664L50.4432 28.1674L46.4464 20.7615H58.4367L63.7228 32.482C63.9162 32.8684 64.3675 33.126 64.7542 33.0616L61.0153 39.0507ZM45.7373 56.4382L35.2941 55.9874L38.0016 50.578L39.8066 51.6084C40.1934 51.8016 40.6446 51.8016 40.967 51.4796C41.2893 51.222 41.4182 50.7712 41.2248 50.3848L37.4214 40.2098C37.2925 39.8235 36.9057 39.5659 36.4545 39.5659L25.689 39.9523C25.2377 39.9523 24.9154 40.2742 24.7865 40.6606C24.6575 41.047 24.8509 41.4978 25.1732 41.7554L26.6559 42.7858L20.145 53.4759C19.9517 53.7979 19.9517 54.2487 20.145 54.5707L27.365 65.1964L30.137 69.3823C30.3304 69.6399 30.6527 69.8331 30.975 69.8331H45.6728C46.253 69.8331 46.7043 69.3823 46.7043 68.8027V57.4686C46.7043 56.9534 46.253 56.5026 45.7373 56.4382ZM28.9122 63.9084L22.2079 53.9911L28.9766 43.0434C29.2345 42.657 29.17 42.2062 28.8477 41.8842L35.8743 41.5622L38.4529 48.5172L38.0661 48.324C37.8082 48.1952 37.5504 48.1308 37.2925 48.2596C37.0347 48.324 36.8413 48.5172 36.7123 48.7748L32.8445 56.5026L28.9122 63.9084ZM44.6414 67.8367H31.4907L30.2015 65.8404L34.3272 57.9838L44.6414 58.4346V67.8367ZM79.9033 53.0895L73.4569 39.8235C73.328 39.5659 73.1346 39.3727 72.8767 39.3083C72.6189 39.2439 72.361 39.2439 72.1031 39.4371L61.7889 45.1685C61.3376 45.4261 61.1442 46.0701 61.4021 46.5209L66.4303 55.6011L60.3707 56.1162L60.3062 54.0555C60.3062 53.6047 59.9839 53.2827 59.5971 53.1539C59.2103 53.0251 58.7591 53.1539 58.5012 53.4759L51.7969 62.0409C51.5391 62.3629 51.5391 62.8781 51.7325 63.2001L57.7276 72.087C57.921 72.3446 58.2434 72.5378 58.5657 72.5378C58.6301 72.5378 58.7591 72.5378 58.8235 72.4734C59.2103 72.3446 59.5326 71.9582 59.5326 71.5719L59.5971 69.7687H72.1031C72.4899 69.7687 72.8767 69.5111 73.0056 69.1891L79.9033 53.9267C80.0322 53.6691 80.0322 53.3471 79.9033 53.0895ZM71.5874 67.8367H58.7591C58.3078 67.8367 57.921 68.1587 57.7921 68.5451L53.8598 62.6849L58.4367 56.8246V57.2754C58.4367 57.533 58.5657 57.7906 58.7591 57.9838C58.9525 58.177 59.2103 58.2414 59.5326 58.2414L68.1708 57.4686L76.5512 56.889L71.5874 67.8367ZM77.3892 54.7639L68.5576 55.4079L63.5939 46.3921L72.1031 41.6266L77.9694 53.5403L77.3892 54.7639Z" fill="#333333"/>
</g>
<defs>
<clipPath id="clip0_34_259">
<rect width="60" height="59.9388" fill="white" transform="translate(20 15.7144)"/>
</clipPath>
</defs>
</svg>
