<svg width="99" height="90" viewBox="0 0 99 90" fill="none" xmlns="http://www.w3.org/2000/svg">
<mask id="path-1-inside-1_34_278" fill="white">
<path d="M0 0.729492H99V89.6387H0V0.729492Z"/>
</mask>
<path d="M0 0.729492H99V89.6387H0V0.729492Z" fill="white"/>
<path d="M3 89.6387V0.729492H-3V89.6387H3Z" fill="#ED3237" mask="url(#path-1-inside-1_34_278)"/>
<path d="M31.0232 73.4224C30.9416 73.4224 30.86 73.414 30.7796 73.3972C30.3776 73.3145 30.0452 73.0339 29.8964 72.6527L21.032 49.9731C20.858 49.5284 20.9624 49.0237 21.2972 48.6844C24.0896 45.8541 28.5584 44.3592 34.2236 44.3592H34.2656C34.934 44.3604 35.4752 44.9023 35.474 45.57C35.4728 46.2377 34.9316 46.7772 34.2632 46.7772H34.2236C30.9416 46.7772 26.54 47.3298 23.5844 49.8568L31.5212 70.1653C37.04 65.96 45.0572 67.0197 53.5076 68.1369C61.6604 69.2146 70.0784 70.3271 76.352 66.5594L68.3792 46.1586C67.3064 46.7688 66.152 47.2783 64.9316 47.6798C64.2956 47.8884 63.6128 47.5432 63.404 46.909C63.1952 46.2749 63.5408 45.5916 64.1756 45.383C65.678 44.8891 67.0604 44.2106 68.2868 43.3643C68.437 43.2607 68.6087 43.1923 68.7891 43.1643C68.9694 43.1363 69.1538 43.1493 69.3284 43.2024C69.6824 43.3103 69.9668 43.574 70.1012 43.9193L78.9656 66.6001C79.1696 67.1228 78.9872 67.7162 78.5264 68.0351C71.4116 72.9428 62.1488 71.7189 53.1896 70.5345C44.6312 69.4041 36.5468 68.3347 31.8836 73.0627C31.6556 73.2953 31.3448 73.4224 31.0232 73.4224Z" fill="#333333"/>
<path d="M37.1132 56.4525H37.1024C36.434 56.4465 35.8964 55.8998 35.9024 55.2321C35.9624 48.6401 37.91 42.1235 41.5364 36.3874C41.6354 36.2312 41.7688 36.0996 41.9264 36.0028C42.0841 35.906 42.2618 35.8465 42.446 35.8287C42.8192 35.794 43.1876 35.933 43.4444 36.2064C44.9336 37.7971 45.638 40.3098 45.8696 41.1357C46.0496 41.7783 45.674 42.446 45.0308 42.6258C44.3864 42.8056 43.7192 42.4304 43.5392 41.7879C43.2644 40.8085 42.9584 39.9753 42.6224 39.2944C39.8552 44.2417 38.3744 49.7225 38.324 55.2537C38.3168 55.9178 37.7756 56.4525 37.1132 56.4525ZM43.4396 61.0138C42.8156 61.0138 42.2852 60.5343 42.2348 59.9014C42.1808 59.236 42.6776 58.6522 43.3436 58.5995C48.41 58.1919 52.166 55.5822 54.1052 53.6006C53.42 53.3632 52.7408 53.2098 51.9932 53.1163C51.3296 53.0336 50.8592 52.4294 50.942 51.7665C51.0248 51.1035 51.6296 50.6324 52.2932 50.7163C53.8424 50.9093 55.1396 51.3085 56.6312 52.0506C56.948 52.2088 57.1808 52.4977 57.266 52.8406C57.3512 53.1846 57.2816 53.5478 57.0764 53.8355C55.4768 56.0689 50.5904 60.442 43.5404 61.009C43.5056 61.0126 43.472 61.0138 43.4396 61.0138Z" fill="#333333"/>
<path d="M54.3296 53.6078C53.9852 53.6078 53.6432 53.4616 53.4044 53.1787C52.9736 52.668 53.0384 51.9056 53.5484 51.4752C56.2952 49.1604 58.8632 46.1035 60.7796 42.8668C61.9964 40.8121 62.6228 39.2549 62.8892 38.3234C62.0576 38.5152 60.9116 39.0235 60.0092 39.72C59.755 39.9159 59.4334 40.0029 59.115 39.962C58.7966 39.9211 58.5075 39.7556 58.3112 39.5018C58.1151 39.2479 58.028 38.9266 58.069 38.6085C58.1099 38.2905 58.2756 38.0017 58.5296 37.8056C59.8976 36.7506 62.7668 35.3301 64.6388 36.0098C65.012 36.1453 65.2952 36.4545 65.396 36.8382C65.8856 38.6963 63.6824 42.6918 62.996 43.8714C61.7996 45.9273 59.1848 49.888 55.1096 53.3225C54.8828 53.5143 54.6056 53.6078 54.3296 53.6078Z" fill="#333333"/>
<path d="M43.994 40.5914C43.9088 40.5914 43.8224 40.5818 43.7348 40.5638C43.082 40.4212 42.6668 39.7774 42.8096 39.1253C43.8068 34.5532 44.9252 31.6462 46.436 29.6993C47.9156 27.7933 49.6496 26.9302 51.656 25.9304C54.2564 24.6357 57.4928 23.0234 61.9028 18.3278C62.2016 18.0101 62.6492 17.877 63.074 17.9801C63.4988 18.0832 63.8336 18.4081 63.9512 18.8288L64.0052 19.0218C65.5892 24.6645 67.0844 29.9954 63.818 37.6077C63.5552 38.2214 62.8436 38.5055 62.228 38.243C61.6136 37.9805 61.3292 37.2684 61.592 36.6546C64.1912 30.5984 63.446 26.2133 62.1788 21.4997C58.1936 25.3766 55.0784 26.929 52.7348 28.0954C48.968 29.9715 47.0768 30.9137 45.1736 39.6396C45.0512 40.2054 44.5508 40.5914 43.994 40.5914Z" fill="#333333"/>
<path d="M32.93 64.9721C32.534 64.9721 32.1464 64.7791 31.9148 64.4231C31.55 63.8632 31.7072 63.114 32.2676 62.7496C41.5508 56.7029 50.618 40.9211 54.1148 33.4215C54.3968 32.8161 55.118 32.5536 55.7228 32.8365C56.3288 33.1182 56.5916 33.8375 56.3084 34.4429C55.4468 36.2902 52.2524 42.8775 47.2988 50.0857C42.5432 57.005 37.9316 61.9476 33.59 64.7755C33.386 64.9086 33.1568 64.9721 32.93 64.9721Z" fill="#333333"/>
</svg>
