<svg width="99" height="90" viewBox="0 0 99 90" fill="none" xmlns="http://www.w3.org/2000/svg">
<mask id="path-1-inside-1_34_335" fill="white">
<path d="M0 0.423584H99V89.3328H0V0.423584Z"/>
</mask>
<path d="M0 0.423584H99V89.3328H0V0.423584Z" fill="white"/>
<path d="M3 89.3328V0.423584H-3V89.3328H3Z" fill="#ED3237" mask="url(#path-1-inside-1_34_335)"/>
<g clip-path="url(#clip0_34_335)">
<path d="M41.6151 62.569L34.1839 56.7938C33.6882 56.4115 33.1013 56.1647 32.4811 56.0778C31.8608 55.9909 31.2286 56.0669 30.6467 56.2983L28.3253 43.5282C28.1823 41.3075 26.4154 39.5358 24.1929 39.3845C23.6128 39.394 23.042 39.5318 22.5215 39.7879C22.001 40.044 21.5437 40.4121 21.1825 40.8657C20.4202 41.812 20.0105 42.9934 20.0234 44.2081L20.0034 61.8588C19.964 63.2258 20.2571 64.5819 20.8578 65.8108C21.4584 67.0396 22.3485 68.1046 23.4517 68.9142L30.0022 72.9072V74.3445C30.0022 74.6094 30.1075 74.8635 30.295 75.0508C30.4825 75.2382 30.7369 75.3434 31.0021 75.3434H41.0008C41.266 75.3434 41.5204 75.2382 41.7079 75.0508C41.8954 74.8635 42.0007 74.6094 42.0007 74.3445V63.3571C42.0008 63.2051 41.966 63.055 41.8992 62.9185C41.8324 62.7819 41.7352 62.6624 41.6151 62.569ZM40.0011 73.3457H32.0021V72.3468C32.0021 72.1756 31.958 72.0073 31.8741 71.858C31.7903 71.7087 31.6694 71.5835 31.5231 71.4943L24.5308 67.2325C23.7088 66.6054 23.0499 65.7898 22.61 64.8547C22.17 63.9195 21.9619 62.8923 22.0033 61.8598L22.0233 44.2091C22.0136 43.4591 22.261 42.7284 22.7243 42.1382C22.8972 41.9108 23.1188 41.7249 23.3729 41.5941C23.627 41.4633 23.9072 41.3909 24.1929 41.3822C25.4194 41.5505 26.337 42.5914 26.3489 43.8281L28.8873 57.8003C28.5488 58.3589 28.3674 58.9984 28.3623 59.6513C28.3622 60.1245 28.4561 60.593 28.6386 61.0297C28.821 61.4663 29.0884 61.8625 29.4251 62.1953L34.2947 67.0599L35.7085 65.6475L30.839 60.7829C30.6875 60.6359 30.5673 60.4599 30.4853 60.2655C30.4034 60.0711 30.3615 59.8623 30.362 59.6513C30.366 59.2827 30.4932 58.926 30.7235 58.638C30.8104 58.5354 30.908 58.4425 31.0148 58.3608C31.2952 58.1499 31.637 58.0368 31.9879 58.0387C32.3389 58.0407 32.6794 58.1576 32.9574 58.3715L40.001 63.8458V73.3457H40.0011ZM79.9963 61.8578L79.9763 44.209C79.9895 42.9941 79.5798 41.8125 78.8171 40.8662C78.456 40.4124 77.9988 40.0442 77.4783 39.7881C76.9578 39.5319 76.3869 39.394 75.8068 39.3845C73.6035 39.5268 71.8432 41.2713 71.6833 43.4711L69.3529 56.2963C68.7705 56.0655 68.1379 55.9901 67.5175 56.0776C66.897 56.1651 66.3101 56.4124 65.8143 56.7952L58.3851 62.5684C58.2649 62.6618 58.1676 62.7814 58.1007 62.918C58.0337 63.0547 57.9989 63.2048 57.9989 63.357V74.3444C57.9989 74.6093 58.1043 74.8634 58.2918 75.0507C58.4793 75.238 58.7336 75.3433 58.9988 75.3433H68.9976C69.2628 75.3433 69.5171 75.238 69.7046 75.0507C69.8921 74.8634 69.9975 74.6093 69.9975 74.3444V72.907L76.584 68.8906C77.6779 68.0798 78.5595 67.0168 79.1536 65.7923C79.7477 64.5678 80.0368 63.218 79.9963 61.8578ZM75.5055 67.2092L68.4766 71.4943C68.3304 71.5835 68.2095 71.7087 68.1256 71.858C68.0418 72.0073 67.9977 72.1756 67.9977 72.3468V73.3457H59.9987V63.8458L67.0403 58.3735C67.3163 58.1596 67.6548 58.0418 68.0041 58.0382C68.3535 58.0346 68.6944 58.1454 68.9747 58.3535C69.0858 58.4372 69.1876 58.5327 69.2779 58.6384C69.5074 58.9266 69.634 59.2831 69.6378 59.6513C69.6383 59.8622 69.5963 60.0711 69.5144 60.2655C69.4324 60.4598 69.3122 60.6358 69.1608 60.7828L64.2913 65.6475L65.7051 67.0599L70.5746 62.1953C70.9114 61.8625 71.1787 61.4663 71.3611 61.0297C71.5436 60.593 71.6375 60.1245 71.6375 59.6513C71.6347 58.9944 71.454 58.3504 71.1146 57.7877L73.6598 43.7711C73.6869 42.5544 74.599 41.5396 75.807 41.3822C76.3858 41.3997 76.9256 41.6777 77.2756 42.1387C77.7392 42.7289 77.9866 43.4599 77.9767 44.2101L77.9967 61.8589C78.0389 62.8846 77.8348 63.9055 77.4014 64.8362C76.968 65.767 76.318 66.5806 75.5055 67.2092ZM60.9986 24.4016H39.0012C38.736 24.4016 38.4817 24.5068 38.2942 24.6942C38.1067 24.8815 38.0013 25.1355 38.0013 25.4005V47.3753C38.0013 47.6403 38.1067 47.8943 38.2942 48.0816C38.4817 48.269 38.736 48.3742 39.0012 48.3742H60.9986C61.2637 48.3742 61.5181 48.269 61.7056 48.0816C61.8931 47.8943 61.9984 47.6403 61.9984 47.3753V25.4005C61.9984 25.1355 61.8931 24.8815 61.7056 24.6942C61.5181 24.5068 61.2637 24.4016 60.9986 24.4016ZM59.9987 46.3765H40.0011V26.3993H59.9987V46.3765ZM57.3217 53.906C56.1747 54.3846 54.9832 54.7489 53.7645 54.9936L54.158 56.9523C55.5062 56.6817 56.8243 56.2785 58.093 55.7485L57.3217 53.906ZM38.3217 18.9532C37.1805 19.7181 36.1165 20.5921 35.1448 21.563L36.5596 22.9755C37.4391 22.0962 38.4024 21.3048 39.4358 20.6124L38.3217 18.9532ZM45.8846 15.8148C44.536 16.0829 43.2171 16.4833 41.9471 17.0102L42.7146 18.8547C43.8627 18.3785 45.0551 18.0166 46.2743 17.7744L45.8846 15.8148ZM39.5022 52.2082L38.3958 53.8723C39.5409 54.632 40.7581 55.2775 42.0296 55.7993L42.7893 53.9518C41.6392 53.4792 40.5382 52.8952 39.5022 52.2082ZM63.469 49.7725C62.5916 50.6536 61.6301 51.447 60.5982 52.1414L61.7153 53.7986C62.8553 53.0313 63.9175 52.1546 64.8868 51.181L63.469 49.7725ZM49.9999 55.3662C48.7762 55.3664 47.5553 55.2496 46.3538 55.0175L45.972 56.9781C47.2992 57.235 48.648 57.3642 49.9999 57.3639H50.0629L49.9999 55.3662ZM58.0112 16.9926L57.2476 18.8391C58.3969 19.3135 59.4966 19.8996 60.531 20.5891L61.6412 18.9278C60.4975 18.1657 59.2816 17.5175 58.0112 16.9926ZM49.9999 15.4119H49.9789L49.9999 17.4096C51.2371 17.4093 52.4713 17.5288 53.6854 17.7666L54.0711 15.8059C52.7299 15.5437 51.3665 15.4117 49.9999 15.4119ZM64.8238 21.5324L63.4119 22.9468C64.293 23.8246 65.0864 24.7863 65.7807 25.818L67.4406 24.703C66.6735 23.5638 65.7971 22.5019 64.8238 21.5324ZM31.3781 40.1678L29.4184 40.5639C29.6911 41.9102 30.096 43.2265 30.6272 44.4935L32.4718 43.7209C31.9912 42.5753 31.6249 41.3852 31.3781 40.1678ZM34.241 46.9914L32.584 48.1093C33.3533 49.2471 34.2319 50.3072 35.2073 51.2746L36.6163 49.8573C35.7332 48.9813 34.9377 48.0215 34.241 46.9914ZM32.5347 24.7396C31.771 25.8815 31.121 27.0953 30.5941 28.3638L32.4415 29.1286C32.9182 27.9809 33.5064 26.8826 34.1977 25.8496L32.5347 24.7396ZM29.4014 32.2993C29.136 33.646 29.0024 35.0153 29.0025 36.3879V36.4728L31.0023 36.3879C31.0022 35.1453 31.123 33.9057 31.3631 32.6865L29.4014 32.2993ZM69.3892 28.3234L67.5436 29.092C68.0215 30.2387 68.385 31.4296 68.629 32.6475L70.5898 32.2559C70.3201 30.9088 69.9179 29.5915 69.3892 28.3234ZM67.574 43.6096C67.1004 44.7583 66.5146 45.8576 65.8252 46.8915L67.49 47.9986C68.2518 46.8554 68.8994 45.6401 69.4234 44.3704L67.574 43.6096ZM68.9976 36.3879C68.9978 37.6173 68.8796 38.8439 68.6446 40.0507L70.6073 40.4332C70.8668 39.1004 70.9975 37.7458 70.9973 36.388V36.3461L68.9976 36.3879Z" fill="#333333"/>
<path d="M57.8143 33.7776C57.7219 33.6475 57.5997 33.5414 57.4579 33.4682C57.316 33.395 57.1587 33.3568 56.999 33.3568H52.3731L50.9484 29.0804C50.8821 28.8814 50.7548 28.7083 50.5846 28.5857C50.4143 28.463 50.2097 28.397 49.9998 28.397C49.7898 28.397 49.5852 28.463 49.415 28.5857C49.2447 28.7083 49.1174 28.8814 49.0511 29.0804L47.6266 33.3568H43.0006C42.7886 33.3569 42.582 33.4243 42.4108 33.5493C42.2396 33.6743 42.1127 33.8505 42.0483 34.0523C41.9839 34.2542 41.9854 34.4712 42.0526 34.6722C42.1197 34.8731 42.2491 35.0475 42.4221 35.1701L46.1437 37.8082L44.7254 42.0656C44.6587 42.2654 44.6569 42.4812 44.7204 42.6821C44.7838 42.883 44.9092 43.0587 45.0787 43.184C45.2481 43.3094 45.4529 43.3781 45.6637 43.3802C45.8746 43.3822 46.0807 43.3177 46.2526 43.1957L49.9996 40.5405L53.7467 43.1957C53.9186 43.3176 54.1247 43.3822 54.3355 43.38C54.5463 43.3779 54.7511 43.3093 54.9205 43.1839C55.0899 43.0585 55.2153 42.8829 55.2787 42.682C55.3422 42.4812 55.3404 42.2654 55.2738 42.0656L53.8554 37.8082L57.5771 35.1701C57.6843 35.0943 57.7754 34.9981 57.8453 34.887C57.9152 34.776 57.9626 34.6523 57.9846 34.5229C58.0066 34.3936 58.0029 34.2612 57.9737 34.1333C57.9445 34.0054 57.8903 33.8845 57.8143 33.7776ZM52.0949 36.607C51.9201 36.7308 51.7897 36.9075 51.7231 37.111C51.6564 37.3144 51.657 37.5339 51.7248 37.737L52.4122 39.8006L50.5784 38.5013C50.4094 38.3813 50.2072 38.3169 49.9999 38.3169C49.7926 38.3169 49.5904 38.3813 49.4213 38.5013L47.5876 39.8006L48.275 37.737C48.3427 37.5339 48.3433 37.3144 48.2767 37.111C48.2101 36.9075 48.0797 36.7308 47.9049 36.607L46.138 35.3545H48.3477C48.5576 35.3545 48.7622 35.2885 48.9325 35.1659C49.1027 35.0432 49.23 34.8701 49.2963 34.6712L49.9999 32.5593L50.7034 34.6712C50.7698 34.8701 50.8971 35.0432 51.0673 35.1658C51.2376 35.2885 51.4422 35.3545 51.6521 35.3545H53.8618L52.0949 36.607Z" fill="#333333"/>
</g>
<defs>
<clipPath id="clip0_34_335">
<rect width="60" height="59.9388" fill="white" transform="translate(20 15.4082)"/>
</clipPath>
</defs>
</svg>
