<svg width="20" height="20" viewBox="0 0 20 20" fill="none" xmlns="http://www.w3.org/2000/svg">
<g id="Frame" clip-path="url(#clip0_28_81)">
<g id="Group">
<path id="Vector" d="M18.9936 7.6793C18.9701 7.58841 18.929 7.50302 18.8725 7.42802C18.8161 7.35302 18.7454 7.28987 18.6646 7.24218C18.5837 7.19449 18.4943 7.1632 18.4013 7.15008C18.3084 7.13696 18.2137 7.14228 18.1228 7.16573C18.032 7.18918 17.9466 7.2303 17.8716 7.28675C17.7966 7.3432 17.7334 7.41387 17.6857 7.49472C17.638 7.57557 17.6067 7.66503 17.5936 7.75798C17.5805 7.85093 17.5858 7.94555 17.6093 8.03644C18.0714 9.82582 17.8881 11.7208 17.0914 13.3884C16.2947 15.056 14.9357 16.3893 13.2533 17.1541C11.5708 17.9189 9.67266 18.0662 7.8924 17.57C6.11215 17.0739 4.56376 15.9661 3.51941 14.4413C2.47507 12.9166 2.00162 11.0725 2.18227 9.23327C2.36293 7.39402 3.18614 5.67731 4.50719 4.38491C5.82825 3.09251 7.56259 2.30714 9.40536 2.16686C11.2481 2.02657 13.0814 2.54034 14.5828 3.61787C14.6591 3.67265 14.7453 3.71188 14.8367 3.73333C14.9281 3.75477 15.0228 3.75801 15.1154 3.74285C15.208 3.7277 15.2968 3.69444 15.3765 3.645C15.4563 3.59555 15.5256 3.53087 15.5803 3.45466C15.6351 3.37844 15.6744 3.29218 15.6958 3.20081C15.7173 3.10943 15.7205 3.01473 15.7053 2.9221C15.6902 2.82948 15.6569 2.74074 15.6075 2.66097C15.558 2.58119 15.4933 2.51194 15.4171 2.45716C13.7249 1.24165 11.673 0.630592 9.59149 0.722251C7.50997 0.81391 5.51975 1.60296 3.9409 2.96251C2.36204 4.32206 1.28631 6.17309 0.886679 8.21795C0.48705 10.2628 0.786754 12.3827 1.7376 14.2366C2.68844 16.0905 4.23516 17.5708 6.12902 18.4394C8.02289 19.3079 10.1538 19.5143 12.1792 19.0254C14.2045 18.5364 16.0066 17.3805 17.2956 15.7435C18.5845 14.1065 19.2855 12.0836 19.2857 10C19.2861 9.21725 19.1879 8.43755 18.9936 7.6793Z" fill="#0060AA"/>
<path id="Vector_2" d="M5.97929 8.6222C5.82652 8.56112 5.65734 8.55465 5.50035 8.60388C5.34337 8.65312 5.20819 8.75504 5.11766 8.89243C5.02713 9.02981 4.98681 9.19424 5.0035 9.35792C5.0202 9.5216 5.09289 9.67449 5.20929 9.79077L8.78072 13.3622C8.91466 13.4961 9.09631 13.5713 9.28572 13.5713C9.47512 13.5713 9.65677 13.4961 9.79072 13.3622L17.6479 5.50506C17.7799 5.37876 17.8586 5.20665 17.8676 5.02413C17.8766 4.84161 17.8154 4.66258 17.6964 4.52386C17.5775 4.38513 17.4099 4.29728 17.2281 4.27837C17.0463 4.25946 16.8642 4.31094 16.7193 4.4222L9.18429 9.90434L5.97929 8.6222Z" fill="#ED3237"/>
</g>
</g>
<defs>
<clipPath id="clip0_28_81">
<rect width="20" height="20" fill="white"/>
</clipPath>
</defs>
</svg>
