<svg width="15" height="16" viewBox="0 0 15 16" fill="none" xmlns="http://www.w3.org/2000/svg">
<mask id="path-1-inside-1_32_203" fill="white">
<path d="M0 3.5C0 1.84315 1.34315 0.5 3 0.5H12C13.6569 0.5 15 1.84315 15 3.5V12.4847C15 14.1415 13.6569 15.4847 12 15.4847H3C1.34315 15.4847 0 14.1415 0 12.4847V3.5Z"/>
</mask>
<path d="M0 0.5C0 -7.78427 6.71573 -14.5 15 -14.5H15.0077C23.2877 -14.5 30 -7.7877 30 0.492347L15 12.4847C15 13.2803 14.6839 14.0434 14.1213 14.606C13.5587 15.1686 12.7956 15.4847 12 15.4847H3H0H3C2.20435 15.4847 1.44129 15.1686 0.87868 14.606C0.31607 14.0434 -3.47789e-08 13.2803 0 12.4847L0 0.5ZM15 15.4847H0H15ZM0 15.4847V0.5V15.4847ZM15.0077 -14.5C23.2877 -14.5 30 -7.7877 30 0.492347C30 8.77239 23.2877 15.4847 15.0077 15.4847H3C2.20435 15.4847 1.44129 15.1686 0.878679 14.606C0.31607 14.0434 -6.95579e-08 13.2803 0 12.4847L0 3.5V0.5L0 3.5C6.95579e-08 2.70435 0.316071 1.94129 0.87868 1.37868C1.44129 0.81607 2.20435 0.5 3 0.5L15.0077 -14.5Z" fill="url(#paint0_linear_32_203)" mask="url(#path-1-inside-1_32_203)"/>
<defs>
<linearGradient id="paint0_linear_32_203" x1="15" y1="0.499999" x2="25.5958" y2="11.1066" gradientUnits="userSpaceOnUse">
<stop stop-opacity="0"/>
<stop stop-color="#EB4438"/>
</linearGradient>
</defs>
</svg>
