<svg width="30" height="30" viewBox="0 0 30 30" fill="none" xmlns="http://www.w3.org/2000/svg">
<path d="M16.995 15C16.995 14.4493 16.8036 13.978 16.421 13.586C16.0383 13.194 15.567 12.998 15.007 12.998C14.447 12.998 13.9756 13.194 13.593 13.586C13.2103 13.978 13.0143 14.4493 13.005 15C12.9956 15.5507 13.1916 16.022 13.593 16.414C13.9943 16.806 14.4656 17.002 15.007 17.002C15.5483 17.002 16.0196 16.806 16.421 16.414C16.8223 16.022 17.0136 15.5507 16.995 15ZM18.073 15C18.073 15.8493 17.7743 16.5773 17.177 17.184C16.5796 17.7907 15.8563 18.0893 15.007 18.08C14.1576 18.0707 13.4296 17.772 12.823 17.184C12.2163 16.596 11.9176 15.868 11.927 15C11.9363 14.132 12.235 13.404 12.823 12.816C13.411 12.228 14.139 11.9293 15.007 11.92C15.875 11.9107 16.5983 12.2093 17.177 12.816C17.7556 13.4227 18.0543 14.1507 18.073 15ZM18.927 11.794C18.927 11.99 18.857 12.158 18.717 12.298C18.577 12.438 18.4043 12.508 18.199 12.508C17.9936 12.508 17.8256 12.438 17.695 12.298C17.5643 12.158 17.4943 11.99 17.485 11.794C17.4756 11.598 17.5456 11.43 17.695 11.29C17.8443 11.15 18.0123 11.08 18.199 11.08C18.3856 11.08 18.5583 11.15 18.717 11.29C18.8756 11.43 18.9456 11.598 18.927 11.794ZM15.007 10.072C14.9696 10.072 14.769 10.072 14.405 10.072H13.579C13.3923 10.072 13.1403 10.0813 12.823 10.1C12.5056 10.1187 12.2396 10.142 12.025 10.17C11.8103 10.198 11.6236 10.2493 11.465 10.324C11.2036 10.4267 10.975 10.576 10.779 10.772C10.583 10.968 10.429 11.1967 10.317 11.458C10.261 11.6073 10.2143 11.794 10.177 12.018C10.1396 12.242 10.1116 12.5127 10.093 12.83C10.0743 13.1473 10.0696 13.3947 10.079 13.572C10.0883 13.7493 10.0883 14.0247 10.079 14.398C10.0696 14.7713 10.0696 14.972 10.079 15C10.0883 15.028 10.0883 15.2287 10.079 15.602C10.0696 15.9753 10.0696 16.2507 10.079 16.428C10.0883 16.6053 10.093 16.8527 10.093 17.17C10.093 17.4873 10.121 17.758 10.177 17.982L10.317 18.542C10.429 18.8033 10.583 19.032 10.779 19.228C10.975 19.424 11.2036 19.5733 11.465 19.676C11.6143 19.732 11.801 19.7833 12.025 19.83C12.249 19.8767 12.515 19.9 12.823 19.9C13.131 19.9 13.383 19.9093 13.579 19.928C13.775 19.9467 14.0503 19.9467 14.405 19.928C14.7596 19.9093 14.9603 19.9093 15.007 19.928C15.0536 19.9467 15.2496 19.9467 15.595 19.928C15.9403 19.9093 16.2156 19.9093 16.421 19.928C16.6263 19.9467 16.8783 19.9373 17.177 19.9C17.4756 19.8627 17.7463 19.8393 17.989 19.83C18.2316 19.8207 18.4136 19.7693 18.535 19.676C18.7963 19.5733 19.0296 19.424 19.235 19.228C19.4403 19.032 19.5896 18.8033 19.683 18.542C19.739 18.3927 19.7856 18.206 19.823 17.982C19.8603 17.758 19.8883 17.4873 19.907 17.17C19.9256 16.8527 19.9303 16.6053 19.921 16.428C19.9116 16.2507 19.9116 15.9753 19.921 15.602C19.9303 15.2287 19.9303 15.028 19.921 15C19.9116 14.972 19.9116 14.7713 19.921 14.398C19.9303 14.0247 19.9303 13.7493 19.921 13.572C19.9116 13.3947 19.907 13.1473 19.907 12.83C19.907 12.5127 19.879 12.242 19.823 12.018L19.683 11.458C19.5803 11.1967 19.431 10.968 19.235 10.772C19.039 10.576 18.8056 10.4267 18.535 10.324C18.3856 10.268 18.2036 10.2167 17.989 10.17C17.7743 10.1233 17.5036 10.1 17.177 10.1C16.8503 10.1 16.5983 10.0907 16.421 10.072C16.2436 10.0533 15.9683 10.0533 15.595 10.072C15.2216 10.0907 15.0256 10.0907 15.007 10.072ZM20.999 15C20.999 16.1947 20.985 17.0207 20.957 17.478C20.9103 18.5607 20.5883 19.4007 19.991 19.998C19.3936 20.5953 18.5583 20.9173 17.485 20.964C17.0183 20.992 16.1923 21.006 15.007 21.006C13.8216 21.006 12.9956 20.992 12.529 20.964C11.4463 20.908 10.6063 20.586 10.009 19.998C9.41164 19.41 9.08964 18.57 9.04298 17.478C9.01498 17.0207 9.00098 16.1947 9.00098 15C9.00098 13.8053 9.01498 12.9793 9.04298 12.522C9.08964 11.4393 9.41164 10.5993 10.009 10.002C10.6063 9.40467 11.4463 9.08267 12.529 9.036C12.9863 9.008 13.8123 8.994 15.007 8.994C16.2016 8.994 17.0276 9.008 17.485 9.036C18.5676 9.092 19.403 9.414 19.991 10.002C20.579 10.59 20.901 11.43 20.957 12.522C20.985 12.9793 20.999 13.8053 20.999 15Z" fill="white"/>
<rect x="0.5" y="0.5" width="29" height="29" rx="14.5" stroke="white"/>
</svg>
