<svg width="30" height="30" viewBox="0 0 30 30" fill="none" xmlns="http://www.w3.org/2000/svg">
<path d="M11.731 12.886V20.628H9.15498V12.886H11.731ZM11.899 10.492C11.899 10.8747 11.7636 11.192 11.493 11.444C11.2223 11.696 10.8723 11.822 10.443 11.822H10.429C9.99964 11.822 9.65431 11.696 9.39298 11.444C9.13164 11.192 9.00098 10.8747 9.00098 10.492C9.00098 10.1093 9.13631 9.792 9.40698 9.54C9.67764 9.288 10.0276 9.162 10.457 9.162C10.8863 9.162 11.2316 9.288 11.493 9.54C11.7543 9.792 11.8896 10.1093 11.899 10.492ZM20.999 16.19V20.628H18.437V16.484C18.437 15.9333 18.3296 15.504 18.115 15.196C17.9003 14.888 17.569 14.734 17.121 14.734C16.7943 14.734 16.5236 14.8227 16.309 15C16.0943 15.1773 15.9263 15.4013 15.805 15.672C15.749 15.8307 15.721 16.0407 15.721 16.302V20.628H13.145C13.1543 18.5467 13.159 16.862 13.159 15.574V13.264L13.145 12.886H15.721V14.006H15.707C15.8096 13.838 15.917 13.6933 16.029 13.572C16.141 13.4507 16.2856 13.3153 16.463 13.166C16.6403 13.0167 16.869 12.9047 17.149 12.83C17.429 12.7553 17.7276 12.7133 18.045 12.704C18.9316 12.704 19.6456 12.998 20.187 13.586C20.7283 14.174 20.999 15.042 20.999 16.19Z" fill="white"/>
<rect x="0.5" y="0.5" width="29" height="29" rx="14.5" stroke="white"/>
</svg>
