<svg width="99" height="90" viewBox="0 0 99 90" fill="none" xmlns="http://www.w3.org/2000/svg">
<mask id="path-1-inside-1_34_225" fill="white">
<path d="M0 0.729492H99V89.6387H0V0.729492Z"/>
</mask>
<path d="M0 0.729492H99V89.6387H0V0.729492Z" fill="#ED3237"/>
<path d="M3 89.6387V0.729492H-3V89.6387H3Z" fill="#ED3237" mask="url(#path-1-inside-1_34_225)"/>
<path d="M77.5292 26.1754C76.0959 24.27 74.1668 23.2209 72.0975 23.2209H37.7703C35.701 23.2209 33.7719 24.27 32.3385 26.1754C30.9609 28.0063 30.2022 30.4272 30.2022 32.9921C30.2022 34.3554 30.4199 35.6919 30.837 36.9233H27.7589C25.6896 36.9233 23.7605 37.9724 22.3271 39.8777C20.9493 41.7086 20.1907 44.1296 20.1907 46.6943C20.1907 49.2591 20.9493 51.6801 22.327 53.511C22.7098 54.0199 23.1291 54.4657 23.576 54.8487V65.6065C23.576 67.1099 24.8003 68.3332 26.3053 68.3332H60.2275C61.7324 68.3332 62.957 67.11 62.957 65.6065V64.9981C62.957 64.5176 62.5671 64.1282 62.0861 64.1282C61.6051 64.1282 61.2153 64.5176 61.2153 64.9981V65.6065C61.2153 66.1506 60.7722 66.5932 60.2276 66.5932H26.3055C25.7609 66.5932 25.3179 66.1506 25.3179 65.6065V55.9503C26.0923 56.2874 26.9134 56.4654 27.759 56.4654H61.2154V61.2957C61.2154 61.7762 61.6052 62.1656 62.0862 62.1656C62.5672 62.1656 62.9571 61.7762 62.9571 61.2957V56.4002C64.2514 56.2121 65.4668 55.6053 66.5118 54.6307H70.239C71.744 54.6307 72.9684 53.4076 72.9684 51.9041V42.6978C74.7039 42.4456 76.2993 41.4435 77.5293 39.8087C78.9069 37.9778 79.6655 35.5567 79.6655 32.992C79.6656 30.4273 78.9069 28.0063 77.5292 26.1754ZM62.0861 54.7255H27.7589C24.5462 54.7255 21.9326 51.1228 21.9326 46.6943C21.9326 42.2659 24.5462 38.6632 27.7589 38.6632H36.0746C36.3056 38.6632 36.5271 38.5716 36.6904 38.4084C36.8537 38.2453 36.9455 38.024 36.9455 37.7933C36.9455 37.5625 36.8537 37.3413 36.6904 37.1781C36.5271 37.015 36.3056 36.9233 36.0746 36.9233H32.6946C32.2023 35.7256 31.9437 34.3781 31.9437 32.9921C31.9437 28.5636 34.5573 24.9609 37.77 24.9609H67.7732C67.3792 25.3156 67.0078 25.7202 66.6654 26.1754C65.2878 28.0063 64.5292 30.4274 64.5292 32.9921C64.5292 34.7964 64.9061 36.5285 65.6084 38.0351C64.5377 37.3097 63.338 36.9233 62.086 36.9233H39.7323C39.5014 36.9233 39.2799 37.015 39.1166 37.1781C38.9532 37.3413 38.8615 37.5625 38.8615 37.7933C38.8615 38.024 38.9532 38.2453 39.1166 38.4084C39.2799 38.5716 39.5014 38.6632 39.7323 38.6632H57.762C57.368 39.0179 56.9966 39.4226 56.6542 39.8776C55.2766 41.7085 54.5179 44.1295 54.5179 46.6942C54.5179 48.7966 55.0238 50.7981 55.9808 52.4824C56.0372 52.5818 56.1127 52.6691 56.2029 52.7393C56.2931 52.8095 56.3963 52.8613 56.5066 52.8917C56.6168 52.9221 56.732 52.9305 56.8455 52.9164C56.959 52.9023 57.0686 52.866 57.168 52.8096C57.2675 52.7532 57.3549 52.6778 57.4252 52.5876C57.4954 52.4975 57.5473 52.3944 57.5777 52.2843C57.6081 52.1742 57.6165 52.0591 57.6024 51.9458C57.5883 51.8324 57.552 51.7229 57.4955 51.6235C56.6871 50.2005 56.2598 48.496 56.2598 46.6942C56.2598 42.2658 58.8736 38.6631 62.0862 38.6631C65.2989 38.6631 67.9125 42.2658 67.9125 46.6942C67.9125 51.1227 65.2989 54.7255 62.0861 54.7255ZM70.239 52.8909H67.9447C69.0504 51.1497 69.6543 48.9797 69.6543 46.6943C69.6543 44.89 69.2774 43.1578 68.5751 41.6512C69.3947 42.2065 70.29 42.5619 71.2267 42.6979V51.9042C71.2267 52.4483 70.7837 52.8909 70.239 52.8909ZM72.0975 41.0232C68.8849 41.0232 66.2712 37.4206 66.2712 32.9921C66.2712 28.5636 68.8849 24.9609 72.0975 24.9609C75.3102 24.9609 77.9238 28.5636 77.9238 32.9921C77.9238 37.4206 75.3102 41.0232 72.0975 41.0232Z" fill="white"/>
<path d="M72.0975 27.1104C69.538 27.1104 67.4558 29.7489 67.4558 32.9923C67.4558 36.2354 69.5381 38.874 72.0975 38.874C74.6571 38.874 76.7393 36.2354 76.7393 32.9923C76.7392 29.7489 74.6571 27.1104 72.0975 27.1104ZM72.0975 37.134C70.5255 37.134 69.1974 35.2372 69.1974 32.9922C69.1974 30.747 70.5255 28.8503 72.0975 28.8503C73.6695 28.8503 74.9976 30.747 74.9976 32.9922C74.9975 35.2372 73.6694 37.134 72.0975 37.134Z" fill="white"/>
<path d="M72.0975 31.6343C71.5333 31.6343 71.0758 32.2422 71.0758 32.9923C71.0758 33.7422 71.5333 34.3502 72.0975 34.3502C72.6618 34.3502 73.1193 33.7423 73.1193 32.9923C73.1192 32.2422 72.6617 31.6343 72.0975 31.6343ZM62.0861 40.8127C59.5266 40.8127 57.4443 43.4513 57.4443 46.6944C57.4443 49.9377 59.5267 52.5763 62.0861 52.5763C64.6456 52.5763 66.7279 49.9378 66.7279 46.6944C66.728 43.4513 64.6456 40.8127 62.0861 40.8127ZM62.0861 50.8364C60.5141 50.8364 59.186 48.9397 59.186 46.6945C59.186 44.4494 60.5141 42.5527 62.0861 42.5527C63.6581 42.5527 64.9862 44.4494 64.9862 46.6945C64.9862 48.9397 63.6581 50.8364 62.0861 50.8364Z" fill="white"/>
<path d="M62.0861 45.3367C61.5218 45.3367 61.0644 45.9446 61.0644 46.6947C61.0644 47.4447 61.5218 48.0526 62.0861 48.0526C62.6504 48.0526 63.1079 47.4447 63.1079 46.6947C63.1079 45.9446 62.6505 45.3367 62.0861 45.3367Z" fill="white"/>
</svg>
