<svg width="20" height="20" viewBox="0 0 20 20" fill="none" xmlns="http://www.w3.org/2000/svg">
<path d="M9.75592 9.63408C11.0794 9.63408 12.2254 9.15936 13.162 8.22276C14.0983 7.28635 14.5731 6.14057 14.5731 4.8169C14.5731 3.49363 14.0984 2.34773 13.1618 1.41097C12.2252 0.474687 11.0793 0 9.75592 0C8.43221 0 7.2864 0.474687 6.34999 1.41113C5.41359 2.34757 4.9387 3.49351 4.9387 4.8169C4.9387 6.14057 5.41355 7.28651 6.35003 8.22295C7.28675 9.15924 8.43268 9.63408 9.75588 9.63408H9.75592ZM7.17886 2.23984C7.89737 1.52129 8.7403 1.17203 9.75592 1.17203C10.7714 1.17203 11.6144 1.52129 12.3331 2.23984C13.0517 2.95851 13.4011 3.80155 13.4011 4.81687C13.4011 5.83249 13.0517 6.67542 12.3331 7.39409C11.6144 8.1128 10.7714 8.46205 9.75592 8.46205C8.74057 8.46205 7.89772 8.11264 7.17886 7.39409C6.46015 6.67557 6.11073 5.83253 6.11073 4.8169C6.11073 3.80155 6.46015 2.95851 7.17886 2.23984ZM18.1847 15.379C18.1577 14.9893 18.1031 14.5641 18.0226 14.1153C17.9415 13.663 17.837 13.2354 17.7118 12.8447C17.5824 12.4408 17.4068 12.0419 17.1893 11.6597C16.964 11.2629 16.6991 10.9175 16.4018 10.6332C16.091 10.3358 15.7105 10.0967 15.2704 9.92229C14.8319 9.74885 14.3459 9.66096 13.826 9.66096C13.6219 9.66096 13.4244 9.74471 13.0431 9.99299C12.772 10.1695 12.5002 10.3448 12.2275 10.5188C11.9655 10.6857 11.6106 10.8421 11.1722 10.9837C10.7445 11.1221 10.3103 11.1923 9.88147 11.1923C9.45303 11.1923 9.01873 11.1221 8.59073 10.9837C8.15284 10.8422 7.79776 10.6859 7.5362 10.5189C7.23268 10.325 6.95808 10.148 6.71987 9.99279C6.33886 9.74455 6.1414 9.66076 5.93726 9.66076C5.41722 9.66076 4.9314 9.74881 4.493 9.92248C4.05324 10.0966 3.67253 10.3357 3.3614 10.6334C3.06418 10.9178 2.79929 11.2631 2.57406 11.6597C2.35695 12.0419 2.18117 12.4406 2.05176 12.8448C1.92676 13.2356 1.82227 13.663 1.74109 14.1153C1.66051 14.5636 1.60605 14.9888 1.57902 15.3795C1.55246 15.7614 1.53906 16.1589 1.53906 16.5605C1.53906 17.6045 1.87094 18.4497 2.52539 19.073C3.17175 19.6881 4.02687 20 5.06702 20H14.6972C15.737 20 16.5921 19.6881 17.2386 19.073C17.8932 18.4501 18.2251 17.6047 18.2251 16.5603C18.225 16.1574 18.2114 15.7599 18.1847 15.379ZM16.4306 18.2238C16.0034 18.6303 15.4364 18.8279 14.697 18.8279H5.06706C4.32749 18.8279 3.76046 18.6303 3.33351 18.224C2.91468 17.8253 2.71113 17.281 2.71113 16.5605C2.71113 16.1857 2.72347 15.8157 2.74824 15.4605C2.7723 15.112 2.8216 14.7291 2.89472 14.3223C2.96687 13.9206 3.05871 13.5435 3.16797 13.2022C3.27281 12.8749 3.41578 12.5508 3.59308 12.2386C3.7623 11.941 3.95699 11.6858 4.17183 11.4801C4.37281 11.2877 4.62613 11.1302 4.92456 11.0121C5.20058 10.9028 5.51081 10.843 5.84757 10.834C5.88859 10.8559 5.96171 10.8975 6.08011 10.9747C6.32104 11.1317 6.59874 11.3109 6.90577 11.5069C7.25186 11.7276 7.69768 11.9269 8.23038 12.0988C8.77495 12.2749 9.33038 12.3643 9.88166 12.3643C10.433 12.3643 10.9885 12.2749 11.5328 12.099C12.066 11.9267 12.5117 11.7276 12.8582 11.5066C13.1724 11.3058 13.4423 11.1319 13.6832 10.9747C13.8017 10.8976 13.8747 10.8558 13.9158 10.834C14.2527 10.843 14.5629 10.9028 14.8391 11.0121C15.1374 11.1302 15.3907 11.2878 15.5917 11.4801C15.8065 11.6856 16.0012 11.9409 16.1704 12.2388C16.3479 12.5508 16.491 12.8751 16.5957 13.202C16.7051 13.5438 16.7971 13.9207 16.8691 14.3222C16.942 14.7297 16.9915 15.1127 17.0156 15.4606V15.4609C17.0405 15.8148 17.053 16.1847 17.0531 16.5605C17.053 17.2812 16.8494 17.8253 16.4306 18.2238H16.4306Z" fill="#ED3237"/>
</svg>
