<svg width="120" height="20" viewBox="0 0 120 20" fill="none" xmlns="http://www.w3.org/2000/svg">
<g clip-path="url(#clip0_42_821)">
<path d="M19.9478 7.28126C19.8839 7.08307 19.763 6.90808 19.6003 6.77811C19.4376 6.64814 19.2402 6.56894 19.0328 6.55038L13.2602 6.02619L10.9776 0.683473C10.8092 0.29194 10.426 0.0385742 10.0001 0.0385742C9.57422 0.0385742 9.19089 0.291979 9.0226 0.68445L6.73997 6.02623L0.9665 6.55038C0.759313 6.56936 0.562253 6.64873 0.39975 6.77865C0.237248 6.90857 0.116451 7.08333 0.052336 7.28126C-0.079347 7.68627 0.0422577 8.13046 0.363164 8.41047L4.72656 12.2371L3.43988 17.9048C3.34574 18.3216 3.50746 18.7524 3.85325 19.0023C4.03908 19.1366 4.25654 19.205 4.47581 19.205C4.66488 19.205 4.85238 19.154 5.02074 19.0533L10.0001 16.0773L14.9776 19.0533C15.3419 19.2724 15.801 19.2524 16.146 19.0023C16.3149 18.88 16.4442 18.7108 16.5177 18.5157C16.5912 18.3206 16.6057 18.1082 16.5594 17.9048L15.2728 12.2371L19.6361 8.41125C19.7931 8.27416 19.9063 8.09397 19.9617 7.89308C20.0171 7.69218 20.0123 7.47943 19.9478 7.28126Z" fill="#FFC107"/>
</g>
<g clip-path="url(#clip1_42_821)">
<path d="M44.9478 7.28126C44.8839 7.08307 44.763 6.90808 44.6003 6.77811C44.4376 6.64814 44.2402 6.56894 44.0328 6.55038L38.2602 6.02619L35.9776 0.683473C35.8092 0.29194 35.426 0.0385742 35.0001 0.0385742C34.5742 0.0385742 34.1909 0.291979 34.0226 0.68445L31.74 6.02623L25.9665 6.55038C25.7593 6.56936 25.5623 6.64873 25.3998 6.77865C25.2372 6.90857 25.1165 7.08333 25.0523 7.28126C24.9207 7.68627 25.0423 8.13046 25.3632 8.41047L29.7266 12.2371L28.4399 17.9048C28.3457 18.3216 28.5075 18.7524 28.8533 19.0023C29.0391 19.1366 29.2565 19.205 29.4758 19.205C29.6649 19.205 29.8524 19.154 30.0207 19.0533L35.0001 16.0773L39.9776 19.0533C40.3419 19.2724 40.801 19.2524 41.146 19.0023C41.3149 18.88 41.4442 18.7108 41.5177 18.5157C41.5912 18.3206 41.6057 18.1082 41.5594 17.9048L40.2728 12.2371L44.6361 8.41125C44.7931 8.27416 44.9063 8.09397 44.9617 7.89308C45.0171 7.69218 45.0123 7.47943 44.9478 7.28126Z" fill="#FFC107"/>
</g>
<g clip-path="url(#clip2_42_821)">
<path d="M69.9478 7.28126C69.8839 7.08307 69.763 6.90808 69.6003 6.77811C69.4376 6.64814 69.2402 6.56894 69.0328 6.55038L63.2602 6.02619L60.9776 0.683473C60.8092 0.29194 60.426 0.0385742 60.0001 0.0385742C59.5742 0.0385742 59.1909 0.291979 59.0226 0.68445L56.74 6.02623L50.9665 6.55038C50.7593 6.56936 50.5623 6.64873 50.3998 6.77865C50.2372 6.90857 50.1165 7.08333 50.0523 7.28126C49.9207 7.68627 50.0423 8.13046 50.3632 8.41047L54.7266 12.2371L53.4399 17.9048C53.3457 18.3216 53.5075 18.7524 53.8533 19.0023C54.0391 19.1366 54.2565 19.205 54.4758 19.205C54.6649 19.205 54.8524 19.154 55.0207 19.0533L60.0001 16.0773L64.9776 19.0533C65.3419 19.2724 65.801 19.2524 66.146 19.0023C66.3149 18.88 66.4442 18.7108 66.5177 18.5157C66.5912 18.3206 66.6057 18.1082 66.5594 17.9048L65.2728 12.2371L69.6361 8.41125C69.7931 8.27416 69.9063 8.09397 69.9617 7.89308C70.0171 7.69218 70.0123 7.47943 69.9478 7.28126Z" fill="#FFC107"/>
</g>
<g clip-path="url(#clip3_42_821)">
<path d="M94.9478 7.28126C94.8839 7.08307 94.763 6.90808 94.6003 6.77811C94.4376 6.64814 94.2402 6.56894 94.0328 6.55038L88.2602 6.02619L85.9776 0.683473C85.8092 0.29194 85.426 0.0385742 85.0001 0.0385742C84.5742 0.0385742 84.1909 0.291979 84.0226 0.68445L81.74 6.02623L75.9665 6.55038C75.7593 6.56936 75.5623 6.64873 75.3998 6.77865C75.2372 6.90857 75.1165 7.08333 75.0523 7.28126C74.9207 7.68627 75.0423 8.13046 75.3632 8.41047L79.7266 12.2371L78.4399 17.9048C78.3457 18.3216 78.5075 18.7524 78.8533 19.0023C79.0391 19.1366 79.2565 19.205 79.4758 19.205C79.6649 19.205 79.8524 19.154 80.0207 19.0533L85.0001 16.0773L89.9776 19.0533C90.3419 19.2724 90.801 19.2524 91.146 19.0023C91.3149 18.88 91.4442 18.7108 91.5177 18.5157C91.5912 18.3206 91.6057 18.1082 91.5594 17.9048L90.2728 12.2371L94.6361 8.41125C94.7931 8.27416 94.9063 8.09397 94.9617 7.89308C95.0171 7.69218 95.0123 7.47943 94.9478 7.28126Z" fill="#FFC107"/>
</g>
<g clip-path="url(#clip4_42_821)">
<path d="M119.948 7.28126C119.884 7.08307 119.763 6.90808 119.6 6.77811C119.438 6.64814 119.24 6.56894 119.033 6.55038L113.26 6.02619L110.978 0.683473C110.809 0.29194 110.426 0.0385742 110 0.0385742C109.574 0.0385742 109.191 0.291979 109.023 0.68445L106.74 6.02623L100.966 6.55038C100.759 6.56936 100.562 6.64873 100.4 6.77865C100.237 6.90857 100.116 7.08333 100.052 7.28126C99.9207 7.68627 100.042 8.13046 100.363 8.41047L104.727 12.2371L103.44 17.9048C103.346 18.3216 103.507 18.7524 103.853 19.0023C104.039 19.1366 104.257 19.205 104.476 19.205C104.665 19.205 104.852 19.154 105.021 19.0533L110 16.0773L114.978 19.0533C115.342 19.2724 115.801 19.2524 116.146 19.0023C116.315 18.88 116.444 18.7108 116.518 18.5157C116.591 18.3206 116.606 18.1082 116.559 17.9048L115.273 12.2371L119.636 8.41125C119.793 8.27416 119.906 8.09397 119.962 7.89308C120.017 7.69218 120.012 7.47943 119.948 7.28126Z" fill="#FFC107"/>
</g>
<defs>
<clipPath id="clip0_42_821">
<rect width="20" height="20" fill="white"/>
</clipPath>
<clipPath id="clip1_42_821">
<rect width="20" height="20" fill="white" transform="translate(25)"/>
</clipPath>
<clipPath id="clip2_42_821">
<rect width="20" height="20" fill="white" transform="translate(50)"/>
</clipPath>
<clipPath id="clip3_42_821">
<rect width="20" height="20" fill="white" transform="translate(75)"/>
</clipPath>
<clipPath id="clip4_42_821">
<rect width="20" height="20" fill="white" transform="translate(100)"/>
</clipPath>
</defs>
</svg>
