<svg width="26" height="26" viewBox="0 0 26 26" fill="none" xmlns="http://www.w3.org/2000/svg">
<g id="Frame" clip-path="url(#clip0_131_750)">
<g id="Group">
<path id="Vector" d="M25.8282 12.5835L19.9192 6.67445C19.7069 6.42659 19.3339 6.3977 19.0861 6.61001C18.8382 6.82227 18.8093 7.19531 19.0216 7.44316C19.0414 7.46627 19.0629 7.48785 19.0861 7.5076L23.9846 12.4121H0.59088C0.264566 12.4121 0 12.6766 0 13.003C0 13.3294 0.264566 13.5939 0.59088 13.5939H23.9846L19.0861 18.4924C18.8382 18.7047 18.8093 19.0777 19.0216 19.3256C19.2339 19.5734 19.6069 19.6023 19.8548 19.39C19.8779 19.3702 19.8994 19.3487 19.9192 19.3256L25.8282 13.4166C26.0573 13.1862 26.0573 12.8139 25.8282 12.5835Z" fill="#ED3237"/>
</g>
</g>
<defs>
<clipPath id="clip0_131_750">
<rect width="26" height="26" fill="white"/>
</clipPath>
</defs>
</svg>
