<svg width="102" height="102" viewBox="0 0 102 102" fill="none" xmlns="http://www.w3.org/2000/svg">
<path d="M59.8964 18.5301C56.3568 18.5301 54.7029 17.8243 52.3642 16.6945C50.7314 15.9071 48.8852 15.0143 46.1673 14.5534C45.2982 14.4059 44.7162 13.5842 44.8637 12.7151C45.0112 11.846 45.8328 11.264 46.7019 11.4115C51.5399 12.2332 53.8864 14.1741 56.3094 14.8984C57.3286 15.2039 58.4373 15.3408 59.899 15.3408C63.1094 15.3408 64.1971 14.6798 66.1038 13.7949C68.5136 12.6308 71.8161 11.0454 77.6891 11.0454C78.0209 11.0454 78.3606 11.0507 78.6977 11.0612C79.5774 11.0875 80.27 11.8223 80.2411 12.7046C80.2147 13.5842 79.4799 14.2769 78.5977 14.2479C73.2225 14.082 70.494 15.2539 67.4206 16.6972C65.3005 17.7243 63.6229 18.5301 59.8964 18.5301ZM66.0775 13.8107C66.0748 13.8133 66.0722 13.8133 66.0696 13.816C66.0722 13.8133 66.0748 13.8107 66.0775 13.8107ZM54.3763 27.4344C51.7111 26.8682 49.7938 25.9438 48.2558 25.2011C46.5281 24.3662 45.3878 23.8158 43.0412 23.7026C42.1616 23.6604 41.4847 22.9125 41.5269 22.0329C41.569 21.1532 42.317 20.4764 43.1966 20.5185C48.5929 20.7793 49.7622 23.1943 55.0426 24.3162C56.5359 24.6322 58.1239 24.7876 59.899 24.7876C68.6505 24.7876 69.9805 21.1427 75.7218 20.5817C76.5988 20.4975 77.3783 21.1374 77.4626 22.0118C77.5495 22.8888 76.9069 23.6683 76.0325 23.7526C74.1548 23.937 73.1171 24.4374 71.5422 25.1958C69.8198 26.0281 67.6787 27.0604 64.5368 27.6003C61.4871 28.1244 57.6288 28.1244 54.3763 27.4344ZM89.2375 27.2685C87.3386 26.7971 85.8533 26.1545 84.6497 25.5882C83.8544 25.2143 83.512 24.2635 83.886 23.4682C84.2599 22.6728 85.2107 22.3305 86.006 22.7044C87.1227 23.2285 88.3789 23.771 90.0039 24.174C91.987 24.6665 93.8832 23.1653 93.8832 21.1374C93.8832 19.7021 92.9008 18.4538 91.4919 18.0982C89.9486 17.7085 88.7792 17.0922 87.3518 16.4101C86.5565 16.0308 86.222 15.0801 86.6012 14.2848C86.9805 13.4894 87.9312 13.1549 88.7266 13.5342C90.1066 14.1926 91.0652 14.7035 92.274 15.009C95.0999 15.7227 97.0725 18.2431 97.0725 21.1401C97.0725 25.2011 93.259 28.264 89.2375 27.2685ZM24.3136 27.9743C15.9387 27.9743 13.0469 24.8535 9.72595 24.016C4.6062 22.7255 3.22091 16.1441 7.35043 12.9126C8.89109 11.7064 10.8637 11.2877 12.7599 11.7565C13.5605 11.9566 14.3269 12.1937 15.1038 12.4807C19.0411 13.9398 19.8864 15.3435 24.3109 15.3435C27.3132 15.3435 28.4984 14.772 30.4604 13.8239L30.4657 13.8212C31.8589 13.1497 33.4364 12.3886 35.5881 11.825C36.5994 11.559 37.587 12.3253 37.587 13.3656C37.587 14.1188 37.0629 14.7509 36.3597 14.9168C34.5241 15.4014 33.1651 16.0572 31.851 16.6919C31.8457 16.6945 31.8431 16.6945 31.8457 16.6945C29.6756 17.7427 27.8347 18.6434 23.6393 18.5196C18.0692 18.3616 16.9842 16.0862 11.9935 14.8457C10.0209 14.3559 8.11418 15.8518 8.11418 17.8823C8.11418 19.3176 9.09651 20.5659 10.5055 20.9215C14.5323 21.9407 16.6813 24.785 24.3109 24.785C28.4826 24.785 31.0741 23.8948 32.8675 23.1179C33.6761 22.7676 34.6136 23.139 34.9639 23.9475C35.3142 24.756 34.9428 25.6936 34.1343 26.0439C32.0643 26.9419 29.0725 27.9743 24.3136 27.9743ZM89.2375 48.2611C84.597 47.1102 83.0696 45.2666 79.8802 44.811C79.235 44.7188 78.516 44.6741 77.6864 44.6741C73.3647 44.6741 72.6088 45.9356 68.8059 47.413C67.7656 47.816 66.6358 47.0522 66.6358 45.9277C66.6358 45.235 67.0756 44.6477 67.6919 44.4265C71.2341 43.0412 72.5641 41.4848 77.6864 41.4848C83.8754 41.4848 84.813 43.8787 90.0039 45.1666C91.9949 45.659 93.8832 44.15 93.8832 42.13C93.8832 40.6947 92.9008 39.4463 91.4919 39.0908C87.5072 38.0848 85.3819 35.2431 77.7391 35.2273H77.6864C73.3041 35.2273 70.6389 36.1833 68.4135 37.2183C67.6155 37.5896 66.6674 37.242 66.296 36.444C65.9247 35.646 66.2723 34.6979 67.0703 34.3266C69.5064 33.1968 72.672 32.0406 77.6864 32.0406H77.7417C86.064 32.0564 88.9715 35.1667 92.2714 35.9989C95.0973 36.7126 97.0699 39.233 97.0699 42.13C97.0725 46.1937 93.259 49.2566 89.2375 48.2611ZM24.0686 47.4157C24.0291 46.536 24.7086 45.7907 25.5882 45.7512C31.7614 45.4721 34.0843 43.2177 37.2604 42.1669C38.6878 41.6954 40.1811 41.4848 42.1036 41.4848C45.7117 41.4848 47.3735 42.2301 49.6384 43.3204C51.7216 44.3264 54.0787 45.4642 58.1371 45.7249C59.0167 45.7802 59.683 46.5387 59.6251 47.4183C59.5698 48.2979 58.8113 48.9642 57.9317 48.9063C53.5098 48.6219 50.8657 47.4525 48.2294 46.1831C46.3069 45.2561 45.1086 44.6741 42.101 44.6741C39.125 44.6741 37.932 45.2377 35.9541 46.1937C33.6287 47.3156 30.7396 48.7114 25.7304 48.9379C24.8666 48.9774 24.1108 48.3032 24.0686 47.4157ZM58.3294 39.4674C53.0569 39.0776 51.7295 36.3703 45.7538 35.4801C42.9859 35.0666 39.2883 35.1061 36.2096 35.9489C31.901 37.1261 30.5105 39.0908 26.0043 39.4569C25.1273 39.528 24.3583 38.8748 24.2872 37.9979C24.2161 37.1209 24.8692 36.3518 25.7462 36.2807C29.4544 35.9805 30.7448 34.1396 35.3668 32.8755C37.4237 32.3145 39.628 32.0406 42.101 32.0406C47.4683 32.0406 50.576 33.2863 53.7416 34.8164C55.3902 35.6118 56.4753 36.1359 58.5585 36.2886C59.4355 36.3545 60.0965 37.1182 60.0307 37.9952C59.9727 38.8696 59.2143 39.5332 58.3294 39.4674ZM15.6279 47.4973C13.0417 46.5229 11.6037 45.48 9.72858 45.0059C6.90271 44.2922 4.93013 41.7718 4.93013 38.8748C4.93013 34.7664 8.78575 31.7588 12.7651 32.7438C13.7132 32.9782 14.6297 33.2731 15.5647 33.6445C16.3837 33.9684 16.784 34.8954 16.4601 35.7119C16.1362 36.5309 15.2091 36.9312 14.3927 36.6073C13.5895 36.2886 12.8073 36.0384 11.9988 35.8383C10.0235 35.3484 8.11944 36.8443 8.11944 38.8748C8.11944 40.3102 9.10178 41.5585 10.5108 41.914C12.8046 42.4934 14.3163 43.5917 16.7551 44.5134C17.5794 44.8242 17.9955 45.7433 17.6847 46.5676C17.3687 47.3946 16.4496 47.8081 15.6279 47.4973ZM89.2375 69.251C88.292 69.0166 87.3755 68.7243 86.438 68.3529C85.6189 68.029 85.2186 67.1046 85.5425 66.2855C85.8665 65.4665 86.7909 65.0662 87.6099 65.3901C88.4158 65.7088 89.198 65.959 90.0039 66.1591C90.2567 66.2223 90.5122 66.2539 90.765 66.2539C92.4847 66.2539 93.8832 64.8502 93.8832 63.1226C93.8832 61.6872 92.9008 60.4389 91.4919 60.0834C89.1953 59.504 87.6889 58.4057 85.2476 57.484C84.4232 57.1732 84.0071 56.2541 84.3179 55.4298C84.6287 54.6054 85.5478 54.1893 86.3721 54.5001C88.9241 55.4614 90.4121 56.5201 92.274 56.9915C95.0999 57.7052 97.0725 60.2256 97.0725 63.1226C97.0725 67.1862 93.259 70.2491 89.2375 69.251ZM59.8964 69.9594C54.529 69.9594 51.4266 68.7137 48.2558 67.1836C46.6124 66.3909 45.5273 65.8668 43.4494 65.7114C42.6172 65.6561 41.9614 64.9661 41.9614 64.1207C41.9614 63.1937 42.7489 62.4641 43.6733 62.5326C46.3648 62.7328 47.8844 63.4649 49.6437 64.3156C52.4064 65.6508 55.0426 66.7728 59.899 66.7728C62.0849 66.7728 64.0153 66.5357 65.793 66.0511C70.1069 64.8739 71.4922 62.9092 75.9957 62.5432C76.8727 62.4721 77.6417 63.1252 77.7128 64.0022C77.7839 64.8792 77.1307 65.6482 76.2537 65.7193C72.5324 66.0222 71.2762 67.8552 66.6332 69.1246C64.5737 69.6855 62.3693 69.9594 59.8964 69.9594ZM59.8964 60.5153C57.5709 60.5153 55.8959 60.215 54.1129 59.4829C51.5004 58.4084 49.0985 56.6123 43.8603 56.2752C42.9806 56.2198 42.3143 55.4614 42.3723 54.5817C42.4276 53.7021 43.1861 53.0384 44.0657 53.0937C49.9913 53.473 52.8751 55.5246 55.327 56.5332C56.4832 57.0099 57.7026 57.326 59.8964 57.326C62.8671 57.326 64.0627 56.765 66.0353 55.8116L66.0459 55.8064C68.3687 54.6844 71.2578 53.2913 76.2643 53.0621C77.1439 53.0226 77.8892 53.7021 77.9287 54.5817C77.9682 55.4614 77.2888 56.2067 76.4091 56.2462C72.2796 56.4332 69.9252 57.4708 67.418 58.6823C66.5304 59.1116 65.6929 59.5145 64.7343 59.8305C63.3095 60.3046 61.8163 60.5153 59.8964 60.5153ZM24.3136 69.9594H24.2583C15.9545 69.9463 13.0022 66.8254 9.72858 66.0011C6.90271 65.2874 4.93013 62.767 4.93013 59.87C4.93013 55.7695 8.77785 52.7514 12.7651 53.739C17.3924 54.8846 18.9383 56.7334 22.1224 57.189C22.7703 57.2812 23.4866 57.326 24.3162 57.326C28.638 57.326 29.378 56.0697 33.1941 54.587C34.0158 54.2683 34.9376 54.6739 35.2562 55.4956C35.5749 56.3173 35.1693 57.2391 34.3476 57.5577C30.7738 58.9456 29.4544 60.5126 24.3136 60.5126C18.0903 60.5126 17.2318 58.1292 11.9961 56.8308C11.0559 56.5991 10.0789 56.8071 9.31774 57.4023C7.27668 58.9983 7.94826 62.2587 10.5081 62.9066C14.4796 63.9074 16.6234 66.7543 24.2609 66.7701H24.3136C28.6959 66.7701 31.3611 65.8141 33.5865 64.7791C34.3845 64.4078 35.3326 64.7554 35.7039 65.5534C36.0753 66.3514 35.7277 67.2995 34.9297 67.6708C32.4936 68.8033 29.328 69.9594 24.3136 69.9594ZM89.2375 90.2436C88.4395 90.046 87.6389 89.7985 86.8936 89.5193C82.8641 88.0234 82.1373 86.6566 77.6864 86.6566C74.6841 86.6566 73.499 87.2281 71.5369 88.1762C70.2122 88.8161 68.5636 89.6115 66.4067 90.1751C65.3953 90.4384 64.4104 89.6747 64.4104 88.6344C64.4104 87.8812 64.9345 87.2491 65.6376 87.0832C70.8048 85.719 71.7081 83.2855 78.358 83.4804C83.8939 83.6384 85.0869 85.9323 90.0039 87.1543C91.9949 87.6468 93.8832 86.1377 93.8832 84.1178C93.8832 82.6824 92.9008 81.4341 91.4919 81.0786C87.5204 80.0752 85.3371 77.215 77.6864 77.215C73.5122 77.215 70.9207 78.1078 69.1298 78.8821C68.3213 79.2324 67.3837 78.8611 67.0335 78.0552C66.6832 77.2467 67.0545 76.3091 67.8604 75.9588C69.9331 75.0607 72.9249 74.0284 77.6864 74.0284C86.0245 74.0284 88.9741 77.1545 92.2714 77.9867C95.0973 78.7004 97.0699 81.2208 97.0699 84.1178C97.0725 88.1788 93.259 91.2417 89.2375 90.2436ZM24.3136 90.952C23.9738 90.952 23.6314 90.9467 23.2996 90.9362C22.42 90.9072 21.73 90.1698 21.7589 89.2902C21.7879 88.4106 22.5227 87.7205 23.405 87.7495C23.7026 87.76 24.0081 87.7653 24.3136 87.7653C29.4728 87.7653 32.2802 86.4116 34.5346 85.324L34.5478 85.3187C37.1603 84.0124 38.917 83.4725 42.1063 83.4725C45.7328 83.4725 47.4156 84.2336 49.6358 85.3055C51.6663 86.2852 53.3413 87.0253 55.8353 87.4466C56.7044 87.5941 57.2864 88.4158 57.139 89.2849C56.9915 90.154 56.1698 90.736 55.3007 90.5886C50.468 89.7695 48.1109 87.8233 45.6959 87.099C44.6767 86.7935 43.5679 86.6566 42.1063 86.6566C39.0355 86.6566 37.9188 87.2491 35.9225 88.192C33.5075 89.356 30.2023 90.952 24.3136 90.952ZM58.806 81.4815C55.8116 81.3367 54.213 80.565 52.3616 79.6722C50.8999 78.9664 49.2486 78.1711 46.96 77.6838C45.4668 77.3678 43.8787 77.2124 42.1036 77.2124C33.3548 77.2124 32.0222 80.8573 26.2782 81.4183C25.4012 81.5052 24.6217 80.8626 24.5374 79.9882C24.4505 79.1113 25.0931 78.3317 25.9675 78.2474C27.8479 78.0631 28.8855 77.5627 30.4604 76.8016C32.1828 75.9693 34.3239 74.937 37.4632 74.3997C40.4919 73.8783 44.3554 73.873 47.6211 74.5683C50.2863 75.1345 52.2036 76.0589 53.7416 76.8016C55.4719 77.6364 56.6122 78.1869 58.9562 78.3001C59.8358 78.3422 60.5126 79.0902 60.4705 79.9698C60.4336 80.8415 59.6909 81.5236 58.806 81.4815ZM13.2734 88.4659C11.8908 87.8048 10.9348 87.2992 9.72595 86.9937C6.90008 86.28 4.9275 83.7596 4.9275 80.8626C4.9275 76.7621 8.77521 73.7439 12.7625 74.7315C14.6613 75.203 16.1467 75.8456 17.3503 76.4118C18.1456 76.7858 18.488 77.7365 18.114 78.5319C17.74 79.3272 16.7893 79.6696 15.994 79.2956C14.8773 78.7715 13.6211 78.229 11.9961 77.826C10.0235 77.3362 8.11681 78.8321 8.11681 80.8626C8.11681 82.2979 9.09915 83.5463 10.5081 83.9018C12.0488 84.2916 13.2129 84.9026 14.6482 85.5899C15.4435 85.9692 15.778 86.9199 15.3988 87.7153C15.0195 88.508 14.0688 88.8425 13.2734 88.4659Z" fill="#ED3237"/>
<path d="M17.6268 97.4175C13.5026 97.4175 10.466 93.5487 11.4615 89.5377C12.0383 87.2123 12.773 85.7427 13.5447 84.0967C14.5007 82.1162 15.0775 80.9232 15.0775 77.8919V77.8498C15.0722 74.8501 14.4981 73.6597 13.5447 71.6871C12.8336 70.2175 11.9514 68.3872 11.3772 65.8931C11.1481 64.895 11.9066 63.9416 12.9311 63.9416C13.7001 63.9416 14.3427 64.4868 14.4928 65.211C15.7727 70.7206 18.2562 71.479 18.2668 77.8445V77.8893C18.2668 84.1546 15.8491 85.0843 14.5586 90.2989C14.0635 92.2925 15.5726 94.2229 17.6294 94.2229C19.0806 94.2229 20.3447 93.2274 20.7055 91.8027C21.7194 87.7785 24.598 85.64 24.598 77.8866C24.598 73.607 23.692 70.9944 22.8045 69.0061C22.4463 68.2028 22.8071 67.26 23.6104 66.9018C24.4136 66.5436 25.3565 66.9044 25.7146 67.7077C26.6785 69.8699 27.782 72.9802 27.782 77.884C27.782 86.4222 24.6533 89.1664 23.7921 92.5796C23.0758 95.4318 20.5396 97.4175 17.6268 97.4175ZM12.4438 56.9441C11.5774 56.7887 11.0033 55.9591 11.1586 55.0927C12.0198 50.3179 13.9503 48.0214 14.6587 45.5642C14.9458 44.574 15.0775 43.4521 15.0775 42.0326C15.0775 39.1777 14.5929 37.9636 13.5394 35.8199C12.2937 33.2389 10.5792 29.6493 10.761 23.2391C10.7847 22.3594 11.5194 21.6642 12.3991 21.6905C13.2787 21.7142 13.9713 22.449 13.9476 23.3286C13.8133 28.135 14.6903 30.8845 16.4153 34.4451C17.4477 36.5836 18.2641 38.2744 18.2641 42.0352C18.2641 48.7772 15.4146 49.462 14.2953 55.6615C14.1399 56.5227 13.3129 57.1021 12.4438 56.9441ZM21.8011 60.3573C20.9215 60.3072 20.2525 59.5514 20.3026 58.6744C20.6054 53.4598 22.9836 52.1746 24.1029 47.0048C24.7191 44.1632 24.7244 40.7447 24.303 38.1216C23.8474 35.28 22.9283 33.3759 22.1171 31.6956L22.1145 31.6877C21.3428 30.0865 20.6739 28.7038 20.4 26.481C20.292 25.6067 20.9136 24.8113 21.7879 24.7034C22.6623 24.5954 23.4576 25.2169 23.5656 26.0913C23.7763 27.7926 24.2846 28.846 24.9878 30.3024C24.9904 30.3077 24.993 30.313 24.9904 30.3103C25.8516 32.0933 26.9235 34.3134 27.4528 37.616C27.9374 40.6341 27.9216 44.4476 27.2211 47.679C26.6496 50.3206 25.7278 52.2273 24.9878 53.7601C24.1634 55.4719 23.6183 56.5991 23.4866 58.8587C23.4339 59.7331 22.686 60.4073 21.8011 60.3573ZM22.9967 18.3642C22.204 17.9824 21.8696 17.029 22.2514 16.2363C22.9046 14.88 23.5261 13.5131 23.9791 11.6933C24.4768 9.6812 22.9546 7.7692 20.9083 7.7692C19.4572 7.7692 18.193 8.7647 17.8322 10.1895C17.4056 11.8776 16.705 13.1312 15.9966 14.6482C15.6226 15.4462 14.6745 15.7886 13.8792 15.4172C13.0812 15.0432 12.7362 14.0951 13.1101 13.2998C13.8239 11.7723 14.4059 10.7425 14.743 9.40994C15.4567 6.56827 17.9902 4.58252 20.9057 4.58252C24.993 4.58252 28.0717 8.41707 27.071 12.4597C26.5469 14.5745 25.82 16.1678 25.1221 17.6189C24.7428 18.4116 23.7895 18.7461 22.9967 18.3642ZM34.3503 35.0956C32.7648 31.7483 31.9063 28.6037 31.9063 24.1055C31.9063 15.5831 35.0324 12.8257 35.8962 9.40994C36.6125 6.56827 39.1487 4.58252 42.0615 4.58252C45.5642 4.58252 48.4164 7.42683 48.4164 10.9243C48.4164 11.8329 48.2294 12.5439 47.9608 13.442C46.4807 18.4143 44.6135 19.0858 44.6135 24.1055C44.6135 28.5932 45.983 29.3227 47.4868 33.3495C47.7949 34.1738 47.3761 35.093 46.5518 35.4011C45.7275 35.7092 44.8084 35.2905 44.5002 34.4662C43.0991 30.7133 41.4268 29.4228 41.4268 24.1082C41.4268 18.2194 43.5337 17.1422 44.9084 12.5334C45.1639 11.6801 45.2324 11.3351 45.2324 10.9269C45.2324 9.18872 43.8129 7.77183 42.0641 7.77183C40.613 7.77183 39.3489 8.76734 38.9881 10.1921C37.9636 14.2479 35.0956 16.3232 35.0956 24.1082C35.0956 28.1165 35.8356 30.7817 37.2314 33.7367C37.6081 34.532 37.2683 35.4827 36.473 35.8594C35.675 36.2307 34.7269 35.891 34.3503 35.0956ZM36.1517 76.1353C35.9594 74.2944 35.459 73.2594 34.7032 71.6924C34.0711 70.3861 33.2863 68.7585 32.7201 66.6411C32.1749 64.6 31.9089 62.4141 31.9089 59.9649C31.9089 54.5607 33.1599 51.4346 34.7058 48.2374C35.488 46.6151 36.0068 45.5432 36.178 43.5443C36.2544 42.6673 37.0234 42.0168 37.903 42.0931C38.78 42.1695 39.4305 42.9412 39.3541 43.8181C39.1329 46.4017 38.4113 47.895 37.5765 49.6253C36.2965 52.2747 35.0982 54.9689 35.0982 59.9649C35.0982 68.7506 38.73 70.1254 39.3252 75.8034C39.4173 76.6778 38.7826 77.4626 37.9057 77.5548C37.0234 77.6443 36.2412 77.007 36.1517 76.1353ZM45.7012 76.2222C45.3351 70.1412 43.0491 67.892 42.0299 64.5895C41.6164 63.2437 41.4242 61.7742 41.4242 59.9649C41.4242 56.3937 42.1431 54.7134 43.273 52.3748C44.279 50.2916 45.4167 47.9319 45.6906 43.884C45.7486 43.007 46.5097 42.3407 47.3893 42.4013C48.2663 42.4592 48.9326 43.2203 48.872 44.0999C48.4744 49.9782 46.4386 52.8831 45.4352 55.2981C44.94 56.4832 44.6135 57.7315 44.6135 59.9649C44.6135 61.2369 44.7083 62.4457 45.0796 63.6546C45.9461 66.4752 48.4796 69.2852 48.8852 76.0299C48.9379 76.9095 48.2689 77.6628 47.3893 77.7181C46.4886 77.7655 45.7538 77.0834 45.7012 76.2222ZM38.7826 97.4175C34.6584 97.4175 31.6245 93.5487 32.6174 89.5377C32.8991 88.3974 33.2731 87.2834 33.763 86.1325C34.108 85.3213 35.0429 84.9447 35.8514 85.2871C36.6626 85.6295 37.0392 86.567 36.6968 87.3755C36.2702 88.3842 35.9568 89.3139 35.7119 90.3015C35.2167 92.2978 36.7284 94.2256 38.7826 94.2256C40.2338 94.2256 41.4979 93.2301 41.8587 91.8053C42.4776 89.3508 43.6996 87.768 44.6477 85.0422C44.9374 84.2099 45.846 83.7701 46.6756 84.0598C47.5078 84.3495 47.9476 85.2581 47.6579 86.0877C47.176 87.473 46.6282 88.6107 46.1436 89.6115C45.6222 90.6913 45.2113 91.5419 44.9479 92.5822C44.2316 95.4318 41.6981 97.4175 38.7826 97.4175ZM55.3244 17.9323C54.4922 17.6426 54.0524 16.734 54.3421 15.9044C55.3481 13.0127 56.5438 11.4194 57.0494 9.40994C57.7658 6.56827 60.3019 4.58252 63.2147 4.58252C67.3021 4.58252 70.3808 8.41707 69.38 12.4597C69.0982 13.6 68.7242 14.714 68.2344 15.8649C67.9842 16.4549 67.4074 16.8367 66.7675 16.8367C65.5981 16.8367 64.8397 15.6226 65.3163 14.5797C65.7351 13.5869 66.0432 12.6677 66.2855 11.6933C66.7859 9.6733 65.2531 7.7692 63.2147 7.7692C61.7636 7.7692 60.4995 8.7647 60.1386 10.1895C59.5197 12.6414 58.2978 14.2295 57.3497 16.9526C57.0626 17.7848 56.154 18.222 55.3244 17.9323ZM54.6107 59.5988C53.7337 59.5408 53.0674 58.7797 53.128 57.9027C53.5204 52.064 55.5351 49.1749 56.5648 46.7046C57.06 45.5168 57.3892 44.2711 57.3892 42.0378C57.3892 39.1171 56.8703 37.932 55.8564 35.8357C54.7634 33.5707 53.4045 30.7554 53.1148 25.9728C53.0621 25.0931 53.7311 24.3399 54.6107 24.2846C55.4877 24.2319 56.2435 24.9009 56.2988 25.7805C56.6675 31.8668 58.9614 34.1264 59.9701 37.4132C60.3836 38.759 60.5758 40.2259 60.5758 42.0378C60.5758 45.7723 59.8015 47.313 58.727 49.6253C57.721 51.7111 56.5806 54.0708 56.3094 58.1187C56.2514 58.9904 55.4956 59.6567 54.6107 59.5988ZM64.2392 59.9148C64.1944 59.9148 64.147 59.9122 64.1022 59.9096C63.2253 59.8332 62.5747 59.0615 62.6511 58.1845C62.8723 55.601 63.594 54.1077 64.4288 52.3774C65.6771 49.7938 66.907 47.068 66.907 42.0352C66.907 33.2389 63.2753 31.8931 62.6801 26.1992C62.5879 25.3249 63.2252 24.5401 64.0996 24.4479C64.974 24.3557 65.7588 24.9931 65.851 25.8674C66.217 29.3622 68.0553 30.7712 69.2826 35.3616C70.2149 38.8485 70.2807 42.9596 69.8067 46.1594C69.3431 49.3435 68.3766 51.5267 67.2968 53.7601C66.512 55.385 65.9958 56.4569 65.8246 58.4558C65.7535 59.2854 65.0582 59.9148 64.2392 59.9148ZM54.9346 94.9788C53.7232 93.4302 53.2991 91.4471 53.7732 89.5377C54.3026 87.4045 55.0005 85.8717 55.8511 84.1099C56.8414 82.0504 57.3892 80.8942 57.3892 77.8945C57.3892 73.4042 56.0276 72.6958 54.5185 68.6532C54.2104 67.8288 54.6291 66.9097 55.4534 66.6016C56.2778 66.2934 57.1969 66.7122 57.505 67.5365C57.8895 68.5689 58.3162 69.4511 58.7297 70.3044C59.762 72.4429 60.5785 74.1337 60.5785 77.8945C60.5785 84.1099 58.1555 85.1264 56.8677 90.3068C56.6333 91.2575 56.844 92.2451 57.4471 93.0168C59.0615 95.0815 62.3614 94.402 63.0146 91.8132C64.0417 87.739 66.907 85.7058 66.907 77.8972C66.907 77.7339 66.907 77.5864 66.9044 77.4494C66.8359 72.996 65.7693 70.3755 64.7712 68.2713C64.3946 67.4759 64.7343 66.5252 65.5297 66.1486C66.325 65.772 67.2758 66.1117 67.6524 66.9071C69.2404 70.2623 70.0937 73.4068 70.0937 77.8972C70.0937 86.3221 66.9439 89.2691 66.1038 92.5927C64.8028 97.7467 58.1819 99.1294 54.9346 94.9788ZM87.5177 36.818C86.2562 31.3427 83.7464 30.4947 83.7359 24.1503V24.1055C83.7359 17.8454 86.143 16.9421 87.4466 11.6959C87.9417 9.69964 86.4301 7.77183 84.3758 7.77183C82.9247 7.77183 81.6606 8.76734 81.2998 10.1921C80.2832 14.2216 77.4073 16.3548 77.4073 24.1082C77.4073 28.3878 78.3132 31.0003 79.2008 32.9887C79.5589 33.792 79.1981 34.7348 78.3949 35.093C77.5916 35.4511 76.6488 35.0903 76.2906 34.2871C75.3267 32.1249 74.2206 29.0146 74.2206 24.1082C74.2206 23.4076 74.2417 22.7202 74.2864 22.0645C74.7473 15.167 77.4362 12.4781 78.2079 9.41257C78.9242 6.56563 81.4578 4.58252 84.3706 4.58252C88.5027 4.58252 91.5287 8.4592 90.5359 12.4623C90.2751 13.5131 89.9407 14.5323 89.5114 15.5779C88.0471 19.1491 86.9199 19.9444 86.9199 24.1055V24.1477C86.9252 27.1474 87.4993 28.3377 88.4527 30.3077C89.1637 31.7825 90.0486 33.6129 90.6228 36.1017C90.8203 36.9602 90.2857 37.8161 89.4271 38.0137C88.5712 38.2112 87.7153 37.6766 87.5177 36.818ZM78.4344 75.9061C78.2263 74.2022 77.7154 73.1487 77.0122 71.6924C76.151 69.9068 75.0765 67.6866 74.5472 64.3814C74.0679 61.387 74.0731 57.5656 74.7789 54.3184C75.3504 51.6769 76.2696 49.7701 77.0096 48.2374C77.8366 46.5281 78.3791 45.3983 78.5134 43.1387C78.5634 42.259 79.3193 41.5901 80.1963 41.6401C81.0759 41.6902 81.7448 42.446 81.6948 43.323C81.3893 48.5376 79.0138 49.8175 77.8945 54.9926C77.2861 57.8053 77.2703 61.2211 77.6943 63.8758C78.5819 69.4143 81.0364 70.9549 81.5974 75.5164C81.7053 76.3907 81.0838 77.1861 80.2094 77.2914C79.3404 77.402 78.5424 76.7805 78.4344 75.9061ZM89.6009 80.3069C88.7213 80.2832 88.0287 79.5484 88.0524 78.6688C88.1867 73.9099 87.3386 71.2104 85.5794 67.5418C84.547 65.4059 83.7359 63.7151 83.7359 59.9622C83.7359 53.2096 86.5828 52.546 87.7047 46.3385C87.8601 45.4721 88.6897 44.8979 89.5562 45.0533C90.4226 45.2087 90.9967 46.0383 90.8414 46.9047C89.9854 51.6505 88.0497 53.9734 87.3413 56.4332C87.0568 57.4234 86.9225 58.5453 86.9225 59.9622C86.9225 63.0699 87.523 64.1918 88.4632 66.1855C89.7352 68.8191 91.4155 72.3876 91.2364 78.7583C91.2127 79.638 90.4806 80.3306 89.6009 80.3069ZM88.45 66.1591C88.45 66.1618 88.45 66.1618 88.45 66.1591V66.1591ZM81.0943 97.4175C76.9701 97.4175 73.9362 93.5487 74.929 89.5377C75.4531 87.4256 76.1774 85.8322 76.8779 84.3785C77.2598 83.5858 78.2132 83.2513 79.0059 83.6332C79.7986 84.0151 80.1331 84.9658 79.7512 85.7611C79.0981 87.1174 78.4765 88.4843 78.0235 90.3041C77.5284 92.3004 79.0428 94.2282 81.0943 94.2282C82.5455 94.2282 83.8096 93.2327 84.1704 91.8079C84.5997 90.1092 85.3029 88.8583 86.006 87.3492C86.2668 86.7882 86.8304 86.4274 87.4519 86.4274C88.3315 86.4274 89.0452 87.1412 89.0452 88.0208C89.0452 88.3816 88.9741 88.5844 88.4579 89.6141C87.9365 90.6913 87.5256 91.5419 87.2623 92.5848C86.5433 95.4318 84.0071 97.4175 81.0943 97.4175Z" fill="#ED3237"/>
<line x1="30.9615" y1="73.7253" x2="32.9615" y2="80.7253" stroke="#F6FBFF" stroke-width="2"/>
<line x1="59.9615" y1="55.7253" x2="61.9615" y2="62.7253" stroke="#F6FBFF" stroke-width="2"/>
<line x1="40.9615" y1="40.7253" x2="42.9615" y2="47.7253" stroke="#F6FBFF" stroke-width="2"/>
<line x1="58.9615" y1="23.7253" x2="60.9615" y2="30.7253" stroke="#F6FBFF" stroke-width="2"/>
<line x1="71.9615" y1="8.72528" x2="73.9615" y2="15.7253" stroke="#F6FBFF" stroke-width="2"/>
<line x1="97.2399" y1="38.9528" x2="90.3037" y2="41.1641" stroke="#F6FBFF" stroke-width="2"/>
<line x1="18.2399" y1="48.9528" x2="11.3037" y2="51.1641" stroke="#F6FBFF" stroke-width="2"/>
</svg>
