<svg width="102" height="102" viewBox="0 0 102 102" fill="none" xmlns="http://www.w3.org/2000/svg">
<g clip-path="url(#clip0_12_428)">
<path d="M22.6113 1.50488H100.506V13.6393H1.49414V1.50488H19.623M15.1406 13.6393V91.3442M15.1406 91.3442H86.8594M15.1406 91.3442V101.989M86.8594 91.3442V13.6393M86.8594 91.3442V101.989M24.1055 91.3442V101.989M33.0703 91.3442V101.989M42.0352 91.3442V101.989M51 91.3442V101.989M59.9648 91.3442V101.989M68.9297 91.3442V101.989M77.8945 91.3442V101.989" stroke="#ED3237" stroke-width="2.98828" stroke-miterlimit="10"/>
<path d="M37.6989 33.2813L41.9249 37.5075L37.6988 41.7334L33.4728 37.5073L37.6989 33.2813Z" stroke="#ED3237" stroke-width="2.98828" stroke-miterlimit="10"/>
<path d="M37.699 24.8292L50.377 37.5076L37.6986 50.1856L25.0206 37.5071L37.699 24.8292Z" stroke="#ED3237" stroke-width="2.98828" stroke-miterlimit="10"/>
<path d="M64.3942 33.2811L68.6202 37.5073L64.394 41.7333L60.168 37.5071L64.3942 33.2811Z" stroke="#ED3237" stroke-width="2.98828" stroke-miterlimit="10"/>
<path d="M87.2453 37.5078L83.019 41.7339L78.793 37.5078L83.019 33.2816L87.2453 37.5078ZM15.1406 37.5078L19.3667 41.7339L23.5927 37.5078L19.3667 33.2816L15.1406 37.5078Z" stroke="#ED3237" stroke-width="2.98828" stroke-miterlimit="10"/>
<path d="M51.0125 21.3282L55.2385 25.5543L51.0124 29.7803L46.7864 25.5542L51.0125 21.3282Z" stroke="#ED3237" stroke-width="2.98828" stroke-miterlimit="10"/>
<path d="M51.0128 45.2343L55.2388 49.4604L51.0126 53.6864L46.7866 49.4602L51.0128 45.2343Z" stroke="#ED3237" stroke-width="2.98828" stroke-miterlimit="10"/>
<path d="M64.3943 24.829L77.0722 37.5074L64.3938 50.1854L51.7158 37.507L64.3943 24.829Z" stroke="#ED3237" stroke-width="2.98828" stroke-miterlimit="10"/>
<path d="M73.4121 61.493H86.8594M15.1406 61.493H70.4238M33.0703 67.4536V85.3833H21.1172V79.4067H27.0938V73.4302H15.1406V67.4536H33.0703ZM33.0703 67.4536H51M33.0703 67.4536V73.4302H45.0234V79.4067H39.0469V85.3833H51V67.4536M51 67.4536H68.9297M51 67.4536V73.4302H62.9531V79.4067H56.9766V85.3833H68.9297V67.4536M68.9297 67.4536H86.8594V85.3833H74.9062V79.4067H80.8828V73.4302H68.9297V67.4536ZM21.1172 18.1185V21.1068M27.0938 18.1185V21.1068" stroke="#ED3237" stroke-width="2.98828" stroke-miterlimit="10"/>
</g>
<defs>
<clipPath id="clip0_12_428">
<rect width="102" height="102" fill="white"/>
</clipPath>
</defs>
</svg>
