<svg width="102" height="102" viewBox="0 0 102 102" fill="none" xmlns="http://www.w3.org/2000/svg">
<path d="M24.6314 43.623V35.1203M24.6314 57.9189V48.9282M24.6314 19.0792V13.4533M51 43.623V35.1203M51 57.9189V48.9282M51 19.0792V13.4533M77.3686 43.623V35.1203M77.3686 57.9189V48.9282M77.3686 19.0792V13.4533M43.2325 48.9282H85.3274C85.7238 48.9282 86.0804 49.1653 86.2338 49.5318L89.748 57.9189M12.252 57.9189L15.7662 49.5318C15.8408 49.3529 15.9667 49.2002 16.128 49.0927C16.2893 48.9853 16.4788 48.9281 16.6726 48.9282H36.2598" stroke="#ED3237" stroke-width="2.98828" stroke-miterlimit="10" stroke-linecap="round" stroke-linejoin="round"/>
<path d="M6.49852 57.9188L11.8077 45.2505C12.2201 44.2643 13.1843 43.6229 14.2541 43.6229H87.7459C88.8157 43.6229 89.7799 44.2643 90.1923 45.2505L95.5015 57.9188M16.2124 72.5156H3.48633C2.38664 72.5156 1.49414 71.6231 1.49414 70.5234V59.911C1.49414 58.8113 2.38664 57.9188 3.48633 57.9188H98.5137C99.6134 57.9188 100.506 58.8113 100.506 59.911V70.5234C100.506 71.6231 99.6134 72.5156 98.5137 72.5156H85.7876" stroke="#ED3237" stroke-width="2.98828" stroke-miterlimit="10" stroke-linecap="round" stroke-linejoin="round"/>
<path d="M16.213 57.9185V93.7573C16.213 94.0215 16.318 94.2749 16.5048 94.4617C16.6916 94.6485 16.9449 94.7534 17.2091 94.7534H62.5142M69.4869 94.7534H84.7907C85.0549 94.7534 85.3082 94.6485 85.495 94.4617C85.6818 94.2749 85.7868 94.0215 85.7868 93.7573V57.9185M3.75806 13.454H98.2419M98.2419 7.24658H3.75806M20.4229 19.7581L16.2889 33.9606C16.12 34.5407 16.5551 35.1205 17.1593 35.1205H32.1037C32.7079 35.1205 33.1428 34.5407 32.9741 33.9606L28.8401 19.7581C28.783 19.562 28.6638 19.3898 28.5005 19.2672C28.3372 19.1447 28.1385 19.0784 27.9342 19.0784H21.329C21.1247 19.0784 20.926 19.1446 20.7626 19.2672C20.5992 19.3898 20.48 19.562 20.4229 19.7581ZM46.7915 19.7581L42.6575 33.9606C42.4886 34.5407 42.9237 35.1205 43.5279 35.1205H58.4723C59.0765 35.1205 59.5114 34.5407 59.3427 33.9606L55.2087 19.7581C55.1516 19.562 55.0324 19.3898 54.8691 19.2672C54.7057 19.1447 54.5071 19.0784 54.3028 19.0784H47.6975C47.4933 19.0783 47.2945 19.1445 47.1311 19.2671C46.9678 19.3897 46.8486 19.562 46.7915 19.7581ZM73.1599 19.7581L69.0259 33.9606C68.857 34.5407 69.2921 35.1205 69.8963 35.1205H84.8407C85.4449 35.1205 85.8798 34.5407 85.7111 33.9606L81.5771 19.7581C81.52 19.562 81.4008 19.3898 81.2375 19.2672C81.0741 19.1447 80.8754 19.0784 80.6712 19.0784H74.0659C73.8617 19.0784 73.663 19.1446 73.4996 19.2672C73.3362 19.3898 73.217 19.562 73.1599 19.7581Z" stroke="#ED3237" stroke-width="2.98828" stroke-miterlimit="10" stroke-linecap="round" stroke-linejoin="round"/>
<path d="M16.213 81.8104L24.4294 86.3279C24.7282 86.4922 25.0904 86.4922 25.3892 86.3279L33.1247 82.0744C33.2717 81.9935 33.4368 81.9511 33.6046 81.9511C33.7724 81.9511 33.9375 81.9935 34.0845 82.0744L41.8212 86.3279C42.12 86.4922 42.4822 86.4922 42.781 86.3279L50.5177 82.0744C50.6647 81.9935 50.8298 81.9511 50.9976 81.9511C51.1654 81.9511 51.3305 81.9935 51.4775 82.0744L59.2146 86.3279C59.5134 86.4922 59.8756 86.4922 60.1744 86.3279L67.9113 82.0744C68.0583 81.9935 68.2233 81.9511 68.3911 81.9511C68.5589 81.9511 68.7239 81.9935 68.8709 82.0744L76.609 86.3281C76.9078 86.4922 77.2698 86.4922 77.5686 86.3281L85.7866 81.8106M85.787 75.7241L77.569 80.2416C77.422 80.3223 77.2569 80.3647 77.0892 80.3647C76.9214 80.3647 76.7564 80.3223 76.6094 80.2416L68.8713 75.9878C68.7243 75.907 68.5593 75.8647 68.3915 75.8647C68.2237 75.8647 68.0587 75.907 67.9117 75.9878L60.1748 80.2414C60.0278 80.3222 59.8627 80.3646 59.6949 80.3646C59.5271 80.3646 59.362 80.3222 59.215 80.2414L51.4779 75.9878C51.3309 75.907 51.1658 75.8646 50.998 75.8646C50.8302 75.8646 50.6651 75.907 50.5181 75.9878L42.7814 80.2414C42.6344 80.3222 42.4693 80.3646 42.3015 80.3646C42.1337 80.3646 41.9686 80.3222 41.8216 80.2414L34.0849 75.9878C33.9379 75.907 33.7728 75.8646 33.605 75.8646C33.4372 75.8646 33.2721 75.907 33.1251 75.9878L25.3896 80.2414C25.2426 80.3222 25.0775 80.3646 24.9097 80.3646C24.7419 80.3646 24.5768 80.3222 24.4298 80.2414L16.2134 75.7239" stroke="#ED3237" stroke-width="2.98828" stroke-miterlimit="10" stroke-linecap="round" stroke-linejoin="round"/>
</svg>
