<svg width="50" height="50" viewBox="0 0 50 50" fill="none" xmlns="http://www.w3.org/2000/svg">
<circle cx="25" cy="25" r="25" fill="white"/>
<g clip-path="url(#clip0_42_877)">
<path d="M31.9676 27.8671C31.4762 27.3555 30.8836 27.082 30.2555 27.082C29.6324 27.082 29.0347 27.3505 28.5231 27.8621L26.9225 29.4577C26.7908 29.3867 26.6591 29.3209 26.5324 29.255C26.3501 29.1639 26.1778 29.0778 26.031 28.9866C24.5316 28.0343 23.169 26.7933 21.8622 25.1876C21.229 24.3872 20.8035 23.7135 20.4945 23.0297C20.9099 22.6498 21.2948 22.2547 21.6697 21.8748C21.8115 21.733 21.9533 21.5861 22.0952 21.4443C23.1589 20.3805 23.1589 19.0028 22.0952 17.939L20.7123 16.5562C20.5553 16.3992 20.3932 16.2371 20.2412 16.075C19.9373 15.7609 19.6182 15.4367 19.289 15.1328C18.7976 14.6465 18.21 14.3882 17.5921 14.3882C16.9741 14.3882 16.3764 14.6465 15.8698 15.1328L15.8597 15.1429L14.1375 16.8804C13.4891 17.5287 13.1193 18.3189 13.0383 19.2358C12.9167 20.7148 13.3523 22.0926 13.6867 22.9943C14.5072 25.2078 15.7331 27.2593 17.5617 29.4577C19.7803 32.1068 22.4497 34.1988 25.4991 35.6729C26.6641 36.225 28.2192 36.8784 29.9566 36.9899C30.063 36.9949 30.1744 37 30.2757 37C31.4458 37 32.4285 36.5796 33.1984 35.7438C33.2035 35.7337 33.2136 35.7286 33.2187 35.7185C33.4821 35.3993 33.786 35.1106 34.1051 34.8016C34.323 34.5939 34.5458 34.3761 34.7636 34.1482C35.2651 33.6265 35.5285 33.0186 35.5285 32.3956C35.5285 31.7675 35.26 31.1647 34.7484 30.6582L31.9676 27.8671ZM33.781 33.201C33.7759 33.201 33.7759 33.206 33.781 33.201C33.5834 33.4137 33.3808 33.6062 33.163 33.8189C32.8337 34.133 32.4994 34.4622 32.1854 34.832C31.6738 35.3791 31.071 35.6374 30.2808 35.6374C30.2048 35.6374 30.1238 35.6374 30.0478 35.6323C28.5434 35.5361 27.1453 34.9485 26.0968 34.447C23.2298 33.0591 20.7123 31.0887 18.6203 28.5915C16.893 26.5096 15.7381 24.5848 14.9733 22.5181C14.5022 21.2568 14.33 20.2742 14.4059 19.3472C14.4566 18.7545 14.6845 18.2632 15.105 17.8428L16.8323 16.1155C17.0805 15.8825 17.3439 15.7559 17.6022 15.7559C17.9213 15.7559 18.1796 15.9483 18.3417 16.1104L18.3569 16.1256C18.6659 16.4144 18.9597 16.7132 19.2687 17.0323C19.4257 17.1944 19.5878 17.3565 19.7499 17.5237L21.1327 18.9065C21.6697 19.4434 21.6697 19.9398 21.1327 20.4768C20.9859 20.6237 20.844 20.7706 20.6971 20.9124C20.2716 21.348 19.8664 21.7532 19.4257 22.1483C19.4156 22.1585 19.4055 22.1635 19.4004 22.1737C18.9648 22.6093 19.0458 23.0348 19.137 23.3235L19.1522 23.3691C19.5118 24.2403 20.0184 25.0609 20.7883 26.0385L20.7934 26.0436C22.1914 27.7658 23.6654 29.1082 25.2914 30.1364C25.4991 30.2681 25.7118 30.3745 25.9144 30.4758C26.0968 30.567 26.269 30.6531 26.4159 30.7443C26.4362 30.7544 26.4564 30.7696 26.4767 30.7797C26.6489 30.8658 26.811 30.9064 26.9782 30.9064C27.3986 30.9064 27.662 30.643 27.7481 30.5568L29.4805 28.8245C29.6527 28.6523 29.9262 28.4446 30.2453 28.4446C30.5594 28.4446 30.8177 28.6421 30.9747 28.8144L30.9849 28.8245L33.7759 31.6155C34.2976 32.1322 34.2976 32.664 33.781 33.201ZM25.9702 18.709C27.2973 18.9318 28.5029 19.5599 29.4653 20.5224C30.4277 21.4848 31.0507 22.6903 31.2787 24.0175C31.3344 24.3518 31.6231 24.5848 31.9524 24.5848C31.9929 24.5848 32.0283 24.5797 32.0689 24.5747C32.4437 24.5139 32.6919 24.1593 32.6311 23.7845C32.3576 22.1787 31.5978 20.7148 30.4378 19.5549C29.2779 18.3949 27.814 17.6351 26.2082 17.3616C25.8334 17.3008 25.4839 17.549 25.418 17.9188C25.3522 18.2885 25.5953 18.6482 25.9702 18.709ZM36.9721 23.5869C36.5213 20.9428 35.2752 18.5367 33.3605 16.622C31.4458 14.7073 29.0398 13.4612 26.3957 13.0104C26.0259 12.9446 25.6764 13.1978 25.6105 13.5676C25.5497 13.9425 25.7979 14.292 26.1728 14.3578C28.5332 14.758 30.686 15.8774 32.3981 17.5844C34.1102 19.2965 35.2246 21.4493 35.6248 23.8098C35.6805 24.1441 35.9692 24.3771 36.2984 24.3771C36.339 24.3771 36.3744 24.372 36.415 24.367C36.7847 24.3113 37.038 23.9567 36.9721 23.5869Z" fill="#ED3237"/>
</g>
<defs>
<clipPath id="clip0_42_877">
<rect width="24" height="24" fill="white" transform="translate(13 13)"/>
</clipPath>
</defs>
</svg>
