<svg width="50" height="50" viewBox="0 0 50 50" fill="none" xmlns="http://www.w3.org/2000/svg">
<circle cx="25" cy="24.9995" r="25" fill="white"/>
<path d="M22.6615 25.0635L22.6611 25.0632C21.8688 24.4683 21.8517 23.4394 22.0698 22.7483L22.0699 22.7481C22.1437 22.5179 22.2422 22.2954 22.3646 22.0843C22.6697 21.507 23.1571 21.0329 23.7596 20.7261L23.7604 20.7257L23.7604 20.7257C24.1299 20.5458 24.551 20.4824 24.9616 20.5444C25.3722 20.6065 25.7511 20.7908 26.0422 21.0708L26.0434 21.072L26.0434 21.072C26.337 21.3739 26.5584 21.7316 26.6924 22.1211C26.7299 22.2273 26.7216 22.3432 26.6695 22.4435C26.6173 22.5439 26.5258 22.6201 26.4154 22.6569C26.3052 22.6937 26.184 22.6885 26.0776 22.6423C25.9712 22.5961 25.8874 22.5121 25.8451 22.4075L25.844 22.4048L25.8441 22.4047C25.7518 22.1298 25.5983 21.8761 25.3937 21.6604C25.2365 21.51 25.0309 21.4113 24.8078 21.3801C24.5845 21.3488 24.3565 21.3868 24.1586 21.4882C23.7219 21.7193 23.3716 22.0699 23.154 22.4924L23.1529 22.4945L23.1528 22.4945C23.0611 22.6533 22.9872 22.8205 22.932 22.9935C22.8562 23.2337 22.827 23.51 22.8683 23.7641C22.9096 24.0179 23.0205 24.2462 23.2219 24.3975L23.222 24.3975C23.4429 24.5641 23.7435 24.6146 24.0473 24.5774C24.3507 24.5403 24.6506 24.4164 24.8652 24.2428C25.1929 23.9658 25.4743 23.6444 25.7001 23.2893L25.7006 23.2885L25.7006 23.2885C25.732 23.241 25.773 23.2 25.821 23.1676C25.869 23.1353 25.9232 23.1123 25.9804 23.0997C26.0376 23.0871 26.0968 23.0853 26.1548 23.0942C26.2127 23.1031 26.2683 23.1227 26.3185 23.1519C26.3686 23.1811 26.4124 23.2194 26.4471 23.2647C26.4818 23.3101 26.5068 23.3616 26.5204 23.4164C26.5341 23.4712 26.5362 23.528 26.5264 23.5835C26.5167 23.6389 26.4955 23.6919 26.4642 23.7393C26.4642 23.7394 26.4641 23.7395 26.464 23.7396L26.4223 23.712C26.1512 24.1356 25.8137 24.5186 25.4211 24.848L22.6615 25.0635ZM22.6615 25.0635C23.0031 25.3152 23.4263 25.4484 23.8597 25.4414M22.6615 25.0635L23.8597 25.4414M23.8597 25.4414C23.8597 25.4414 23.8596 25.4414 23.8595 25.4414L23.8591 25.3914L23.8599 25.4414C23.8599 25.4414 23.8598 25.4414 23.8597 25.4414Z" fill="#ED3237" stroke="#ED3237" stroke-width="0.1"/>
<path d="M25.4952 26.8111H25.495C24.5937 26.8071 23.6982 26.6745 22.8393 26.4178L22.8386 26.4176C22.1601 26.2046 21.5536 25.8263 21.0812 25.321C20.6089 24.8158 20.2875 24.2017 20.1503 23.5413C19.8445 22.1587 20.4038 20.7024 21.6711 19.5449C21.8071 19.4206 21.9485 19.3015 22.0948 19.188C22.7355 18.6847 23.4967 18.3354 24.3129 18.17C25.1291 18.0047 25.9759 18.0283 26.7803 18.2387L26.782 18.2391L26.7819 18.2392C27.5556 18.471 28.2344 18.922 28.7248 19.5308C29.2151 20.1395 29.493 20.876 29.5199 21.6394C29.5793 22.5404 29.2662 23.4278 28.6469 24.117C28.4097 24.3971 28.0953 24.6101 27.7383 24.7331C27.3811 24.8562 26.9948 24.8845 26.6216 24.815L26.6212 24.8149C26.4646 24.7844 26.3159 24.7245 26.1841 24.6387C26.0524 24.5529 25.9402 24.4429 25.8545 24.3151L25.8535 24.3136L25.8535 24.3136C25.7763 24.1891 25.7267 24.0512 25.7076 23.9079C25.6885 23.7649 25.7004 23.6197 25.7424 23.4811C26.0852 22.2655 26.4336 20.4289 26.4499 20.343L26.4505 20.3402L26.4505 20.34L26.4996 20.3494C26.5087 20.3009 26.528 20.2545 26.5562 20.2129C26.5845 20.1713 26.6212 20.1354 26.6642 20.1071C26.7073 20.0788 26.7558 20.0588 26.8071 20.0481C26.8584 20.0375 26.9115 20.0364 26.9632 20.045C27.0149 20.0536 27.0644 20.0716 27.1087 20.0981C27.153 20.1246 27.1913 20.1591 27.2214 20.1995C27.2515 20.2399 27.2729 20.2855 27.2842 20.3336C27.2956 20.3817 27.2967 20.4315 27.2876 20.4801L25.4952 26.8111ZM25.4952 26.8111C27.0711 26.8111 28.6864 26.3705 29.75 25.1291L29.7507 25.1282C29.8228 25.04 29.8556 24.9282 29.8413 24.8169C29.827 24.7055 29.7669 24.6047 29.6751 24.5355C29.5834 24.4664 29.4671 24.4341 29.351 24.4448C29.2349 24.4554 29.1272 24.5084 29.0512 24.5932L29.0504 24.5941C28.3513 25.41 27.336 25.8038 26.2579 25.9229C25.18 26.042 24.0441 25.8858 23.1113 25.6067C22.5862 25.4355 22.1183 25.1387 21.7536 24.746C21.3887 24.3531 21.1399 23.878 21.0313 23.3677L21.0312 23.3673C20.7026 21.8826 21.6769 20.722 22.2961 20.1566L22.2961 20.1566C22.415 20.048 22.5392 19.9441 22.6668 19.8445L22.667 19.8443C23.1918 19.4293 23.8165 19.1402 24.4874 19.0021C25.1579 18.864 25.8542 18.8811 26.5161 19.0518L25.4952 26.8111Z" fill="#ED3237" stroke="#ED3237" stroke-width="0.1"/>
<path d="M35.8 36.5753H35.8H14.2H14.1999C13.8695 36.575 13.5521 36.4517 13.3176 36.2316C13.0829 36.0114 12.9503 35.7121 12.95 35.3992L12.95 35.3991L12.95 21.5098C12.9499 21.4283 12.9747 21.3486 13.0209 21.2803C13.0671 21.212 13.1329 21.1579 13.21 21.1239C13.2872 21.09 13.3728 21.0774 13.457 21.0876C13.5413 21.0978 13.621 21.1303 13.6867 21.1817L13.6867 21.1817L13.656 21.2211L13.6868 21.1817L35.8 36.5753ZM35.8 36.5753C36.1304 36.575 36.4478 36.4517 36.6824 36.2316C36.917 36.0114 37.0496 35.7121 37.05 35.3992V35.3991V21.5099M35.8 36.5753L26.4997 28.8365L36.3132 21.1813C36.379 21.1299 36.4587 21.0974 36.543 21.0872C36.6273 21.077 36.713 21.0896 36.7901 21.1236C36.8673 21.1576 36.933 21.2118 36.9792 21.2802C37.0254 21.3486 37.0501 21.4283 37.05 21.5099M37.05 21.5099L37 21.5098M37.05 21.5099V21.5098H37M37 21.5098V35.3991L36.344 21.2207C36.4024 21.175 36.4735 21.1459 36.549 21.1368C36.6245 21.1278 36.7011 21.139 36.77 21.1694C36.8388 21.1997 36.897 21.2479 36.9378 21.3082C36.9785 21.3684 37.0001 21.4384 37 21.5098ZM23.501 28.8365L23.4704 28.876L23.5011 28.8366L23.5011 28.8366C23.501 28.8365 23.501 28.8365 23.501 28.8365ZM36.15 22.4121V35.3991C36.15 35.4844 36.1139 35.5668 36.0486 35.6281C35.9832 35.6895 35.8938 35.7245 35.8 35.7245H14.2C14.0037 35.7245 13.85 35.5758 13.85 35.3991V22.4121L22.9288 29.4935L22.9289 29.4936C23.5123 29.9457 24.2447 30.1926 25.0003 30.1925C25.7559 30.1923 26.4883 29.9451 27.0714 29.4929L27.0715 29.4928L36.15 22.4121Z" fill="#ED3237" stroke="#ED3237" stroke-width="0.1"/>
<path d="M32.7411 19.4624L32.7408 19.4622C32.6444 19.3971 32.5785 19.2983 32.5587 19.1866C32.5389 19.0749 32.567 18.9607 32.6362 18.869C32.7053 18.7775 32.8095 18.7161 32.9255 18.697C33.0416 18.678 33.1612 18.7027 33.2585 18.7663L33.2588 18.7665L36.8588 21.1615L36.8588 21.1615L32.7411 19.4624ZM32.7411 19.4624L36.341 21.8573L32.7411 19.4624ZM22.5012 28.501L22.5012 28.501C22.5467 28.4655 22.5991 28.439 22.6552 28.4226C22.7114 28.4063 22.7704 28.4006 22.8288 28.4056C22.8872 28.4107 22.9441 28.4266 22.9963 28.4523C23.0484 28.4781 23.0948 28.5134 23.1328 28.5563C23.1708 28.5992 23.1995 28.6489 23.2172 28.7026C23.2349 28.7563 23.2412 28.8128 23.2357 28.8689C23.2302 28.9249 23.2129 28.9793 23.1851 29.0289C23.1573 29.0784 23.1194 29.1221 23.0739 29.1576M22.5012 28.501L22.532 28.5405C22.5724 28.509 22.619 28.4852 22.6692 28.4707C22.7194 28.4561 22.7721 28.4509 22.8245 28.4554C22.8768 28.46 22.9276 28.4742 22.9741 28.4972C23.0206 28.5202 23.0618 28.5515 23.0954 28.5894C23.1289 28.6274 23.1542 28.6711 23.1697 28.7182C23.1853 28.7654 23.1908 28.8149 23.1859 28.864C23.1811 28.9131 23.166 28.9608 23.1415 29.0044C23.117 29.048 23.0836 29.0867 23.0432 29.1182L13.9152 36.2355M22.5012 28.501L13.3733 35.6183M22.5012 28.501L13.3733 35.6183M23.0739 29.1576L23.0439 29.1191L23.0739 29.1576L23.0739 29.1576ZM23.0739 29.1576L13.946 36.2749M13.946 36.2749L13.9152 36.2355M13.946 36.2749L13.9459 36.275L13.9152 36.2355M13.946 36.2749C13.8653 36.338 13.7641 36.3722 13.66 36.3723M13.9152 36.2355C13.8435 36.2916 13.7532 36.3222 13.66 36.3223M13.66 36.3223L13.66 36.3723M13.66 36.3223L13.66 36.3723C13.66 36.3723 13.66 36.3723 13.66 36.3723M13.66 36.3223L13.3733 35.6183M13.66 36.3723C13.5681 36.3724 13.4781 36.346 13.4023 36.2961C13.3264 36.2463 13.2683 36.1753 13.2363 36.0925C13.2044 36.0096 13.2005 35.9194 13.2252 35.8343C13.2499 35.7492 13.3018 35.6739 13.3733 35.6183M13.4003 21.9348C13.3055 21.935 13.2129 21.9068 13.1357 21.8541C13.0585 21.8012 13.0007 21.7263 12.9712 21.6398C12.9417 21.5531 12.9424 21.4599 12.9731 21.3736C13.0038 21.2875 13.0627 21.2133 13.1407 21.1615M13.4003 21.9348L16.7407 18.7665M13.4003 21.9348C13.4927 21.9349 13.583 21.908 13.6588 21.8574L13.4003 21.9348ZM13.1407 21.1615L13.1684 21.2031L13.1407 21.1615L13.1407 21.1615ZM13.1407 21.1615L16.7407 18.7665M16.7407 18.7665C16.8379 18.7018 16.9581 18.6763 17.0748 18.6949C17.1916 18.7136 17.2966 18.7752 17.366 18.8672C17.4356 18.9593 17.4637 19.0742 17.4434 19.1864C17.423 19.2986 17.3562 19.3976 17.2588 19.4624L13.6589 21.8573L16.7407 18.7665ZM36.3395 36.3723C36.4313 36.3724 36.5213 36.3464 36.5973 36.2965C36.6731 36.2467 36.7313 36.1757 36.7632 36.0929C36.7951 36.01 36.799 35.9198 36.7743 35.8346C36.7496 35.7496 36.6977 35.6743 36.6263 35.6188C36.6263 35.6187 36.6263 35.6187 36.6262 35.6187L27.499 28.502C27.4989 28.5019 27.4987 28.5018 27.4986 28.5017C27.4534 28.4651 27.401 28.4376 27.3446 28.4204C27.2881 28.4031 27.2285 28.3967 27.1693 28.4013C27.1102 28.4059 27.0525 28.4216 26.9997 28.4474C26.9468 28.4732 26.8998 28.5088 26.8614 28.5522C26.823 28.5955 26.794 28.6458 26.7763 28.7002C26.7587 28.7546 26.7527 28.8118 26.7588 28.8684C26.7649 28.9251 26.783 28.9799 26.8118 29.0297C26.8406 29.0793 26.8794 29.1228 26.9259 29.1579C26.9261 29.158 26.9262 29.1581 26.9263 29.1581L36.0535 36.2749C36.1341 36.3381 36.2354 36.3723 36.3395 36.3723ZM36.3395 36.3723C36.3395 36.3723 36.3395 36.3723 36.3395 36.3723L36.3396 36.3223L36.3396 36.3723C36.3396 36.3723 36.3396 36.3723 36.3395 36.3723ZM28.6956 16.6794C28.7903 16.6795 28.883 16.6514 28.9602 16.5986C29.0374 16.5458 29.0952 16.4709 29.1247 16.3843C29.1542 16.2977 29.1535 16.2044 29.1228 16.1182C29.0921 16.032 29.0332 15.9579 28.9552 15.9061L27.0688 14.6518C26.4916 14.2011 25.7657 13.9532 25.0157 13.95C24.2656 13.9468 23.5373 14.1886 22.9557 14.6344L21.0451 15.9061C21.0451 15.9061 21.0451 15.9061 21.045 15.9061C20.9477 15.9708 20.8809 16.0699 20.8605 16.182C20.8402 16.2943 20.8683 16.4092 20.9379 16.5013C21.0074 16.5933 21.1123 16.6549 21.2291 16.6735C21.3458 16.6922 21.466 16.6667 21.5632 16.602L21.5633 16.6019L23.4993 15.3117L23.4994 15.3118L23.5022 15.3097C23.9275 14.9805 24.463 14.8016 25.0153 14.8048C25.5675 14.8079 26.1006 14.9929 26.5217 15.3269L26.5216 15.3271L26.525 15.3294L28.437 16.6019C28.437 16.6019 28.437 16.6019 28.437 16.6019C28.5129 16.6525 28.6032 16.6794 28.6956 16.6794Z" fill="#ED3237" stroke="#ED3237" stroke-width="0.1"/>
<path d="M32.55 16.6794V16.6324H32.556H32.5817C32.5748 16.631 32.5662 16.6294 32.556 16.6294H17.444C17.4352 16.6289 17.4265 16.6301 17.4182 16.6329C17.41 16.6357 17.4024 16.64 17.396 16.6456M32.55 16.6794H17.446M32.55 16.6794V24.3174C32.55 24.4313 32.5982 24.5398 32.6829 24.6193C32.7675 24.6987 32.8816 24.7428 33 24.7428C33.1183 24.7428 33.2324 24.6987 33.317 24.6193C33.4017 24.5398 33.45 24.4313 33.45 24.3174L33.45 16.6294L33.45 16.6279C33.4432 16.4092 33.3445 16.2026 33.1764 16.0531C33.0086 15.9039 32.7853 15.8235 32.5554 15.8287H17.4445M32.55 16.6794L32.556 15.8787H17.444M17.446 16.6794L17.446 16.6455L17.444 16.6455L17.4431 16.6455L17.4225 16.6456L17.396 16.6456M17.446 16.6794H17.444H17.4411L17.4411 16.6794C17.4387 16.6792 17.4363 16.6795 17.4342 16.6803C17.432 16.681 17.4302 16.6821 17.4288 16.6833L17.396 16.6456M17.446 16.6794L17.45 24.3174V24.3174C17.45 24.4313 17.4017 24.5398 17.317 24.6193C17.2324 24.6987 17.1183 24.7428 17 24.7428C16.8816 24.7428 16.7675 24.6987 16.6829 24.6193C16.5982 24.5398 16.55 24.4313 16.55 24.3174V16.6294V16.6279L16.55 16.6279C16.5567 16.4092 16.6555 16.2026 16.8235 16.0531C16.9913 15.9039 17.2146 15.8235 17.4445 15.8287M17.396 16.6456L17.4 24.3174C17.4 24.4169 17.3578 24.5124 17.2828 24.5828C17.2078 24.6532 17.1061 24.6928 17 24.6928C16.8939 24.6928 16.7921 24.6532 16.7171 24.5828C16.6421 24.5124 16.6 24.4169 16.6 24.3174V16.6294C16.6063 16.425 16.6986 16.2312 16.8568 16.0905C17.015 15.9498 17.2261 15.8736 17.444 15.8787M17.4445 15.8287H17.444V15.8787M17.4445 15.8287C17.4447 15.8287 17.4449 15.8287 17.4451 15.8287L17.444 15.8787" fill="#ED3237" stroke="#ED3237" stroke-width="0.1"/>
</svg>
