<svg width="30" height="30" viewBox="0 0 30 30" fill="none" xmlns="http://www.w3.org/2000/svg">
<path d="M20.81 11.192C20.4647 11.696 20.0447 12.13 19.55 12.494V12.816C19.55 13.4973 19.452 14.174 19.256 14.846C19.06 15.518 18.7614 16.1667 18.36 16.792C17.9587 17.4173 17.478 17.9633 16.918 18.43C16.358 18.8967 15.686 19.2793 14.902 19.578C14.118 19.8767 13.2734 20.0167 12.368 19.998C10.9587 19.998 9.6707 19.62 8.50403 18.864C8.68136 18.8827 8.88203 18.892 9.10603 18.892C10.282 18.892 11.3274 18.5327 12.242 17.814C11.6914 17.8047 11.2014 17.6367 10.772 17.31C10.3427 16.9833 10.044 16.568 9.87603 16.064C10.0534 16.092 10.212 16.106 10.352 16.106C10.576 16.106 10.8 16.078 11.024 16.022C10.436 15.9007 9.9507 15.6113 9.56803 15.154C9.18536 14.6967 8.99403 14.16 8.99403 13.544V13.516C9.3487 13.712 9.73136 13.8193 10.142 13.838C9.7967 13.6047 9.52136 13.306 9.31603 12.942C9.1107 12.578 9.00803 12.172 9.00803 11.724C9.00803 11.276 9.1247 10.856 9.35803 10.464C9.9927 11.2387 10.758 11.8593 11.654 12.326C12.55 12.7927 13.5207 13.0493 14.566 13.096C14.5194 12.9 14.496 12.7087 14.496 12.522C14.496 11.822 14.7434 11.2293 15.238 10.744C15.7327 10.2587 16.3254 10.0113 17.016 10.002C17.7534 10.002 18.3694 10.268 18.864 10.8C19.4334 10.688 19.97 10.4827 20.474 10.184C20.278 10.7813 19.9047 11.248 19.354 11.584C19.8394 11.528 20.3247 11.3973 20.81 11.192Z" fill="white"/>
<rect x="0.5" y="0.5" width="29" height="29" rx="14.5" stroke="white"/>
</svg>
