<svg width="106" height="90" viewBox="0 0 106 90" fill="none" xmlns="http://www.w3.org/2000/svg">
<rect x="0.5" y="0.5" width="89" height="89" rx="9.5" fill="white" stroke="#FFDDDE"/>
<g clip-path="url(#clip0_38_497)">
<path d="M30.806 63.125C29.6748 62.9639 28.5656 62.6743 27.5 62.2617V59C27.5 58.8011 27.421 58.6103 27.2803 58.4697C27.1397 58.329 26.9489 58.25 26.75 58.25C26.5511 58.25 26.3603 58.329 26.2197 58.4697C26.079 58.6103 26 58.8011 26 59V62.7312C26 62.8645 26.0356 62.9953 26.1029 63.1102C26.1703 63.2252 26.267 63.3201 26.3833 63.3853C27.7483 64.0055 29.1987 64.4203 30.686 64.616C30.8744 64.6159 31.0558 64.5448 31.1943 64.417C31.3327 64.2892 31.4179 64.114 31.433 63.9262C31.4482 63.7384 31.3921 63.5518 31.2759 63.4035C31.1597 63.2552 30.9919 63.1553 30.806 63.125Z" fill="#ED3237"/>
<path d="M68 39.5053C68 36.3748 66.56 36.2008 66.56 33.5053C66.56 31.5553 67.424 31.1293 67.8928 29.6915C68.0018 29.3538 68.0295 28.9951 67.9734 28.6447C67.9174 28.2942 67.7792 27.962 67.5703 27.6752C67.3613 27.3884 67.0875 27.155 66.7711 26.9942C66.4548 26.8334 66.1049 26.7497 65.75 26.75H41.75V25.25C41.75 23.063 36.3635 23 35.75 23C35.1365 23 29.75 23.063 29.75 25.25V27.2398C27.3125 27.6703 23 28.7795 23 31.25V63.5C23 69.179 46.2125 69.5225 48.3358 64.25H65.75C66.1046 64.2502 66.4543 64.1665 66.7704 64.0058C67.0865 63.8451 67.3602 63.612 67.5691 63.3255C67.778 63.0389 67.9162 62.707 67.9724 62.3569C68.0287 62.0068 68.0014 61.6483 67.8928 61.3108C67.4248 59.8738 66.56 59.45 66.56 57.5C66.56 54.8 68 54.6433 68 51.5C68 48.371 66.56 48.1963 66.56 45.5C66.56 42.8038 68 42.65 68 39.5053ZM40.1218 25.25C38.5123 26.243 32.9968 26.2505 31.3783 25.25C32.9878 24.257 38.4995 24.2495 40.1218 25.25ZM31.25 26.831C34.1852 27.7126 37.3148 27.7126 40.25 26.831V30.401C39.9388 30.7085 38.3615 31.25 35.75 31.25C33.1385 31.25 31.5613 30.7085 31.25 30.401V26.831ZM47 63.5C47 64.7233 42.617 66.5 35.75 66.5C28.883 66.5 24.5 64.7233 24.5 63.5V33.4768C29.0698 36.4985 42.416 36.509 47 33.4768V63.5ZM35.75 34.25C28.883 34.25 24.5 32.4733 24.5 31.25C24.5 30.635 25.9453 29.4665 29.75 28.7623V30.5C29.75 32.687 35.1365 32.75 35.75 32.75C36.3635 32.75 41.75 32.687 41.75 30.5V28.7623C45.5548 29.4665 47 30.6373 47 31.25C47 32.4733 42.617 34.25 35.75 34.25ZM66.5 51.5045C66.5 54.2045 65.06 54.3613 65.06 57.5045C65.06 60.5045 67.0445 61.4983 66.3613 62.4388C66.2915 62.5355 66.1996 62.6142 66.0933 62.6684C65.987 62.7225 65.8693 62.7505 65.75 62.75H48.5V31.25C48.5 29.8588 47.1275 28.9003 45.4955 28.25H65.75C65.8694 28.2497 65.9872 28.2779 66.0935 28.3323C66.1998 28.3867 66.2916 28.4657 66.3613 28.5628C67.0483 29.5123 65.06 30.4745 65.06 33.5C65.06 36.6215 66.5 36.812 66.5 39.5C66.5 42.188 65.06 42.3575 65.06 45.5C65.06 48.6335 66.5 48.8083 66.5 51.5045Z" fill="#ED3237"/>
<path d="M63.8 37.817C63.637 37.8959 63.508 38.031 63.4369 38.1976C63.3657 38.3641 63.3573 38.5507 63.413 38.723C63.485 38.9773 63.515 39.2413 63.5 39.5053C63.5184 39.9884 63.3968 40.4666 63.1498 40.8823C63.0797 41.0589 63.0792 41.2556 63.1486 41.4325C63.2179 41.6095 63.3518 41.7535 63.5232 41.8355C63.6947 41.9175 63.8908 41.9314 64.0721 41.8743C64.2534 41.8172 64.4062 41.6935 64.4998 41.528C64.8523 40.913 65.0233 40.211 64.9963 39.503C65.011 39.0751 64.954 38.6476 64.8275 38.2385C64.7923 38.1391 64.7366 38.0482 64.6639 37.9718C64.5913 37.8953 64.5033 37.8351 64.4058 37.7949C64.3083 37.7548 64.2034 37.7357 64.0979 37.7389C63.9925 37.742 63.889 37.7674 63.794 37.8133L63.8 37.817ZM63.5 49.127C63.4111 49.1696 63.3315 49.2293 63.2657 49.3027C63.1999 49.3761 63.1493 49.4618 63.1166 49.5547C63.0839 49.6477 63.0699 49.7462 63.0753 49.8447C63.0808 49.9431 63.1055 50.0394 63.1483 50.1283C63.4025 50.5408 63.5248 51.0208 63.5 51.5045C63.5184 51.9877 63.3968 52.4659 63.1498 52.8815C63.0797 53.0582 63.0792 53.2548 63.1486 53.4318C63.2179 53.6087 63.3518 53.7527 63.5232 53.8347C63.6947 53.9167 63.8908 53.9306 64.0721 53.8735C64.2534 53.8165 64.4062 53.6927 64.4998 53.5273C64.8523 52.9123 65.0233 52.2103 64.9963 51.5023C65.0235 50.7939 64.8509 50.0922 64.4983 49.4773C64.4119 49.2988 64.2585 49.1618 64.0714 49.0962C63.8843 49.0305 63.6789 49.0416 63.5 49.127Z" fill="#ED3237"/>
</g>
<rect x="74.5" y="29.5" width="31" height="31" rx="15.5" fill="#333333" stroke="white"/>
<path d="M83.2291 44.39C83.2291 42.66 83.5391 41.305 84.1591 40.325C84.7891 39.345 85.8291 38.855 87.2791 38.855C88.7291 38.855 89.7641 39.345 90.3841 40.325C91.0141 41.305 91.3291 42.66 91.3291 44.39C91.3291 46.13 91.0141 47.495 90.3841 48.485C89.7641 49.475 88.7291 49.97 87.2791 49.97C85.8291 49.97 84.7891 49.475 84.1591 48.485C83.5391 47.495 83.2291 46.13 83.2291 44.39ZM89.2591 44.39C89.2591 43.65 89.2091 43.03 89.1091 42.53C89.0191 42.02 88.8291 41.605 88.5391 41.285C88.2591 40.965 87.8391 40.805 87.2791 40.805C86.7191 40.805 86.2941 40.965 86.0041 41.285C85.7241 41.605 85.5341 42.02 85.4341 42.53C85.3441 43.03 85.2991 43.65 85.2991 44.39C85.2991 45.15 85.3441 45.79 85.4341 46.31C85.5241 46.82 85.7141 47.235 86.0041 47.555C86.2941 47.865 86.7191 48.02 87.2791 48.02C87.8391 48.02 88.2641 47.865 88.5541 47.555C88.8441 47.235 89.0341 46.82 89.1241 46.31C89.2141 45.79 89.2591 45.15 89.2591 44.39ZM92.6713 41V39.065H96.2863V50H94.1263V41H92.6713Z" fill="white"/>
<defs>
<clipPath id="clip0_38_497">
<rect width="45" height="45" fill="white" transform="translate(23 23)"/>
</clipPath>
</defs>
</svg>
