<svg width="106" height="90" viewBox="0 0 106 90" fill="none" xmlns="http://www.w3.org/2000/svg">
<rect x="0.5" y="0.5" width="89" height="89" rx="9.5" fill="white" stroke="#FFDDDE"/>
<g clip-path="url(#clip0_38_515)">
<path d="M61.0054 37.1161L58.8926 34.5527C58.6032 34.2027 58.4256 33.7738 58.3829 33.3217L58.0643 30.0151C57.8988 28.2971 56.5316 26.93 54.8136 26.7645L51.5071 26.4463C51.055 26.4032 50.6262 26.2256 50.276 25.9365L47.7127 23.8232C46.381 22.7256 44.4478 22.7256 43.1161 23.8232L40.5527 25.9364C40.2025 26.2256 39.7737 26.4032 39.3216 26.4462L36.015 26.7645C34.2971 26.93 32.9305 28.2971 32.7645 30.0151L32.4463 33.3216C32.4032 33.7737 32.2256 34.2025 31.9365 34.5527L29.8232 37.1161C28.7256 38.4479 28.7256 40.3811 29.8232 41.7128L31.9363 44.276C32.2255 44.6263 32.403 45.0551 32.4461 45.5072L32.7644 48.8137C32.9299 50.5317 34.2971 51.8985 36.015 52.0643L38.0362 52.2589L33.2341 63.7338C33.1701 63.8855 33.1506 64.0523 33.1778 64.2147C33.2049 64.3771 33.2777 64.5285 33.3876 64.6511C33.6124 64.9042 33.954 65.0044 34.2788 64.9121L38.445 63.7358C38.4533 63.7333 38.4621 63.7337 38.4701 63.7369C38.4781 63.7401 38.4848 63.7459 38.489 63.7534L40.5753 67.5471C40.6501 67.6846 40.7606 67.7992 40.8952 67.8789C41.0298 67.9587 41.1835 68.0005 41.34 67.9999C41.355 67.9999 41.3701 67.9996 41.3856 67.9989C41.7231 67.9817 42.0149 67.7778 42.1485 67.4633L47.2182 55.3475C47.3924 55.2475 47.558 55.1332 47.7131 55.0056L50.2762 52.8927C50.5989 52.6265 50.989 52.4548 51.4033 52.3967L55.9952 63.3689L52.7458 62.4515C52.4474 62.3663 52.129 62.3851 51.8427 62.5049C51.5565 62.6246 51.3195 62.8381 51.1706 63.1103L49.5436 66.0687L47.3879 60.9172C47.3195 60.7539 47.1891 60.6244 47.0253 60.5573C46.8615 60.4901 46.6777 60.4908 46.5144 60.5591C46.4336 60.5929 46.3602 60.6423 46.2985 60.7045C46.2368 60.7667 46.1879 60.8404 46.1547 60.9215C46.1215 61.0026 46.1045 61.0894 46.1049 61.177C46.1052 61.2646 46.1228 61.3513 46.1567 61.4321L48.6818 67.4667C48.7454 67.6183 48.8507 67.7489 48.9855 67.8431C49.1203 67.9373 49.2791 67.9913 49.4434 67.9989C49.4587 67.9996 49.4739 68.0003 49.4891 68.0003C49.6455 68.0007 49.7992 67.9588 49.9338 67.8791C50.0684 67.7993 50.1789 67.6846 50.2535 67.5471L52.3396 63.754C52.3439 63.7465 52.3505 63.7407 52.3585 63.7374C52.3664 63.7341 52.3753 63.7335 52.3836 63.7358L56.549 64.9121C56.7072 64.9576 56.875 64.9572 57.0329 64.911C57.1908 64.8648 57.3324 64.7747 57.441 64.6511C57.6659 64.3978 57.7246 64.0466 57.5941 63.7331L52.7924 52.2586L54.8136 52.064C56.5315 51.8985 57.8987 50.5317 58.0642 48.8138L58.3828 45.5069C58.426 45.0533 58.6025 44.628 58.8925 44.276L61.0054 41.7128C62.1033 40.3811 62.1033 38.4478 61.0054 37.1161ZM41.2855 66.0686L39.6581 63.1095C39.5092 62.8374 39.2721 62.624 38.9859 62.5044C38.6996 62.3848 38.3812 62.3661 38.0829 62.4514L34.8337 63.3684L39.4253 52.3966C39.8396 52.4547 40.2298 52.6263 40.5527 52.8923L43.116 55.0054C43.7821 55.5544 44.5982 55.8288 45.4146 55.8288C45.467 55.8288 45.5192 55.8274 45.5718 55.825L41.2855 66.0686ZM59.9759 40.864L57.863 43.4273C57.4041 43.9823 57.1224 44.6622 57.0541 45.3791L56.736 48.6856C56.6316 49.7691 55.7694 50.6312 54.6859 50.7355L51.7814 51.0154C51.7701 51.0161 51.7584 51.0171 51.7471 51.0188L51.3794 51.0541C50.6625 51.1224 49.9825 51.404 49.4273 51.8627L46.8641 53.9755C46.0243 54.668 44.8048 54.668 43.9651 53.9755L41.4018 51.8626C40.8467 51.4038 40.1666 51.1222 39.4497 51.0541L39.0802 51.0185C39.0701 51.0172 39.0599 51.0163 39.0497 51.0157L36.1432 50.7355C35.0596 50.6312 34.1976 49.7691 34.0932 48.6856L33.775 45.3794C33.7068 44.6624 33.425 43.9824 32.966 43.4273L30.8532 40.864C30.1608 40.0239 30.1608 38.8044 30.8532 37.9647L32.966 35.4015C33.425 34.8464 33.7067 34.1664 33.7749 33.4494L34.0932 30.1428C34.1977 29.0592 35.0597 28.1972 36.1432 28.0928L39.4498 27.7746C40.1667 27.7064 40.8467 27.4247 41.4018 26.966L43.9652 24.8532C44.385 24.5071 44.9 24.3337 45.4147 24.3337C45.9293 24.3337 46.4443 24.5069 46.8641 24.8532L49.4274 26.966C49.9825 27.4249 50.6625 27.7066 51.3794 27.7746L54.686 28.0928C55.7695 28.1972 56.6317 29.0592 56.736 30.1428L57.0542 33.4493C57.1224 34.1663 57.4041 34.8464 57.8631 35.4015L59.976 37.9647C60.668 38.8048 60.668 40.024 59.976 40.864H59.9759Z" fill="#ED3237"/>
<path d="M45.4145 28.9902C44.9689 28.9902 44.5204 29.0184 44.081 29.0747C43.9055 29.0972 43.7461 29.1884 43.6379 29.3284C43.5297 29.4684 43.4814 29.6456 43.5038 29.8211C43.5506 30.1867 43.8853 30.4449 44.2503 30.3985C44.6334 30.3495 45.0251 30.3247 45.4145 30.3247C50.4266 30.3247 54.5043 34.4024 54.5043 39.4146C54.5043 44.4267 50.4263 48.5041 45.4145 48.5041C40.4022 48.5041 36.3246 44.4264 36.3246 39.4142C36.3246 35.8392 38.4326 32.5828 41.6948 31.1178C41.7748 31.0819 41.8469 31.0307 41.907 30.9669C41.9672 30.9032 42.0142 30.8282 42.0453 30.7463C42.0765 30.6644 42.0912 30.5772 42.0886 30.4896C42.086 30.402 42.0662 30.3158 42.0303 30.2358C41.9945 30.1559 41.9432 30.0838 41.8794 30.0237C41.8157 29.9635 41.7407 29.9166 41.6588 29.8854C41.5769 29.8543 41.4897 29.8396 41.4021 29.8421C41.3145 29.8447 41.2283 29.8645 41.1483 29.9004C37.4071 31.5803 34.9901 35.3146 34.9901 39.4142C34.9901 45.1625 39.6665 49.8385 45.4145 49.8385C51.1623 49.8385 55.8387 45.1625 55.8387 39.4142C55.8387 33.6663 51.1623 28.9902 45.4145 28.9902Z" fill="#ED3237"/>
<path d="M38.7873 38.6415C37.9918 39.4369 37.9918 40.7316 38.7873 41.5271L41.7018 44.4419C41.8909 44.6319 42.1158 44.7826 42.3634 44.8851C42.6111 44.9876 42.8766 45.0401 43.1447 45.0393C43.4127 45.04 43.6783 44.9876 43.926 44.8851C44.1736 44.7825 44.3985 44.6319 44.5877 44.4419L50.9498 38.0795C51.7453 37.2837 51.7453 35.9893 50.9498 35.1935C50.1544 34.3981 48.8597 34.3981 48.0638 35.1935L43.1447 40.113L41.6729 38.6415C40.8775 37.8461 39.5829 37.8461 38.7873 38.6415ZM43.1448 41.7242C43.2324 41.7242 43.3191 41.7069 43.4001 41.6733C43.481 41.6397 43.5546 41.5905 43.6165 41.5286L49.0077 36.1373C49.283 35.862 49.7307 35.8622 50.006 36.1373C50.2814 36.4126 50.2814 36.8607 50.006 37.1357L43.6439 43.4981C43.5785 43.5638 43.5007 43.6159 43.415 43.6514C43.3293 43.6869 43.2374 43.7051 43.1447 43.7048C43.0519 43.7051 42.9601 43.687 42.8744 43.6515C42.7887 43.616 42.7109 43.5639 42.6455 43.4982L39.7307 40.5837C39.4556 40.3084 39.4556 39.8603 39.7307 39.5853C39.7963 39.5197 39.8742 39.4676 39.9599 39.4322C40.0456 39.3967 40.1375 39.3785 40.2302 39.3787C40.3229 39.3785 40.4146 39.3967 40.5002 39.4321C40.5858 39.4675 40.6636 39.5194 40.7291 39.5849L42.6726 41.5285C42.7346 41.5905 42.8082 41.6397 42.8892 41.6733C42.9702 41.7069 43.057 41.7242 43.1447 41.7242H43.1448Z" fill="#ED3237"/>
</g>
<rect x="74.5" y="29.5" width="31" height="31" rx="15.5" fill="#333333" stroke="white"/>
<path d="M81.1397 44.39C81.1397 42.66 81.4497 41.305 82.0697 40.325C82.6997 39.345 83.7397 38.855 85.1897 38.855C86.6397 38.855 87.6747 39.345 88.2947 40.325C88.9247 41.305 89.2397 42.66 89.2397 44.39C89.2397 46.13 88.9247 47.495 88.2947 48.485C87.6747 49.475 86.6397 49.97 85.1897 49.97C83.7397 49.97 82.6997 49.475 82.0697 48.485C81.4497 47.495 81.1397 46.13 81.1397 44.39ZM87.1697 44.39C87.1697 43.65 87.1197 43.03 87.0197 42.53C86.9297 42.02 86.7397 41.605 86.4497 41.285C86.1697 40.965 85.7497 40.805 85.1897 40.805C84.6297 40.805 84.2047 40.965 83.9147 41.285C83.6347 41.605 83.4447 42.02 83.3447 42.53C83.2547 43.03 83.2097 43.65 83.2097 44.39C83.2097 45.15 83.2547 45.79 83.3447 46.31C83.4347 46.82 83.6247 47.235 83.9147 47.555C84.2047 47.865 84.6297 48.02 85.1897 48.02C85.7497 48.02 86.1747 47.865 86.4647 47.555C86.7547 47.235 86.9447 46.82 87.0347 46.31C87.1247 45.79 87.1697 45.15 87.1697 44.39ZM91.497 47.63C92.457 46.83 93.222 46.165 93.792 45.635C94.362 45.095 94.837 44.535 95.217 43.955C95.597 43.375 95.787 42.805 95.787 42.245C95.787 41.735 95.667 41.335 95.427 41.045C95.187 40.755 94.817 40.61 94.317 40.61C93.817 40.61 93.432 40.78 93.162 41.12C92.892 41.45 92.752 41.905 92.742 42.485H90.702C90.742 41.285 91.097 40.375 91.767 39.755C92.447 39.135 93.307 38.825 94.347 38.825C95.487 38.825 96.362 39.13 96.972 39.74C97.582 40.34 97.887 41.135 97.887 42.125C97.887 42.905 97.677 43.65 97.257 44.36C96.837 45.07 96.357 45.69 95.817 46.22C95.277 46.74 94.572 47.37 93.702 48.11H98.127V49.85H90.717V48.29L91.497 47.63Z" fill="white"/>
<defs>
<clipPath id="clip0_38_515">
<rect width="45" height="45" fill="white" transform="translate(23 23)"/>
</clipPath>
</defs>
</svg>
