<svg width="106" height="90" viewBox="0 0 106 90" fill="none" xmlns="http://www.w3.org/2000/svg">
<rect x="0.5" y="0.5" width="89" height="89" rx="9.5" fill="white" stroke="#FFDDDE"/>
<path d="M35.75 24.5H55.25C56.4926 24.5 57.5 25.5074 57.5 26.75V27.5H41V29H57.5V51.9395L52.4053 46.8447C52.3811 46.8209 52.3522 46.8041 52.3302 46.781L52.9806 44.1823L53.5856 41.75H55.25V40.25H53C52.8328 40.25 52.6704 40.3059 52.5386 40.4087C52.4068 40.5116 52.313 40.6555 52.2723 40.8177L51.6652 43.25H38.75C38.636 43.25 38.5235 43.276 38.421 43.326C38.3185 43.376 38.2287 43.4487 38.1585 43.5386C38.0884 43.6285 38.0397 43.7332 38.0161 43.8447C37.9925 43.9563 37.9946 44.0717 38.0223 44.1823L39.5223 50.1823C39.563 50.3445 39.6568 50.4884 39.7886 50.5913C39.9204 50.6941 40.0828 50.75 40.25 50.75H46.9641C47.1228 51.0846 47.3359 51.3905 47.5948 51.6553L48.1894 52.25H39.5V53.75H49.6894L53.5647 57.6253L53.2318 58.2079C52.8262 58.9222 52.5349 59.6956 52.3687 60.5H33.5V44.75H32V64.25C32.0025 66.3202 33.6798 67.9975 35.75 68H52.25V66.5H35.75C34.5074 66.5 33.5 65.4926 33.5 64.25V62H52.2141C52.1874 63.7113 52.7274 65.3833 53.75 66.7557V68H55.25V66.5C55.2501 66.3296 55.1921 66.1643 55.0856 66.0312C53.4581 64.0119 53.2387 61.1998 54.5337 58.9528L55.1511 57.8721C55.2322 57.7295 55.2643 57.5642 55.2424 57.4016C55.2206 57.239 55.1461 57.0881 55.0303 56.9719L48.6553 50.5969C47.9324 49.8509 47.9418 48.6629 48.6762 47.9288C49.4108 47.1941 50.5988 47.1846 51.3448 47.9075L59.2198 55.7825L60.2803 54.7219L59 53.4394V26.75C58.9975 24.6798 57.3202 23.0025 55.25 23H35.75C35.434 23 35.1193 23.0396 34.8133 23.1179L35.1882 24.5714C35.3718 24.5241 35.5605 24.5001 35.75 24.5ZM46.3379 49.25H44.6622L44.4747 47.75H46.5254L46.3379 49.25ZM46.7129 46.25H44.2872L44.0997 44.75H46.9004L46.7129 46.25ZM42.5879 44.75L42.7754 46.25H40.0856L39.7106 44.75H42.5879ZM40.4606 47.75H42.9628L43.1503 49.25H40.8357L40.4606 47.75ZM48.2096 46.3661L48.4121 44.75H51.2894L50.9748 46.0087C50.5149 45.8692 50.0305 45.8289 49.5538 45.8905C49.0771 45.9521 48.6189 46.1142 48.2096 46.3661Z" fill="#ED3237"/>
<path d="M44.75 63.5H46.25V65H44.75V63.5ZM62.75 53.033V68H64.25V53.033C64.2519 51.042 63.5324 49.1177 62.2248 47.6163L61.3173 46.5213L60.1631 47.4786L61.0827 48.5886C62.1582 49.8193 62.7507 51.3985 62.75 53.033ZM43.25 56C43.25 56.8284 42.5784 57.5 41.75 57.5C40.9216 57.5 40.25 56.8284 40.25 56C40.25 55.1716 40.9216 54.5 41.75 54.5C42.5784 54.5 43.25 55.1716 43.25 56ZM50.75 56C50.75 56.8284 50.0784 57.5 49.25 57.5C48.4216 57.5 47.75 56.8284 47.75 56C47.75 55.1716 48.4216 54.5 49.25 54.5C50.0784 54.5 50.75 55.1716 50.75 56ZM44.75 35.75V38.4395L43.7803 37.4698L42.7197 38.5303L44.9697 40.7803C45.1104 40.9208 45.3012 40.9997 45.5 40.9997C45.6988 40.9997 45.8896 40.9208 46.0303 40.7803L48.2803 38.5303L47.2197 37.4698L46.25 38.4395V35.75H44.75ZM32 43.25C36.9706 43.25 41 39.2206 41 34.25C41 29.2794 36.9706 25.25 32 25.25C27.0294 25.25 23 29.2794 23 34.25C23.0055 39.2184 27.0316 43.2445 32 43.25ZM32 26.75C36.1423 26.75 39.5 30.1078 39.5 34.25C39.5 38.3923 36.1423 41.75 32 41.75C27.8577 41.75 24.5 38.3923 24.5 34.25C24.5044 30.1096 27.8596 26.7544 32 26.75Z" fill="#ED3237"/>
<path d="M30.9845 34.4661L32.7686 34.766C32.9829 34.804 33.1753 34.9206 33.3081 35.093C33.4409 35.2654 33.5046 35.4811 33.4868 35.698C33.4689 35.9148 33.3709 36.1172 33.2117 36.2655C33.0525 36.4139 32.8437 36.4975 32.6261 36.5H29.75V38H31.25V38.75H32.75V37.9872C33.9603 37.9278 34.9304 36.9647 34.9989 35.7552C35.067 34.5451 34.2112 33.4791 33.0155 33.2839L31.2313 32.984C31.0171 32.946 30.8247 32.8294 30.6919 32.657C30.5591 32.4846 30.4953 32.2689 30.5132 32.052C30.531 31.8352 30.6291 31.6328 30.7883 31.4845C30.9474 31.3362 31.1562 31.2525 31.3737 31.25H34.25V29.75H32.75V29H31.25V29.7628C30.0397 29.8222 29.0696 30.7853 29.0011 31.9948C28.933 33.2049 29.7888 34.2709 30.9845 34.4661Z" fill="#ED3237"/>
<rect x="74.5" y="29.5" width="31" height="31" rx="15.5" fill="#333333" stroke="white"/>
<path d="M81.9566 44.39C81.9566 42.66 82.2666 41.305 82.8866 40.325C83.5166 39.345 84.5566 38.855 86.0066 38.855C87.4566 38.855 88.4916 39.345 89.1116 40.325C89.7416 41.305 90.0566 42.66 90.0566 44.39C90.0566 46.13 89.7416 47.495 89.1116 48.485C88.4916 49.475 87.4566 49.97 86.0066 49.97C84.5566 49.97 83.5166 49.475 82.8866 48.485C82.2666 47.495 81.9566 46.13 81.9566 44.39ZM87.9866 44.39C87.9866 43.65 87.9366 43.03 87.8366 42.53C87.7466 42.02 87.5566 41.605 87.2666 41.285C86.9866 40.965 86.5666 40.805 86.0066 40.805C85.4466 40.805 85.0216 40.965 84.7316 41.285C84.4516 41.605 84.2616 42.02 84.1616 42.53C84.0716 43.03 84.0266 43.65 84.0266 44.39C84.0266 45.15 84.0716 45.79 84.1616 46.31C84.2516 46.82 84.4416 47.235 84.7316 47.555C85.0216 47.865 85.4466 48.02 86.0066 48.02C86.5666 48.02 86.9916 47.865 87.2816 47.555C87.5716 47.235 87.7616 46.82 87.8516 46.31C87.9416 45.79 87.9866 45.15 87.9866 44.39ZM91.6839 41.945C91.7339 40.945 92.0839 40.175 92.7339 39.635C93.3939 39.085 94.2589 38.81 95.3289 38.81C96.0589 38.81 96.6839 38.94 97.2039 39.2C97.7239 39.45 98.1139 39.795 98.3739 40.235C98.6439 40.665 98.7789 41.155 98.7789 41.705C98.7789 42.335 98.6139 42.87 98.2839 43.31C97.9639 43.74 97.5789 44.03 97.1289 44.18V44.24C97.7089 44.42 98.1589 44.74 98.4789 45.2C98.8089 45.66 98.9739 46.25 98.9739 46.97C98.9739 47.57 98.8339 48.105 98.5539 48.575C98.2839 49.045 97.8789 49.415 97.3389 49.685C96.8089 49.945 96.1689 50.075 95.4189 50.075C94.2889 50.075 93.3689 49.79 92.6589 49.22C91.9489 48.65 91.5739 47.81 91.5339 46.7H93.5739C93.5939 47.19 93.7589 47.585 94.0689 47.885C94.3889 48.175 94.8239 48.32 95.3739 48.32C95.8839 48.32 96.2739 48.18 96.5439 47.9C96.8239 47.61 96.9639 47.24 96.9639 46.79C96.9639 46.19 96.7739 45.76 96.3939 45.5C96.0139 45.24 95.4239 45.11 94.6239 45.11H94.1889V43.385H94.6239C96.0439 43.385 96.7539 42.91 96.7539 41.96C96.7539 41.53 96.6239 41.195 96.3639 40.955C96.1139 40.715 95.7489 40.595 95.2689 40.595C94.7989 40.595 94.4339 40.725 94.1739 40.985C93.9239 41.235 93.7789 41.555 93.7389 41.945H91.6839Z" fill="white"/>
</svg>
