<svg width="106" height="90" viewBox="0 0 106 90" fill="none" xmlns="http://www.w3.org/2000/svg">
<rect x="0.5" y="0.5" width="89" height="89" rx="9.5" fill="white" stroke="#FFDDDE"/>
<g clip-path="url(#clip0_38_503)">
<path fill-rule="evenodd" clip-rule="evenodd" d="M41.1695 27.3263L42.8869 28.7067L42.3088 30.833C42.2109 31.1933 42.3428 31.5679 42.6448 31.7875C42.7967 31.8987 42.98 31.9588 43.1682 31.959C43.3372 31.959 43.5067 31.9102 43.6566 31.8121L45.5 30.6054L47.3436 31.8121C47.6562 32.0166 48.0533 32.0072 48.3559 31.7872C48.6576 31.5677 48.7894 31.1932 48.6914 30.8329L48.1134 28.7067L49.8307 27.3264C50.1218 27.0927 50.2353 26.7121 50.1202 26.357C50.0049 26.0016 49.6893 25.7601 49.3161 25.742L47.1153 25.6347L46.3333 23.5749V23.5747C46.2005 23.2256 45.8736 23 45.5001 23C45.1266 23 44.7996 23.2256 44.667 23.5747L43.885 25.6347L41.6843 25.742C41.311 25.7601 40.9953 26.0016 40.8803 26.3563C40.7646 26.7118 40.8783 27.0927 41.1695 27.3263ZM44.2901 27.0228C44.4633 27.0145 44.6303 26.9558 44.7706 26.8539C44.9109 26.752 45.0184 26.6114 45.0799 26.4493L45.5 25.3426L45.9202 26.4494C45.9817 26.6114 46.0891 26.752 46.2294 26.8539C46.3696 26.9557 46.5366 27.0145 46.7097 27.0228L47.8919 27.0805L46.9693 27.822C46.8342 27.9306 46.7337 28.0763 46.6801 28.2412C46.6265 28.406 46.6222 28.583 46.6677 28.7502L46.9782 29.8925L45.9884 29.2445C45.8433 29.1494 45.6736 29.0987 45.5001 29.0986C45.3267 29.0985 45.1569 29.1491 45.0118 29.2442L44.0215 29.8925L44.3321 28.7499C44.3775 28.5826 44.3732 28.4058 44.3196 28.241C44.266 28.0761 44.1655 27.9306 44.0303 27.822L43.1078 27.0805L44.2901 27.0228ZM51.0808 29.2272L52.7983 30.6075L52.2203 32.7338C52.1223 33.0942 52.2543 33.4687 52.5563 33.6883C52.7081 33.7995 52.8914 33.8596 53.0796 33.8599C53.2487 33.8599 53.4181 33.811 53.5681 33.7129L55.4116 32.5062L57.2552 33.7129C57.5675 33.9173 57.9643 33.9078 58.2674 33.688C58.5692 33.4685 58.701 33.0939 58.603 32.7338L58.0249 30.6075L59.7422 29.2273C60.0335 28.9932 60.147 28.6124 60.0317 28.2578C59.9164 27.9024 59.6008 27.6609 59.2276 27.6428L57.0268 27.5355L56.2448 25.4757V25.4755C56.1121 25.1264 55.7852 24.9008 55.4117 24.9008C55.0382 24.9008 54.7112 25.1264 54.5786 25.4755L53.7966 27.5355L51.5959 27.6428C51.2226 27.6609 50.9069 27.9024 50.7919 28.2571C50.6763 28.6122 50.7897 28.9928 51.0808 29.2272ZM54.2017 28.9236C54.3748 28.9152 54.5418 28.8565 54.6821 28.7546C54.8224 28.6527 54.9299 28.5121 54.9914 28.35L55.4115 27.2434L55.8317 28.3501C55.8932 28.5121 56.0006 28.6527 56.1409 28.7546C56.2811 28.8565 56.4481 28.9152 56.6212 28.9236L57.8034 28.9812L56.8807 29.7228C56.7456 29.8314 56.645 29.977 56.5915 30.1419C56.5379 30.3068 56.5336 30.4837 56.5792 30.651L56.8897 31.7932L55.8999 31.1453C55.7548 31.05 55.5851 30.9993 55.4116 30.9992C55.2381 30.9991 55.0684 31.0498 54.9232 31.1449L53.933 31.7931L54.2436 30.6508C54.289 30.4835 54.2847 30.3066 54.2311 30.1418C54.1775 29.977 54.077 29.8313 53.9419 29.7228L53.0193 28.9812L54.2017 28.9236ZM31.2579 29.2272L32.9753 30.6075L32.3975 32.7332C32.2991 33.0938 32.4309 33.4687 32.7332 33.6884C32.8851 33.7996 33.0684 33.8597 33.2567 33.86C33.4258 33.86 33.5953 33.8112 33.745 33.713L35.5885 32.5063L37.4321 33.713C37.7447 33.9176 38.1417 33.908 38.444 33.6884C38.7461 33.4689 38.8779 33.0942 38.7799 32.7339L38.2019 30.6076L39.9197 29.2271C40.2106 28.9929 40.324 28.6123 40.2087 28.2579C40.0934 27.9025 39.7778 27.661 39.4046 27.6429L37.2038 27.5356L36.4217 25.4758V25.4756C36.2891 25.1265 35.9622 24.9009 35.5887 24.9009C35.2148 24.9009 34.8877 25.1268 34.7558 25.4756L33.9736 27.5356L31.7729 27.6429C31.4 27.661 31.0844 27.9022 30.9687 28.2579C30.8534 28.6129 30.967 28.9933 31.2579 29.2272ZM34.3786 28.9236C34.5518 28.9153 34.7188 28.8566 34.8591 28.7547C34.9994 28.6528 35.1069 28.5121 35.1683 28.35L35.5885 27.2434L36.0087 28.3501C36.0702 28.5121 36.1776 28.6527 36.3179 28.7546C36.4581 28.8565 36.625 28.9152 36.7982 28.9236L37.9804 28.9812L37.0573 29.723C36.9224 29.8317 36.822 29.9773 36.7685 30.1421C36.7151 30.3069 36.7108 30.4837 36.7562 30.6509L37.0667 31.7931L36.0769 31.1452C35.9318 31.05 35.7621 30.9993 35.5886 30.9992C35.4151 30.9992 35.2454 31.0498 35.1003 31.1448L34.11 31.793L34.4206 30.6507C34.466 30.4834 34.4617 30.3065 34.4081 30.1417C34.3545 29.9768 34.254 29.8312 34.1188 29.7227L33.1962 28.9811L34.3786 28.9236ZM38.316 40.1067C38.8435 39.5578 39.1689 38.8132 39.1689 37.9936C39.1689 36.3108 37.7998 34.9415 36.1168 34.9415C34.4339 34.9415 33.0648 36.3107 33.0648 37.9936C33.0648 38.8135 33.3903 39.5583 33.9182 40.1072C32.5497 40.7199 31.4736 41.8959 31.0064 43.4043C30.8383 43.9471 30.9345 44.5196 31.27 44.9749C31.6057 45.4302 32.1241 45.6913 32.6925 45.6913H38.623V46.2433C38.623 47.546 39.683 48.6059 40.9857 48.6059H50.0145C51.3171 48.6059 52.377 47.546 52.3771 46.2433V45.6916H58.3077C58.8761 45.6916 59.3945 45.4304 59.7302 44.9751C60.0658 44.5198 60.1619 43.9473 59.9937 43.4045C59.5267 41.896 58.4505 40.7201 57.0821 40.1074C57.61 39.5584 57.9355 38.8136 57.9355 37.9938C57.9355 36.3109 56.5664 34.9417 54.8834 34.9417C53.2005 34.9417 51.8313 36.3109 51.8313 37.9938C51.8313 38.8134 52.1567 39.5579 52.6842 40.1068C52.02 40.4051 51.4246 40.8374 50.9352 41.3766C50.1718 40.4066 49.1623 39.6591 48.0118 39.2119C48.8262 38.5067 49.3429 37.4665 49.3429 36.3073C49.3429 34.1884 47.6191 32.4644 45.5001 32.4644C43.3812 32.4644 41.6573 34.1883 41.6573 36.3073C41.6573 37.4665 42.174 38.5067 42.9884 39.2119C41.8379 39.6591 40.8284 40.4066 40.065 41.3766C39.5756 40.8374 38.9802 40.405 38.316 40.1067ZM36.1168 36.3478C37.0243 36.3478 37.7627 37.0861 37.7627 37.9936C37.7627 38.9012 37.0244 39.6395 36.1168 39.6395C35.2093 39.6395 34.471 38.9012 34.471 37.9936C34.471 37.0861 35.2094 36.3478 36.1168 36.3478ZM32.4021 44.1405C32.3683 44.0952 32.3459 44.0425 32.3368 43.9868C32.3277 43.931 32.3322 43.8739 32.3498 43.8202C32.8638 42.1606 34.3776 41.0456 36.1168 41.0456C37.3812 41.0456 38.5361 41.634 39.2786 42.6351C39.0245 43.1594 38.8381 43.7138 38.7237 44.2851H32.6925C32.6361 44.2861 32.5802 44.2734 32.5296 44.2483C32.4791 44.2231 32.4353 44.1861 32.4021 44.1405ZM53.2375 37.9938C53.2375 37.0863 53.9758 36.3479 54.8833 36.3479C55.7909 36.3479 56.5292 37.0862 56.5292 37.9938C56.5292 38.9013 55.7909 39.6396 54.8833 39.6396C53.9758 39.6396 53.2375 38.9013 53.2375 37.9938ZM54.8833 41.0458C56.6226 41.0458 58.1364 42.1609 58.6503 43.8205C58.6679 43.8742 58.6724 43.9313 58.6633 43.987C58.6542 44.0427 58.6318 44.0955 58.5981 44.1408C58.5648 44.1864 58.5211 44.2234 58.4705 44.2486C58.4199 44.2737 58.364 44.2864 58.3076 44.2854H52.2764C52.162 43.7141 51.9755 43.1597 51.7215 42.6353C52.4639 41.6343 53.6189 41.0458 54.8833 41.0458ZM45.5001 33.8707C46.8436 33.8707 47.9366 34.9638 47.9366 36.3073C47.9366 37.6508 46.8436 38.7438 45.5001 38.7438C44.1566 38.7438 43.0635 37.6508 43.0635 36.3073C43.0635 34.9638 44.1566 33.8707 45.5001 33.8707ZM45.5 40.1499C48.3091 40.1499 50.6546 42.244 50.9708 45.0269V46.2433C50.9707 46.7706 50.5417 47.1997 50.0145 47.1997H40.9857C40.4584 47.1997 40.0293 46.7707 40.0293 46.2434V45.0269C40.3455 42.244 42.691 40.1499 45.5 40.1499ZM66.1579 51.6188C65.7549 50.9458 64.1014 48.9473 59.7471 51.4834L52.104 55.9351C51.7414 56.1462 51.373 56.2984 50.9896 56.3932C51.1266 56.1623 51.2348 55.904 51.3108 55.6202C51.7049 54.1491 50.831 52.6133 49.3213 52.1239C49.2911 52.1142 49.2603 52.1065 49.2292 52.1008C47.0347 51.705 44.8679 50.9216 43.1268 50.2922C42.5212 50.0733 41.9493 49.8665 41.4626 49.7087C39.4961 49.0706 37.7215 49.8591 36.2444 50.7143L30.5797 53.9939L29.9708 52.918C29.731 52.494 29.3391 52.1885 28.8675 52.0579C28.3962 51.9273 27.9028 51.9874 27.479 52.2274L25.3345 53.4411C24.4571 53.9377 24.1472 55.0555 24.6439 55.933L30.9485 67.073C31.2845 67.6667 31.9049 68.0005 32.5429 68.0005C32.8478 68.0005 33.1567 67.9242 33.4404 67.7637L35.5849 66.55C36.0088 66.31 36.3143 65.9182 36.4449 65.4467C36.5756 64.9752 36.5155 64.482 36.2755 64.058L35.7228 63.0816L36.9887 62.3507L46.768 64.971C47.3232 65.1198 47.8682 65.1941 48.4014 65.1941C49.4645 65.1941 50.4809 64.8988 51.4375 64.3098L65.308 55.769C66.5835 54.9838 66.9886 53.0057 66.1579 51.6188ZM35.09 65.0711C35.0756 65.1246 35.0507 65.1746 35.0168 65.2184C34.9828 65.2622 34.9406 65.2988 34.8924 65.3261L32.7479 66.5399C32.6997 66.5671 32.6465 66.5844 32.5915 66.591C32.5366 66.5975 32.4808 66.5931 32.4275 66.578C32.3741 66.5635 32.324 66.5386 32.2803 66.5047C32.2365 66.4708 32.1999 66.4286 32.1725 66.3804L25.8677 55.2403C25.8405 55.1921 25.8232 55.1389 25.8166 55.0839C25.8101 55.0289 25.8145 54.9732 25.8296 54.9199C25.8441 54.8665 25.869 54.8164 25.9029 54.7726C25.9369 54.7289 25.9791 54.6922 26.0273 54.6649L28.1717 53.4512C28.2342 53.4158 28.3048 53.3972 28.3767 53.3972C28.4152 53.3972 28.4538 53.4025 28.4921 53.4131C28.5455 53.4276 28.5956 53.4525 28.6393 53.4864C28.6831 53.5203 28.7197 53.5626 28.747 53.6107L34.1578 63.1712C34.1581 63.1717 34.1583 63.1723 34.1586 63.1727L34.1593 63.1738L35.0518 64.7507C35.1068 64.8478 35.1203 64.9616 35.09 65.0711ZM64.5708 54.5715L50.7004 63.1124C49.6066 63.7859 48.4058 63.9544 47.1322 63.6127L37.0715 60.917C36.9823 60.8931 36.8893 60.887 36.7978 60.899C36.7062 60.9111 36.618 60.941 36.538 60.9872L35.0303 61.8576L31.2725 55.2179L36.9491 51.9313C38.2186 51.1963 39.5915 50.5801 41.0288 51.0465C41.4932 51.1971 42.0287 51.3906 42.6488 51.6148C44.4264 52.2575 46.6355 53.056 48.9286 53.4755C49.7137 53.7508 50.1527 54.5091 49.9524 55.2564C49.689 56.2394 48.8685 56.3623 48.2155 56.2874C47.091 56.0562 46.0219 55.751 44.8906 55.4279C44.3536 55.2746 43.7982 55.1159 43.2273 54.963C43.0472 54.9147 42.8552 54.94 42.6937 55.0333C42.5322 55.1265 42.4144 55.2801 42.3661 55.4602C42.3179 55.6403 42.3431 55.8323 42.4364 55.9938C42.5296 56.1553 42.6832 56.2731 42.8633 56.3214C43.4231 56.4713 43.9728 56.6283 44.5043 56.7801C45.6713 57.1134 46.7735 57.4283 47.9609 57.671C47.9655 57.672 47.97 57.6722 47.9745 57.6731C47.9794 57.674 47.9839 57.6754 47.9888 57.6762L48.9392 57.8307C50.3666 58.0593 51.6332 57.8366 52.8115 57.1505L60.4546 52.6989C62.6415 51.4254 64.3225 51.2917 64.9514 52.3416C65.3841 53.0636 65.192 54.1891 64.5708 54.5715ZM28.8669 55.7317C28.8825 55.8317 28.8781 55.9337 28.8541 56.032C28.83 56.1302 28.7866 56.2228 28.7266 56.3042C28.6665 56.3856 28.591 56.4543 28.5042 56.5063C28.4174 56.5584 28.3212 56.5927 28.2211 56.6073C28.121 56.622 28.019 56.6166 27.921 56.5916C27.8229 56.5666 27.7308 56.5224 27.65 56.4615C27.5692 56.4007 27.5012 56.3245 27.45 56.2372C27.3988 56.15 27.3654 56.0534 27.3517 55.9532C27.3244 55.7532 27.3772 55.5506 27.4985 55.3893C27.6198 55.2281 27.7999 55.1212 27.9996 55.092C28.1993 55.0628 28.4024 55.1137 28.5649 55.2335C28.7273 55.3532 28.8358 55.5323 28.8669 55.7317Z" fill="#ED3237"/>
</g>
<rect x="74.5" y="29.5" width="31" height="31" rx="15.5" fill="#333333" stroke="white"/>
<path d="M79.9879 44.39C79.9879 42.66 80.2979 41.305 80.9179 40.325C81.5479 39.345 82.5879 38.855 84.0379 38.855C85.4879 38.855 86.5229 39.345 87.1429 40.325C87.7729 41.305 88.0879 42.66 88.0879 44.39C88.0879 46.13 87.7729 47.495 87.1429 48.485C86.5229 49.475 85.4879 49.97 84.0379 49.97C82.5879 49.97 81.5479 49.475 80.9179 48.485C80.2979 47.495 79.9879 46.13 79.9879 44.39ZM86.0179 44.39C86.0179 43.65 85.9679 43.03 85.8679 42.53C85.7779 42.02 85.5879 41.605 85.2979 41.285C85.0179 40.965 84.5979 40.805 84.0379 40.805C83.4779 40.805 83.0529 40.965 82.7629 41.285C82.4829 41.605 82.2929 42.02 82.1929 42.53C82.1029 43.03 82.0579 43.65 82.0579 44.39C82.0579 45.15 82.1029 45.79 82.1929 46.31C82.2829 46.82 82.4729 47.235 82.7629 47.555C83.0529 47.865 83.4779 48.02 84.0379 48.02C84.5979 48.02 85.0229 47.865 85.3129 47.555C85.6029 47.235 85.7929 46.82 85.8829 46.31C85.9729 45.79 86.0179 45.15 86.0179 44.39ZM89.5951 47.87V46.22L94.5001 39.2H96.9451V46.04H98.2651V47.87H96.9451V50H94.8451V47.87H89.5951ZM94.9801 41.45L91.9051 46.04H94.9801V41.45Z" fill="white"/>
<defs>
<clipPath id="clip0_38_503">
<rect width="45" height="45" fill="white" transform="translate(23 23)"/>
</clipPath>
</defs>
</svg>
